<?xml version="1.0" encoding="utf-8"?>
<!-- Generator: Adobe Illustrator 25.2.0, SVG Export Plug-In . SVG Version: 6.00 Build 0)  -->
<svg version="1.1" id="Layer_1" xmlns="http://www.w3.org/2000/svg" xmlns:xlink="http://www.w3.org/1999/xlink" x="0px" y="0px"
	 viewBox="0 0 100 100" style="enable-background:new 0 0 100 100;" xml:space="preserve">
<style type="text/css">
	.st0{display:none;}
	.st1{display:inline;}
	.st2{fill:url(#SVGID_1_);}
	.st3{fill:#FBFBFB;}
	.st4{fill:url(#SVGID_2_);}
	.st5{fill:#FFFFFF;}
	.st6{fill:url(#SVGID_3_);}
	.st7{fill:url(#SVGID_4_);}
	.st8{fill:url(#SVGID_5_);}
	.st9{fill:url(#SVGID_6_);}
	.st10{fill:url(#SVGID_7_);}
	.st11{fill:url(#SVGID_8_);}
	.st12{fill:url(#SVGID_9_);}
	.st13{fill:url(#SVGID_10_);}
	.st14{fill:url(#SVGID_11_);}
	.st15{fill:url(#SVGID_12_);}
	.st16{fill:url(#SVGID_13_);}
	.st17{fill:url(#SVGID_14_);}
	.st18{fill:url(#SVGID_15_);}
	.st19{fill:url(#SVGID_16_);}
	.st20{fill:url(#SVGID_17_);}
	.st21{fill:url(#SVGID_18_);}
</style>
<g class="st0">
	<g class="st1">
		<g>
			<linearGradient id="SVGID_1_" gradientUnits="userSpaceOnUse" x1="14.6447" y1="85.3553" x2="85.3553" y2="14.6447">
				<stop  offset="0" style="stop-color:#121212"/>
				<stop  offset="1" style="stop-color:#515151"/>
			</linearGradient>
			<circle class="st2" cx="50" cy="50" r="50"/>
		</g>
	</g>
	<g class="st1">
		<polygon class="st3" points="54.8,41.2 58.2,44.6 63.3,39.5 69.3,45.5 69.3,30.3 54.1,30.3 59.9,36.1 		"/>
		<polygon class="st3" points="69.3,50.4 62.9,56.8 57.8,51.7 54.6,54.9 59.8,60 53.5,66.2 69.3,66.2 		"/>
		<polygon class="st3" points="48.4,55.1 45,51.7 39.7,56.9 33.7,50.9 33.7,66.2 49,66.2 43.1,60.3 		"/>
		<polygon class="st3" points="44.9,44.8 48,41.6 42.9,36.5 49.1,30.3 33.4,30.3 33.4,46 39.8,39.6 		"/>
	</g>
</g>
<g class="st0">
	<g class="st1">
		<linearGradient id="SVGID_2_" gradientUnits="userSpaceOnUse" x1="14.7512" y1="85.319" x2="85.3736" y2="14.6966">
			<stop  offset="0" style="stop-color:#121212"/>
			<stop  offset="1" style="stop-color:#515151"/>
		</linearGradient>
		<circle class="st4" cx="50.1" cy="50" r="49.9"/>
	</g>
	<g class="st1">
		<linearGradient id="SVGID_3_" gradientUnits="userSpaceOnUse" x1="63.6438" y1="29.4075" x2="34.2773" y2="58.7739">
			<stop  offset="0" style="stop-color:#C4C4C4"/>
			<stop  offset="2.226710e-03" style="stop-color:#C4C4C4"/>
			<stop  offset="0.235" style="stop-color:#DEDEDE"/>
			<stop  offset="0.4743" style="stop-color:#F0F0F0"/>
			<stop  offset="0.7243" style="stop-color:#FBFBFB"/>
			<stop  offset="1" style="stop-color:#FFFFFF"/>
		</linearGradient>
		<path class="st6" d="M50.1,59.2L50.1,59.2c5.4,0,9.9-4.1,9.9-9.5V36.5c0-5.4-4.4-9.9-9.9-9.9h0c-5.4,0-9.9,4.4-9.9,9.9v13.1
			C40.2,55.1,44.6,59.2,50.1,59.2z"/>
		<linearGradient id="SVGID_4_" gradientUnits="userSpaceOnUse" x1="69.5826" y1="35.3462" x2="40.216" y2="64.7127">
			<stop  offset="0" style="stop-color:#C4C4C4"/>
			<stop  offset="2.226710e-03" style="stop-color:#C4C4C4"/>
			<stop  offset="0.235" style="stop-color:#DEDEDE"/>
			<stop  offset="0.4743" style="stop-color:#F0F0F0"/>
			<stop  offset="0.7243" style="stop-color:#FBFBFB"/>
			<stop  offset="1" style="stop-color:#FFFFFF"/>
		</linearGradient>
		<path class="st7" d="M63.5,51.5c0,7.1-5.3,11.7-13.5,11.7c-6.5,0-13.5-3-13.5-11.5H33c0,8.7,5.9,14.4,15.3,15.1v6.6h3.6v-6.6
			c9.2-0.7,15.3-6.6,15.3-15.2H63.5z"/>
	</g>
</g>
<g>
	<g>
		<linearGradient id="SVGID_5_" gradientUnits="userSpaceOnUse" x1="14.6888" y1="85.3112" x2="85.3112" y2="14.6888">
			<stop  offset="0" style="stop-color:#121212"/>
			<stop  offset="1" style="stop-color:#515151"/>
		</linearGradient>
		<circle class="st8" cx="50" cy="50" r="49.9"/>
	</g>
	<g>
		<linearGradient id="SVGID_6_" gradientUnits="userSpaceOnUse" x1="70.2208" y1="30.6582" x2="37.18" y2="63.6991">
			<stop  offset="0" style="stop-color:#C4C4C4"/>
			<stop  offset="2.226710e-03" style="stop-color:#C4C4C4"/>
			<stop  offset="0.235" style="stop-color:#DEDEDE"/>
			<stop  offset="0.4743" style="stop-color:#F0F0F0"/>
			<stop  offset="0.7243" style="stop-color:#FBFBFB"/>
			<stop  offset="1" style="stop-color:#FFFFFF"/>
		</linearGradient>
		<path class="st9" d="M72.9,68l-8-8c1.6-2.3,2.4-5.2,2.4-8.4h-3.6c0,2.2-0.5,4.2-1.5,5.8l-3.3-3.3c0.7-1.3,1.1-2.8,1.1-4.4V36.5
			c0-5.4-4.4-9.9-9.9-9.9c-5.1,0-9.3,3.9-9.8,8.9L32.9,28l-2.5,2.5l10,10v0.1l16.3,16.3c0,0,0,0,0.1-0.1l3.2,3.2c0,0,0,0-0.1,0.1
			l2.6,2.6c0,0,0,0,0.1-0.1l7.9,7.9L72.9,68z"/>
		<linearGradient id="SVGID_7_" gradientUnits="userSpaceOnUse" x1="72.2904" y1="32.7279" x2="39.2496" y2="65.7687">
			<stop  offset="0" style="stop-color:#C4C4C4"/>
			<stop  offset="2.226710e-03" style="stop-color:#C4C4C4"/>
			<stop  offset="0.235" style="stop-color:#DEDEDE"/>
			<stop  offset="0.4743" style="stop-color:#F0F0F0"/>
			<stop  offset="0.7243" style="stop-color:#FBFBFB"/>
			<stop  offset="1" style="stop-color:#FFFFFF"/>
		</linearGradient>
		<path class="st10" d="M50.1,63.2c-6.5,0-13.5-3-13.5-11.5h-3.6c0,8.7,5.9,14.4,15.3,15.1v6.6h3.6v-6.6c2.8-0.2,5.3-0.9,7.4-2
			L56.6,62C54.8,62.8,52.6,63.2,50.1,63.2z"/>
		<linearGradient id="SVGID_8_" gradientUnits="userSpaceOnUse" x1="69.2757" y1="29.7131" x2="36.2348" y2="62.7539">
			<stop  offset="0" style="stop-color:#C4C4C4"/>
			<stop  offset="2.226710e-03" style="stop-color:#C4C4C4"/>
			<stop  offset="0.235" style="stop-color:#DEDEDE"/>
			<stop  offset="0.4743" style="stop-color:#F0F0F0"/>
			<stop  offset="0.7243" style="stop-color:#FBFBFB"/>
			<stop  offset="1" style="stop-color:#FFFFFF"/>
		</linearGradient>
		<path class="st11" d="M53.3,58.7l-13-13v3.9c0,5.4,4.4,9.5,9.9,9.5C51.2,59.2,52.3,59,53.3,58.7z"/>
	</g>
</g>
<g class="st0">
	<g class="st1">
		<linearGradient id="SVGID_9_" gradientUnits="userSpaceOnUse" x1="14.7513" y1="85.3675" x2="85.3736" y2="14.7452">
			<stop  offset="0" style="stop-color:#121212"/>
			<stop  offset="1" style="stop-color:#515151"/>
		</linearGradient>
		<circle class="st12" cx="50.1" cy="50.1" r="49.9"/>
	</g>
	<g class="st1">
		<linearGradient id="SVGID_10_" gradientUnits="userSpaceOnUse" x1="36.5843" y1="46.1015" x2="28.6746" y2="54.0112">
			<stop  offset="0" style="stop-color:#C4C4C4"/>
			<stop  offset="2.226710e-03" style="stop-color:#C4C4C4"/>
			<stop  offset="0.235" style="stop-color:#DEDEDE"/>
			<stop  offset="0.4743" style="stop-color:#F0F0F0"/>
			<stop  offset="0.7243" style="stop-color:#FBFBFB"/>
			<stop  offset="1" style="stop-color:#FFFFFF"/>
		</linearGradient>
		<circle class="st13" cx="32.6" cy="50.1" r="5.6"/>
		<linearGradient id="SVGID_11_" gradientUnits="userSpaceOnUse" x1="54.0173" y1="46.1015" x2="46.1076" y2="54.0112">
			<stop  offset="0" style="stop-color:#C4C4C4"/>
			<stop  offset="2.226710e-03" style="stop-color:#C4C4C4"/>
			<stop  offset="0.235" style="stop-color:#DEDEDE"/>
			<stop  offset="0.4743" style="stop-color:#F0F0F0"/>
			<stop  offset="0.7243" style="stop-color:#FBFBFB"/>
			<stop  offset="1" style="stop-color:#FFFFFF"/>
		</linearGradient>
		<circle class="st14" cx="50.1" cy="50.1" r="5.6"/>
		<linearGradient id="SVGID_12_" gradientUnits="userSpaceOnUse" x1="71.4503" y1="46.1015" x2="63.5406" y2="54.0112">
			<stop  offset="0" style="stop-color:#C4C4C4"/>
			<stop  offset="2.226710e-03" style="stop-color:#C4C4C4"/>
			<stop  offset="0.235" style="stop-color:#DEDEDE"/>
			<stop  offset="0.4743" style="stop-color:#F0F0F0"/>
			<stop  offset="0.7243" style="stop-color:#FBFBFB"/>
			<stop  offset="1" style="stop-color:#FFFFFF"/>
		</linearGradient>
		<circle class="st15" cx="67.5" cy="50.1" r="5.6"/>
	</g>
</g>
</svg>
