<?xml version="1.0" encoding="utf-8"?>
<!-- Generator: Adobe Illustrator 25.2.0, SVG Export Plug-In . SVG Version: 6.00 Build 0)  -->
<svg version="1.1" id="Layer_1" xmlns="http://www.w3.org/2000/svg" xmlns:xlink="http://www.w3.org/1999/xlink" x="0px" y="0px"
	 viewBox="0 0 100 100" style="enable-background:new 0 0 100 100;" xml:space="preserve">
<style type="text/css">
	.st0{fill:url(#SVGID_1_);}
	.st1{fill:#FBFBFB;}
	.st2{fill:url(#SVGID_2_);}
	.st3{fill:#FFFFFF;}
	.st4{fill:url(#SVGID_3_);}
	.st5{fill:url(#SVGID_4_);}
	.st6{fill:url(#SVGID_5_);}
	.st7{fill:url(#SVGID_6_);}
	.st8{fill:url(#SVGID_7_);}
	.st9{fill:url(#SVGID_8_);}
	.st10{fill:url(#SVGID_9_);}
	.st11{fill:url(#SVGID_10_);}
	.st12{fill:url(#SVGID_11_);}
	.st13{fill:url(#SVGID_12_);}
	.st14{fill:url(#SVGID_13_);}
	.st15{fill:url(#SVGID_14_);}
	.st16{fill:url(#SVGID_15_);}
	.st17{fill:url(#SVGID_16_);}
	.st18{fill:url(#SVGID_17_);}
	.st19{fill:url(#SVGID_18_);}
</style>
<g>
	<g>
		<g>
			<linearGradient id="SVGID_1_" gradientUnits="userSpaceOnUse" x1="14.6447" y1="85.3553" x2="85.3553" y2="14.6447">
				<stop  offset="0" style="stop-color:#121212"/>
				<stop  offset="1" style="stop-color:#515151"/>
			</linearGradient>
			<circle class="st0" cx="50" cy="50" r="50"/>
		</g>
	</g>
	<g>
		<polygon class="st1" points="54.8,41.2 58.2,44.6 63.3,39.5 69.3,45.5 69.3,30.3 54.1,30.3 59.9,36.1 		"/>
		<polygon class="st1" points="69.3,50.4 62.9,56.8 57.8,51.7 54.6,54.9 59.8,60 53.5,66.2 69.3,66.2 		"/>
		<polygon class="st1" points="48.4,55.1 45,51.7 39.7,56.9 33.7,50.9 33.7,66.2 49,66.2 43.1,60.3 		"/>
		<polygon class="st1" points="44.9,44.8 48,41.6 42.9,36.5 49.1,30.3 33.4,30.3 33.4,46 39.8,39.6 		"/>
	</g>
</g>
</svg>
