<?xml version="1.0" encoding="utf-8"?>
<!-- Generator: Adobe Illustrator 25.2.0, SVG Export Plug-In . SVG Version: 6.00 Build 0)  -->
<svg version="1.1" id="Layer_1" xmlns="http://www.w3.org/2000/svg" xmlns:xlink="http://www.w3.org/1999/xlink" x="0px" y="0px"
	 viewBox="0 0 100 100" style="enable-background:new 0 0 100 100;" xml:space="preserve">
<style type="text/css">
	.st0{display:none;}
	.st1{display:inline;}
	.st2{fill:url(#SVGID_1_);}
	.st3{fill:#FBFBFB;}
	.st4{fill:url(#SVGID_2_);}
	.st5{fill:#FFFFFF;}
	.st6{fill:url(#SVGID_3_);}
	.st7{fill:url(#SVGID_4_);}
	.st8{fill:url(#SVGID_5_);}
	.st9{fill:url(#SVGID_6_);}
	.st10{fill:url(#SVGID_7_);}
	.st11{fill:url(#SVGID_8_);}
	.st12{fill:url(#SVGID_9_);}
	.st13{fill:url(#SVGID_10_);}
	.st14{fill:url(#SVGID_11_);}
	.st15{fill:url(#SVGID_12_);}
	.st16{fill:url(#SVGID_13_);}
	.st17{fill:url(#SVGID_14_);}
	.st18{fill:url(#SVGID_15_);}
	.st19{fill:url(#SVGID_16_);}
	.st20{fill:url(#SVGID_17_);}
	.st21{fill:url(#SVGID_18_);}
</style>
<g class="st0">
	<g class="st1">
		<g>
			<linearGradient id="SVGID_1_" gradientUnits="userSpaceOnUse" x1="14.6447" y1="85.3553" x2="85.3553" y2="14.6447">
				<stop  offset="0" style="stop-color:#121212"/>
				<stop  offset="1" style="stop-color:#515151"/>
			</linearGradient>
			<circle class="st2" cx="50" cy="50" r="50"/>
		</g>
	</g>
	<g class="st1">
		<polygon class="st3" points="54.8,41.2 58.2,44.6 63.3,39.5 69.3,45.5 69.3,30.3 54.1,30.3 59.9,36.1 		"/>
		<polygon class="st3" points="69.3,50.4 62.9,56.8 57.8,51.7 54.6,54.9 59.8,60 53.5,66.2 69.3,66.2 		"/>
		<polygon class="st3" points="48.4,55.1 45,51.7 39.7,56.9 33.7,50.9 33.7,66.2 49,66.2 43.1,60.3 		"/>
		<polygon class="st3" points="44.9,44.8 48,41.6 42.9,36.5 49.1,30.3 33.4,30.3 33.4,46 39.8,39.6 		"/>
	</g>
</g>
<g>
	<g>
		<linearGradient id="SVGID_2_" gradientUnits="userSpaceOnUse" x1="14.7513" y1="85.3675" x2="85.3736" y2="14.7452">
			<stop  offset="0" style="stop-color:#121212"/>
			<stop  offset="1" style="stop-color:#515151"/>
		</linearGradient>
		<circle class="st4" cx="50.1" cy="50.1" r="49.9"/>
	</g>
	<g>
		<linearGradient id="SVGID_3_" gradientUnits="userSpaceOnUse" x1="36.5843" y1="46.1015" x2="28.6746" y2="54.0112">
			<stop  offset="0" style="stop-color:#C4C4C4"/>
			<stop  offset="2.226710e-03" style="stop-color:#C4C4C4"/>
			<stop  offset="0.235" style="stop-color:#DEDEDE"/>
			<stop  offset="0.4743" style="stop-color:#F0F0F0"/>
			<stop  offset="0.7243" style="stop-color:#FBFBFB"/>
			<stop  offset="1" style="stop-color:#FFFFFF"/>
		</linearGradient>
		<circle class="st6" cx="32.6" cy="50.1" r="5.6"/>
		<linearGradient id="SVGID_4_" gradientUnits="userSpaceOnUse" x1="54.0173" y1="46.1015" x2="46.1076" y2="54.0112">
			<stop  offset="0" style="stop-color:#C4C4C4"/>
			<stop  offset="2.226710e-03" style="stop-color:#C4C4C4"/>
			<stop  offset="0.235" style="stop-color:#DEDEDE"/>
			<stop  offset="0.4743" style="stop-color:#F0F0F0"/>
			<stop  offset="0.7243" style="stop-color:#FBFBFB"/>
			<stop  offset="1" style="stop-color:#FFFFFF"/>
		</linearGradient>
		<circle class="st7" cx="50.1" cy="50.1" r="5.6"/>
		<linearGradient id="SVGID_5_" gradientUnits="userSpaceOnUse" x1="71.4503" y1="46.1015" x2="63.5406" y2="54.0112">
			<stop  offset="0" style="stop-color:#C4C4C4"/>
			<stop  offset="2.226710e-03" style="stop-color:#C4C4C4"/>
			<stop  offset="0.235" style="stop-color:#DEDEDE"/>
			<stop  offset="0.4743" style="stop-color:#F0F0F0"/>
			<stop  offset="0.7243" style="stop-color:#FBFBFB"/>
			<stop  offset="1" style="stop-color:#FFFFFF"/>
		</linearGradient>
		<circle class="st8" cx="67.5" cy="50.1" r="5.6"/>
	</g>
</g>
</svg>
