<?xml version="1.0" encoding="utf-8"?>
<!-- Generator: Adobe Illustrator 25.2.0, SVG Export Plug-In . SVG Version: 6.00 Build 0)  -->
<svg version="1.1" id="Layer_1" xmlns="http://www.w3.org/2000/svg" xmlns:xlink="http://www.w3.org/1999/xlink" x="0px" y="0px"
	 viewBox="0 0 500 200" style="enable-background:new 0 0 500 200;" xml:space="preserve">
<style type="text/css">
	.st0{fill:#FFFFFF;}
</style>
<g>
	<path class="st0" d="M170.87,60.43h8.53v64.9h-8.88V76.72l0.45,2.86l-15.98,36.73h-6.34l-15.98-35.84l0.45-3.75v48.61h-8.88v-64.9
		h8.53l19.06,42.85L170.87,60.43z"/>
	<path class="st0" d="M202.56,123.59c-3.04-1.61-5.35-3.96-6.94-7.07c-1.59-3.11-2.39-6.87-2.39-11.27v-5.22
		c0-4.58,0.77-8.5,2.3-11.74c1.53-3.24,3.76-5.71,6.67-7.41c2.92-1.7,6.43-2.54,10.53-2.54c3.87,0,7.17,0.97,9.91,2.9
		c2.74,1.93,4.83,4.73,6.27,8.39c1.44,3.66,2.16,8.05,2.16,13.17v3.04h-31.24V98.5h22.59c-0.27-3.78-1.24-6.72-2.92-8.82
		c-1.68-2.1-3.94-3.15-6.76-3.15c-3.45,0-6.12,1.13-8.01,3.39c-1.89,2.26-2.83,5.46-2.83,9.6v5.89c0,3.84,1.01,6.78,3.04,8.84
		c2.02,2.05,4.89,3.08,8.61,3.08c1.84,0,3.67-0.37,5.49-1.12c1.81-0.74,3.44-1.79,4.87-3.12l5.98,5.98
		c-2.29,2.2-4.87,3.91-7.72,5.11c-2.86,1.2-5.73,1.81-8.61,1.81C209.25,126,205.59,125.19,202.56,123.59z"/>
	<path class="st0" d="M249.58,123.92c-2.4-1.47-4.22-3.62-5.47-6.45c-1.25-2.83-1.87-6.22-1.87-10.18V97.07
		c0-3.99,0.61-7.39,1.83-10.22c1.22-2.83,3-4.98,5.33-6.45c2.34-1.47,5.14-2.21,8.41-2.21c2.74,0,5.24,0.71,7.52,2.14
		c2.28,1.43,4.11,3.44,5.51,6.03l-0.94,9.46c0-1.96-0.36-3.64-1.07-5.04c-0.71-1.4-1.75-2.46-3.1-3.19c-1.35-0.73-3-1.09-4.93-1.09
		c-3.01,0-5.33,0.94-6.99,2.81c-1.65,1.87-2.48,4.51-2.48,7.9v10.09c0,3.36,0.83,5.96,2.48,7.79c1.65,1.83,3.98,2.74,6.99,2.74
		c1.93,0,3.58-0.38,4.93-1.14c1.35-0.76,2.39-1.85,3.1-3.28c0.71-1.43,1.07-3.14,1.07-5.13l0.62,9.78
		c-0.92,2.29-2.43,4.21-4.53,5.76c-2.1,1.55-4.68,2.32-7.74,2.32C254.87,126.13,251.98,125.39,249.58,123.92z M269.91,60.43h9.11
		v64.9h-9.11V60.43z"/>
	<path class="st0" d="M316.69,60.43h9.11v64.9h-9.11V60.43z M322.85,116.67h14.68c4.79,0,8.5-1.24,11.14-3.73
		c2.63-2.48,3.95-5.99,3.95-10.51v-19.1c0-4.52-1.32-8.03-3.95-10.51c-2.63-2.48-6.35-3.73-11.14-3.73h-14.68v-8.66h14.42
		c5.21,0,9.66,0.91,13.35,2.72c3.69,1.82,6.5,4.46,8.44,7.95c1.93,3.48,2.9,7.68,2.9,12.59v18.39c0,4.91-0.97,9.11-2.9,12.59
		c-1.93,3.48-4.75,6.13-8.46,7.95c-3.7,1.82-8.16,2.72-13.37,2.72h-14.37V116.67z"/>
	<path class="st0" d="M383.24,123.63c-2.86-1.58-5.04-3.88-6.54-6.9c-1.5-3.02-2.25-6.66-2.25-10.91v-7.54
		c0-4.2,0.75-7.79,2.25-10.78c1.5-2.99,3.68-5.27,6.54-6.83c2.86-1.56,6.29-2.34,10.31-2.34s7.45,0.78,10.31,2.34
		c2.86,1.56,5.04,3.84,6.54,6.83c1.5,2.99,2.25,6.58,2.25,10.78v7.68c0,4.23-0.75,7.83-2.25,10.82c-1.5,2.99-3.68,5.27-6.54,6.85
		c-2.86,1.58-6.29,2.37-10.31,2.37S386.1,125.21,383.24,123.63z M400.94,114.35c1.74-1.99,2.61-4.79,2.61-8.39v-7.68
		c0-3.6-0.87-6.38-2.61-8.35c-1.74-1.96-4.2-2.95-7.39-2.95c-3.18,0-5.65,0.98-7.39,2.95c-1.74,1.96-2.61,4.75-2.61,8.35v7.68
		c0,3.6,0.87,6.4,2.61,8.39c1.74,1.99,4.2,2.99,7.39,2.99C396.73,117.34,399.2,116.34,400.94,114.35z"/>
	<g>
		<path class="st0" d="M456.14,143.69c0.12-4.42-2.12-8.17-4.99-8.38c-2.64-0.19-4.9,2.68-5.34,6.57l-10.92-0.78
			c-0.14-0.53-0.4-0.93-0.79-0.94c-0.63-0.02-1.25-0.11-1.88-0.22c-0.68-0.11-1.36-0.26-2.03-0.44c-0.2-0.05-0.39-0.11-0.59-0.16
			c-0.02-0.01-0.04-0.01-0.05-0.01c-0.01,0-0.02-0.01-0.03-0.01c-0.11-0.04-0.23-0.07-0.34-0.11c-0.43-0.14-0.86-0.29-1.29-0.46
			c-1.86-0.74-3.7-1.74-5.45-3.21c-0.09-0.07-0.18-0.15-0.26-0.23c0.04,0.03-0.15-0.13-0.21-0.19c-0.23-0.21-0.45-0.43-0.68-0.66
			c-0.42-0.43-0.83-0.9-1.23-1.41c-0.19-0.24-0.37-0.48-0.55-0.74c-0.08-0.12-0.17-0.24-0.25-0.37c-0.06-0.08-0.11-0.17-0.16-0.25
			c-0.02-0.03-0.05-0.08-0.08-0.13c-0.33-0.55-0.65-1.13-0.94-1.76c-0.15-0.31-0.29-0.63-0.42-0.96c-0.06-0.16-0.12-0.32-0.19-0.47
			c0.17,0.43-0.09-0.25-0.13-0.37c-0.25-0.74-0.47-1.52-0.65-2.34c-0.02-0.08-0.03-0.17-0.05-0.25c0-0.01,0-0.02-0.01-0.03
			c0,0,0-0.01,0-0.01c-0.03-0.19-0.07-0.39-0.1-0.58c-0.08-0.46-0.14-0.93-0.2-1.41c-0.05-0.44-0.09-0.89-0.12-1.34
			c0-0.03,0-0.07-0.01-0.12c0,0.03,0,0.07,0.01,0.12c0-0.07-0.01-0.13-0.01-0.2c0-0.02,0-0.04,0-0.04c0-0.02,0-0.04,0-0.06
			c-0.01-0.3-0.02-0.6-0.03-0.9c-0.02-1.06,0.03-2.1,0.08-3.15c0-0.01,0-0.01,0-0.02c0.01-0.1,0.02-0.2,0.03-0.3
			c0.02-0.22,0.04-0.44,0.07-0.66c0.06-0.52,0.13-1.03,0.21-1.53c0.07-0.4,0.15-0.79,0.22-1.18c0-0.01,0-0.02,0-0.02
			c0-0.01,0-0.02,0.01-0.02c0.02-0.08,0.04-0.17,0.06-0.25c0.06-0.25,0.12-0.49,0.19-0.73c0.1-0.35,0.2-0.7,0.31-1.04
			c0.06-0.19,0.12-0.37,0.19-0.55c0.03-0.09,0.23-0.6,0.18-0.48c0.27-0.64,0.56-1.25,0.87-1.81c0.15-0.27,0.3-0.53,0.46-0.78
			c0.04-0.07,0.27-0.41,0.18-0.28c0.09-0.13,0.18-0.26,0.28-0.39c0.76-1.04,1.58-1.88,2.43-2.6c0.02-0.02,0.04-0.03,0.06-0.05
			c0.02-0.02,0.05-0.04,0.07-0.06c0.1-0.08,0.2-0.15,0.3-0.23c0.23-0.17,0.47-0.34,0.7-0.49c0.45-0.29,0.9-0.56,1.36-0.79
			c0.1-0.05,0.21-0.1,0.31-0.15c0.18,3.44,1.08,6.76,2.45,9.51c4.14,8.3,11.34,11.74,17.9,11.74c3.65,0,7.3-0.05,10.95-0.07
			c0.85-0.01,1.28-0.99,1.31-2c0-0.04,0.01-0.07,0.01-0.11c-0.01-1.33-0.01-2.66-0.02-3.98l0.68,0l-0.03-5.38
			c0-0.54-0.29-0.97-0.64-0.97l-1.29,0c-0.35,0-0.63,0.44-0.63,0.98l0.03,5.38l0.6,0c0,0.62,0.01,1.25,0.01,1.87
			c-0.02,0-0.04,0-0.06,0c-3.33,0.02-6.67,0.04-10,0.07c-5.26,0.03-10.8-1.6-14.87-7.14c-1.86-2.52-3.38-5.88-3.64-9.75
			c-0.26-3.8,0.67-7.48,2.26-10.33c3.71-6.65,9.72-9.24,15.25-9.29c3.59-0.03,7.18-0.05,10.77-0.07c0.02,0,0.04,0,0.06,0
			c0,0.56,0.01,1.11,0.01,1.67l-0.6,0.01l0.04,5.38c0,0.54,0.29,0.97,0.64,0.97l1.29-0.01c0.35,0,0.63-0.44,0.63-0.98l-0.04-5.38
			l-0.68,0.01c-0.01-1.33-0.02-2.66-0.03-3.98c0-0.09-0.02-0.18-0.04-0.26c-0.12-0.88-0.55-1.64-1.31-1.64
			c-3.48,0.02-6.97,0.05-10.45,0.07c-5.97,0.04-12.22,2.55-16.6,9.07c-1.94,2.88-3.35,6.54-3.82,10.63
			c-2.86,1.22-5.68,3.37-7.79,7.43c-3.04,5.85-3.78,15.95-1.43,23.08c2.25,6.81,6.37,10.1,10.17,11.96c1.74,0.85,3.52,1.44,5.3,1.83
			c0.93,0.21,1.88,0.4,2.82,0.42c0.04,0,0.09,0.01,0.13,0.01c0.36,0.01,0.62-0.31,0.77-0.76l10.92,0.78
			c0.24,3.94,2.34,7.11,4.97,7.3C453.6,151.53,456.02,148.11,456.14,143.69z M450.79,148.82c-1.74-0.12-3.13-2.13-3.39-4.68
			l1.34,0.1l0.06-2.15l-1.34-0.1c0.39-2.5,1.89-4.3,3.62-4.18c1.98,0.14,3.51,2.72,3.43,5.76S452.77,148.96,450.79,148.82z"/>
		<path class="st0" d="M452.03,143.35c0.03-1.04-0.5-1.92-1.17-1.97c-0.68-0.05-1.25,0.76-1.27,1.8c-0.03,1.04,0.5,1.92,1.17,1.97
			C451.44,145.2,452.01,144.39,452.03,143.35z"/>
	</g>
	<g>
		<path class="st0" d="M109.94,87.72c-0.3-0.25-0.73-0.54-0.95-0.87c-0.4-0.59-0.26-0.27-0.02-0.88c0.22-0.57,0.53-1.01,0.66-1.65
			c0.34-1.68,0.55-3.6,0.41-5.29c-0.16-1.9-0.72-3.68-1.38-5.46c-0.58-1.57-1.12-3.25-2.06-4.65c-1.79-2.64-4.69-4.27-7.62-5.35
			c-4.01-1.48-8.24-2.34-12.49-2.72c-4.37-0.4-8.98-0.28-13.35,0.18c-1.94,0.2-3.89,0.75-5.73,1.53l0.04,3c-0.59,0.34,0,0-1.1,0.47
			c-0.95,0.4-2.03,0.86-2.39,1.09c-2,1.23-3.77,3.05-5.11,5.26c-2.94,4.82-3.07,9.53-2.33,15.55c0.38,3.09,1.47,5.99,3.34,8.85
			c0.75,1.15,1.59,2.29,2.41,3.39c1.02,1.38,2.07,2.8,2.99,4.3c1.6,2.6,3.56,6.53,2.01,10.72c-1.04,2.81-3.28,5.32-6.67,7.46
			c-0.4,0.5-0.27,2.81,0.19,3.34l0.01,0.03c2.19,0.01,4.34,0.01,6.26,0.02h0.15c0.01-2.58,0.02-5.38,0.03-8.24
			c0.27-0.41,0.52-0.82,0.73-1.22c1.73-3.33,1.31-6.86-0.29-10.15c-0.13-0.27-0.27-0.53-0.4-0.79c0-0.6,0-1.2,0.01-1.78
			c0-0.64,0-1.29,0.01-1.93c5.01,0.02,10.02,0.03,15.03,0.05c3.03,0.01,6.06,0.02,9.09,0.03c0.02-5.31,0.04-10.61,0.05-15.92
			c-7.39-0.03-14.79-0.05-22.18-0.08c-0.64,0-1.29,0-1.93-0.01c0.02-5.01,0.03-10.02,0.05-15.03c0.01-1.79,0.01-3.58,0.02-5.36
			c2.47-1.37,4.91-2.25,7.96-2.31c4.21-0.08,8.5,0.03,12.69,0.53c3.81,0.46,7.91,1.34,11.4,2.98c2.87,1.35,4.8,3.09,5.95,6.08
			c0.65,1.68,1.34,3.38,1.68,5.16c0.32,1.66,0.14,3.38-0.1,5.05c-0.18,1.27-1.3,2.24-1.18,3.54c0.13,1.36,1.32,2.39,2.31,3.2
			c2.02,1.66,4.09,3.36,5.45,5.65c0.11,0.18,0.2,0.4,0.32,0.58c0.02,0.03,0.04,0.13,0.06,0.23c-0.29,0.05-0.57,0.11-0.86,0.13
			c-1.32,0.12-2.26-0.74-4.23,1.5c-1.17,1.33-1.46,7.71-1.1,9.02h0c0.08,0.73,0.21,1.46,0.22,2.15c0.04,2.39-1.8,2.87-3.83,3.15
			c-0.97,0.13-1.97,0.28-2.96,0.26c-0.96-0.03-1.87-0.3-2.82-0.41c-1.01-0.12-2.07-0.1-3.01,0.35c-1.69,0.81-2.19,2.61-2.03,4.36
			c0.31,3.28,2.18,6.37,3.41,9.22h3.04c-1.23-3.12-3.37-6.04-3.65-9.45c-0.15-1.83,0.9-1.88,2.54-1.58
			c1.87,0.34,3.57,0.32,5.46,0.08c1.79-0.23,3.74-0.47,5.11-1.78c1.1-1.05,1.54-2.49,1.55-3.99c0.01-0.79-0.11-1.57-0.18-2.35
			c-0.04-1.09,0.21-6.82,0.23-7.03c0.13-1.03,2.7-0.66,3.51-0.83C121.23,97.6,112.03,89.46,109.94,87.72z M114.1,96.27
			C114.17,96.21,114.24,96.23,114.1,96.27L114.1,96.27z"/>
		<path class="st0" d="M59.17,120.49c2.91-1.84,4.81-3.92,5.65-6.19c0.89-2.41,0.34-5.02-1.79-8.46c-0.87-1.41-1.89-2.79-2.87-4.13
			c-0.83-1.13-1.7-2.3-2.49-3.51c-2.1-3.2-3.32-6.46-3.75-9.95c-0.8-6.58-0.63-11.75,2.69-17.21c1.56-2.56,3.62-4.68,5.97-6.12
			c0.53-0.33,1.55-0.98,2.73-1.48c0.94-0.4,1.63-0.61,2.08-0.87c0-0.22,0-0.44,0-0.66c-5.31-0.02-10.61-0.04-15.92-0.05
			c-0.03,7.39-0.05,14.79-0.08,22.18c0,0.64,0,1.29-0.01,1.93c-5.01-0.02-10.02-0.03-15.03-0.05l-9.09-0.03h0
			c-0.01,4.31-0.03,8.62-0.04,12.94h0v3h2.61c6.52,0.02,13.04,0.04,19.56,0.07c0.64,0,1.29,0,1.93,0.01
			c-0.02,5.01-0.03,10.02-0.05,15.03L51.26,126l0,0c2.07,0.01,4.4,0.01,6.76,0.02C57.52,124.16,57.6,121.48,59.17,120.49z"/>
	</g>
	<g>
		<rect x="292.85" y="79" class="st0" width="9.11" height="46.33"/>
		<g>
			<path class="st0" d="M302.3,53.97c0-2.6-2.12-4.72-4.73-4.72c-2.6,0-4.72,2.12-4.72,4.73l0.01,13.63c0,2.6,2.12,4.72,4.73,4.72
				c2.6,0,4.72-2.12,4.72-4.73L302.3,53.97z M293.98,60.61l-0.01-6.64c0-1.99,1.61-3.61,3.6-3.61c1.99,0,3.61,1.61,3.61,3.6
				l0.01,6.64L293.98,60.61z"/>
			<path class="st0" d="M300.03,52.84c0-0.72-0.59-1.31-1.32-1.31c-0.72,0-1.31,0.59-1.31,1.32c0,0.72,0.59,1.31,1.32,1.31
				C299.44,54.15,300.03,53.56,300.03,52.84z"/>
			<path class="st0" d="M298.91,55.49c0,0.52,0.42,0.94,0.94,0.94c0.52,0,0.94-0.42,0.94-0.94c0-0.52-0.42-0.94-0.94-0.94
				C299.33,54.55,298.91,54.97,298.91,55.49z"/>
		</g>
	</g>
</g>
</svg>
