<?xml version="1.0" encoding="utf-8"?>
<!-- Generator: Adobe Illustrator 25.2.0, SVG Export Plug-In . SVG Version: 6.00 Build 0)  -->
<svg version="1.1" id="Layer_1" xmlns="http://www.w3.org/2000/svg" xmlns:xlink="http://www.w3.org/1999/xlink" x="0px" y="0px"
	 viewBox="0 0 100 100" style="enable-background:new 0 0 100 100;" xml:space="preserve">
<style type="text/css">
	.st0{fill:#268065;}
</style>
<g>
	<path class="st0" d="M86.84,43.2c-0.3-0.2-0.7-0.5-0.9-0.9c-0.4-0.6-0.3-0.3,0-0.9c0.2-0.6,0.5-1,0.7-1.7c0.3-1.7,0.6-3.6,0.4-5.3
		c-0.2-1.9-0.7-3.7-1.4-5.5c-0.6-1.6-1.1-3.2-2.1-4.7c-1.8-2.6-4.7-4.3-7.6-5.3c-4-1.5-8.2-2.3-12.5-2.7c-4.4-0.4-9-0.3-13.3,0.2
		c-1.9,0.2-3.9,0.8-5.7,1.5v3c-0.6,0.3,0,0-1.1,0.5c-0.9,0.4-2,0.9-2.4,1.1c-2,1.2-3.8,3.1-5.1,5.3c-2.9,4.8-3.1,9.5-2.3,15.6
		c0.4,3.1,1.5,6,3.3,8.8c0.8,1.2,1.6,2.3,2.4,3.4c1,1.4,2.1,2.8,3,4.3c1.6,2.6,3.6,6.5,2,10.7c-1,2.8-3.3,5.3-6.7,7.5
		c-0.4,0.5-0.3,2.8,0.2,3.3l0,0c2.2,0,4.3,0,6.3,0h0.2c0-2.6,0-5.4,0-8.2c0.3-0.4,0.5-0.8,0.7-1.2c1.7-3.3,1.3-6.9-0.3-10.2
		c-0.1-0.3-0.3-0.5-0.4-0.8c0-0.6,0-1.2,0-1.8c0-0.6,0-1.3,0-1.9c5,0,10,0,15,0.1c3,0,6.1,0,9.1,0c0-5.3,0-10.6,0.1-15.9
		c-7.4,0-14.8-0.1-22.2-0.1c-0.6,0-1.3,0-1.9,0c0-5,0-10,0.1-15c0-1.8,0-3.6,0-5.4c2.5-1.4,4.9-2.2,8-2.3c4.2-0.1,8.5,0,12.7,0.5
		c3.8,0.5,7.9,1.3,11.4,3c2.9,1.3,4.8,3.1,5.9,6.1c0.7,1.7,1.3,3.4,1.7,5.2c0.3,1.7,0.1,3.4-0.1,5.1c-0.2,1.3-1.3,2.2-1.2,3.5
		c0.1,1.4,1.3,2.4,2.3,3.2c2,1.7,4.1,3.4,5.4,5.7c0.1,0.2,0.2,0.4,0.3,0.6c0,0,0,0.1,0.1,0.2c-0.3,0.1-0.6,0.1-0.9,0.1
		c-1.3,0.1-2.3-0.7-4.2,1.5c-1.2,1.3-1.5,7.7-1.1,9l0,0c0.1,0.7,0.2,1.5,0.2,2.2c0,2.4-1.8,2.9-3.8,3.2c-1,0.1-2,0.3-3,0.3
		s-1.9-0.3-2.8-0.4c-1-0.1-2.1-0.1-3,0.3c-1.7,0.8-2.2,2.6-2,4.4c0.3,3.3,2.2,6.4,3.4,9.2h3c-1.2-3.1-3.4-6-3.7-9.4
		c-0.2-1.8,0.9-1.9,2.5-1.6c1.9,0.3,3.6,0.3,5.5,0.1c1.8-0.2,3.7-0.5,5.1-1.8c1.1-1.1,1.5-2.5,1.6-4c0-0.8-0.1-1.6-0.2-2.3
		c0-1.1,0.2-6.8,0.2-7c0.1-1,2.7-0.7,3.5-0.8C98.14,53.1,88.94,45,86.84,43.2z M91.04,51.8C91.14,51.7,91.14,51.7,91.04,51.8
		L91.04,51.8z"/>
	<path class="st0" d="M36.14,76c2.9-1.8,4.8-3.9,5.7-6.2c0.9-2.4,0.3-5-1.8-8.5c-0.9-1.4-1.9-2.8-2.9-4.1c-0.8-1.1-1.7-2.3-2.5-3.5
		c-2.1-3.2-3.3-6.5-3.8-9.9c-0.8-6.6-0.6-11.8,2.7-17.2c1.6-2.6,3.6-4.7,6-6.1c0.5-0.3,1.5-1,2.7-1.5c0.9-0.4,1.6-0.6,2.1-0.9
		c0-0.2,0-0.4,0-0.7c-5.3,0-10.6,0-15.9,0c0,7.4,0,14.8-0.1,22.2c0,0.6,0,1.3,0,1.9c-5,0-10,0-15-0.1h-9.1l0,0c0,4.3,0,8.6,0,12.9
		l0,0v3h2.6c6.5,0,13,0,19.6,0.1c0.6,0,1.3,0,1.9,0c0,5,0,10,0,15v9.1l0,0c2.1,0,4.4,0,6.8,0C34.44,79.7,34.54,77,36.14,76z"/>
</g>
</svg>
