<?xml version="1.0" encoding="utf-8"?>
<!-- Generator: Adobe Illustrator 25.2.0, SVG Export Plug-In . SVG Version: 6.00 Build 0)  -->
<svg version="1.1" id="Layer_1" xmlns="http://www.w3.org/2000/svg" xmlns:xlink="http://www.w3.org/1999/xlink" x="0px" y="0px"
	 viewBox="0 0 500 200" style="enable-background:new 0 0 500 200;" xml:space="preserve">
<style type="text/css">
	.st0{fill: #ffffff;}
</style>
<g>
	<path class="st0" d="M170.9,60.4h8.5v64.9h-8.9V76.7l0.4,2.9l-16,36.7h-6.3l-16-35.8l0.4-3.8v48.6h-8.9V60.4h8.5l19.1,42.8
		L170.9,60.4z"/>
	<path class="st0" d="M202.6,123.6c-3-1.6-5.4-4-6.9-7.1s-2.4-6.9-2.4-11.3V100c0-4.6,0.8-8.5,2.3-11.7s3.8-5.7,6.7-7.4
		c2.9-1.7,6.4-2.5,10.5-2.5c3.9,0,7.2,1,9.9,2.9s4.8,4.7,6.3,8.4c1.4,3.7,2.2,8.1,2.2,13.2v3h-31.2v-7.3h22.6
		c-0.3-3.8-1.2-6.7-2.9-8.8s-3.9-3.2-6.8-3.2c-3.4,0-6.1,1.1-8,3.4s-2.8,5.5-2.8,9.6v5.9c0,3.8,1,6.8,3,8.8c2,2.1,4.9,3.1,8.6,3.1
		c1.8,0,3.7-0.4,5.5-1.1c1.8-0.7,3.4-1.8,4.9-3.1l6,6c-2.3,2.2-4.9,3.9-7.7,5.1c-2.9,1.2-5.7,1.8-8.6,1.8
		C209.2,126,205.6,125.2,202.6,123.6z"/>
	<path class="st0" d="M249.6,123.9c-2.4-1.5-4.2-3.6-5.5-6.4c-1.2-2.8-1.9-6.2-1.9-10.2V97.1c0-4,0.6-7.4,1.8-10.2s3-5,5.3-6.4
		c2.3-1.5,5.1-2.2,8.4-2.2c2.7,0,5.2,0.7,7.5,2.1s4.1,3.4,5.5,6l-0.9,9.5c0-2-0.4-3.6-1.1-5c-0.7-1.4-1.8-2.5-3.1-3.2
		s-3-1.1-4.9-1.1c-3,0-5.3,0.9-7,2.8c-1.6,1.9-2.5,4.5-2.5,7.9v10.1c0,3.4,0.8,6,2.5,7.8s4,2.7,7,2.7c1.9,0,3.6-0.4,4.9-1.1
		s2.4-1.8,3.1-3.3s1.1-3.1,1.1-5.1l0.6,9.8c-0.9,2.3-2.4,4.2-4.5,5.8s-4.7,2.3-7.7,2.3C254.9,126.1,252,125.4,249.6,123.9z
		 M269.9,60.4h9.1v64.9h-9.1V60.4z"/>
	<path class="st0" d="M316.7,60.4h9.1v64.9h-9.1V60.4z M322.9,116.7h14.7c4.8,0,8.5-1.2,11.1-3.7c2.6-2.5,4-6,4-10.5V83.3
		c0-4.5-1.3-8-4-10.5s-6.4-3.7-11.1-3.7h-14.7v-8.7h14.4c5.2,0,9.7,0.9,13.4,2.7c3.7,1.8,6.5,4.5,8.4,8c1.9,3.5,2.9,7.7,2.9,12.6
		v18.4c0,4.9-1,9.1-2.9,12.6c-1.9,3.5-4.8,6.1-8.5,7.9c-3.7,1.8-8.2,2.7-13.4,2.7h-14.4L322.9,116.7L322.9,116.7z"/>
	<path class="st0" d="M383.2,123.6c-2.9-1.6-5-3.9-6.5-6.9c-1.5-3-2.2-6.7-2.2-10.9v-7.5c0-4.2,0.8-7.8,2.2-10.8s3.7-5.3,6.5-6.8
		c2.9-1.6,6.3-2.3,10.3-2.3s7.5,0.8,10.3,2.3s5,3.8,6.5,6.8c1.5,3,2.2,6.6,2.2,10.8v7.7c0,4.2-0.8,7.8-2.2,10.8s-3.7,5.3-6.5,6.8
		c-2.9,1.6-6.3,2.4-10.3,2.4S386.1,125.2,383.2,123.6z M400.9,114.3c1.7-2,2.6-4.8,2.6-8.4v-7.7c0-3.6-0.9-6.4-2.6-8.3
		c-1.7-2-4.2-2.9-7.4-2.9c-3.2,0-5.6,1-7.4,2.9c-1.7,2-2.6,4.8-2.6,8.3v7.7c0,3.6,0.9,6.4,2.6,8.4s4.2,3,7.4,3
		C396.7,117.3,399.2,116.3,400.9,114.3z"/>
	<g>
		<path class="st0" d="M456.1,143.7c0.1-4.4-2.1-8.2-5-8.4c-2.6-0.2-4.9,2.7-5.3,6.6l-10.9-0.8c-0.1-0.5-0.4-0.9-0.8-0.9
			c-0.6,0-1.2-0.1-1.9-0.2c-0.7-0.1-1.4-0.3-2-0.4c-0.2-0.1-0.4-0.1-0.6-0.2c0,0,0,0,0,0c0,0,0,0,0,0c-0.1,0-0.2-0.1-0.3-0.1
			c-0.4-0.1-0.9-0.3-1.3-0.5c-1.9-0.7-3.7-1.7-5.5-3.2c-0.1-0.1-0.2-0.1-0.3-0.2c0,0-0.1-0.1-0.2-0.2c-0.2-0.2-0.5-0.4-0.7-0.7
			c-0.4-0.4-0.8-0.9-1.2-1.4c-0.2-0.2-0.4-0.5-0.5-0.7c-0.1-0.1-0.2-0.2-0.2-0.4c-0.1-0.1-0.1-0.2-0.2-0.2c0,0,0-0.1-0.1-0.1
			c-0.3-0.6-0.6-1.1-0.9-1.8c-0.1-0.3-0.3-0.6-0.4-1c-0.1-0.2-0.1-0.3-0.2-0.5c0.2,0.4-0.1-0.2-0.1-0.4c-0.2-0.7-0.5-1.5-0.6-2.3
			c0-0.1,0-0.2,0-0.2c0,0,0,0,0,0v0c0-0.2-0.1-0.4-0.1-0.6c-0.1-0.5-0.1-0.9-0.2-1.4c0-0.4-0.1-0.9-0.1-1.3c0,0,0-0.1,0-0.1
			c0,0,0,0.1,0,0.1c0-0.1,0-0.1,0-0.2c0,0,0,0,0,0c0,0,0,0,0-0.1c0-0.3,0-0.6,0-0.9c0-1.1,0-2.1,0.1-3.2c0,0,0,0,0,0
			c0-0.1,0-0.2,0-0.3c0-0.2,0-0.4,0.1-0.7c0.1-0.5,0.1-1,0.2-1.5c0.1-0.4,0.1-0.8,0.2-1.2c0,0,0,0,0,0c0,0,0,0,0,0
			c0-0.1,0-0.2,0.1-0.2c0.1-0.2,0.1-0.5,0.2-0.7c0.1-0.3,0.2-0.7,0.3-1c0.1-0.2,0.1-0.4,0.2-0.6c0-0.1,0.2-0.6,0.2-0.5
			c0.3-0.6,0.6-1.2,0.9-1.8c0.1-0.3,0.3-0.5,0.5-0.8c0-0.1,0.3-0.4,0.2-0.3c0.1-0.1,0.2-0.3,0.3-0.4c0.8-1,1.6-1.9,2.4-2.6
			c0,0,0,0,0.1-0.1c0,0,0,0,0.1-0.1c0.1-0.1,0.2-0.2,0.3-0.2c0.2-0.2,0.5-0.3,0.7-0.5c0.5-0.3,0.9-0.6,1.4-0.8
			c0.1-0.1,0.2-0.1,0.3-0.2c0.2,3.4,1.1,6.8,2.5,9.5c4.1,8.3,11.3,11.7,17.9,11.7c3.6,0,7.3-0.1,11-0.1c0.9,0,1.3-1,1.3-2
			c0,0,0-0.1,0-0.1c0-1.3,0-2.7,0-4h0.7l0-5.4c0-0.5-0.3-1-0.6-1h-1.3c-0.4,0-0.6,0.4-0.6,1l0,5.4h0.6c0,0.6,0,1.2,0,1.9
			c0,0,0,0-0.1,0c-3.3,0-6.7,0-10,0.1c-5.3,0-10.8-1.6-14.9-7.1c-1.9-2.5-3.4-5.9-3.6-9.8c-0.3-3.8,0.7-7.5,2.3-10.3
			c3.7-6.7,9.7-9.2,15.2-9.3c3.6,0,7.2-0.1,10.8-0.1c0,0,0,0,0.1,0c0,0.6,0,1.1,0,1.7l-0.6,0l0,5.4c0,0.5,0.3,1,0.6,1l1.3,0
			c0.4,0,0.6-0.4,0.6-1l0-5.4l-0.7,0c0-1.3,0-2.7,0-4c0-0.1,0-0.2,0-0.3c-0.1-0.9-0.5-1.6-1.3-1.6c-3.5,0-7,0.1-10.5,0.1
			c-6,0-12.2,2.6-16.6,9.1c-1.9,2.9-3.4,6.5-3.8,10.6c-2.9,1.2-5.7,3.4-7.8,7.4c-3,5.8-3.8,15.9-1.4,23.1c2.2,6.8,6.4,10.1,10.2,12
			c1.7,0.9,3.5,1.4,5.3,1.8c0.9,0.2,1.9,0.4,2.8,0.4c0,0,0.1,0,0.1,0c0.4,0,0.6-0.3,0.8-0.8l10.9,0.8c0.2,3.9,2.3,7.1,5,7.3
			C453.6,151.5,456,148.1,456.1,143.7z M450.8,148.8c-1.7-0.1-3.1-2.1-3.4-4.7l1.3,0.1l0.1-2.1l-1.3-0.1c0.4-2.5,1.9-4.3,3.6-4.2
			c2,0.1,3.5,2.7,3.4,5.8S452.8,149,450.8,148.8z"/>
		<path class="st0" d="M452,143.4c0-1-0.5-1.9-1.2-2c-0.7-0.1-1.2,0.8-1.3,1.8c0,1,0.5,1.9,1.2,2C451.4,145.2,452,144.4,452,143.4z"
			/>
	</g>
	<g>
		<path class="st0" d="M109.9,87.7c-0.3-0.2-0.7-0.5-0.9-0.9c-0.4-0.6-0.3-0.3,0-0.9c0.2-0.6,0.5-1,0.7-1.7c0.3-1.7,0.6-3.6,0.4-5.3
			c-0.2-1.9-0.7-3.7-1.4-5.5c-0.6-1.6-1.1-3.2-2.1-4.7c-1.8-2.6-4.7-4.3-7.6-5.3c-4-1.5-8.2-2.3-12.5-2.7c-4.4-0.4-9-0.3-13.3,0.2
			c-1.9,0.2-3.9,0.8-5.7,1.5l0,3c-0.6,0.3,0,0-1.1,0.5c-0.9,0.4-2,0.9-2.4,1.1c-2,1.2-3.8,3.1-5.1,5.3c-2.9,4.8-3.1,9.5-2.3,15.6
			c0.4,3.1,1.5,6,3.3,8.8c0.8,1.2,1.6,2.3,2.4,3.4c1,1.4,2.1,2.8,3,4.3c1.6,2.6,3.6,6.5,2,10.7c-1,2.8-3.3,5.3-6.7,7.5
			c-0.4,0.5-0.3,2.8,0.2,3.3l0,0c2.2,0,4.3,0,6.3,0h0.2c0-2.6,0-5.4,0-8.2c0.3-0.4,0.5-0.8,0.7-1.2c1.7-3.3,1.3-6.9-0.3-10.2
			c-0.1-0.3-0.3-0.5-0.4-0.8c0-0.6,0-1.2,0-1.8c0-0.6,0-1.3,0-1.9c5,0,10,0,15,0.1c3,0,6.1,0,9.1,0c0-5.3,0-10.6,0.1-15.9
			c-7.4,0-14.8-0.1-22.2-0.1c-0.6,0-1.3,0-1.9,0c0-5,0-10,0.1-15c0-1.8,0-3.6,0-5.4c2.5-1.4,4.9-2.2,8-2.3c4.2-0.1,8.5,0,12.7,0.5
			c3.8,0.5,7.9,1.3,11.4,3c2.9,1.3,4.8,3.1,5.9,6.1c0.7,1.7,1.3,3.4,1.7,5.2c0.3,1.7,0.1,3.4-0.1,5.1c-0.2,1.3-1.3,2.2-1.2,3.5
			c0.1,1.4,1.3,2.4,2.3,3.2c2,1.7,4.1,3.4,5.4,5.7c0.1,0.2,0.2,0.4,0.3,0.6c0,0,0,0.1,0.1,0.2c-0.3,0.1-0.6,0.1-0.9,0.1
			c-1.3,0.1-2.3-0.7-4.2,1.5c-1.2,1.3-1.5,7.7-1.1,9l0,0c0.1,0.7,0.2,1.5,0.2,2.2c0,2.4-1.8,2.9-3.8,3.2c-1,0.1-2,0.3-3,0.3
			c-1,0-1.9-0.3-2.8-0.4c-1-0.1-2.1-0.1-3,0.3c-1.7,0.8-2.2,2.6-2,4.4c0.3,3.3,2.2,6.4,3.4,9.2h3c-1.2-3.1-3.4-6-3.7-9.4
			c-0.2-1.8,0.9-1.9,2.5-1.6c1.9,0.3,3.6,0.3,5.5,0.1c1.8-0.2,3.7-0.5,5.1-1.8c1.1-1.1,1.5-2.5,1.6-4c0-0.8-0.1-1.6-0.2-2.3
			c0-1.1,0.2-6.8,0.2-7c0.1-1,2.7-0.7,3.5-0.8C121.2,97.6,112,89.5,109.9,87.7z M114.1,96.3C114.2,96.2,114.2,96.2,114.1,96.3
			L114.1,96.3z"/>
		<path class="st0" d="M59.2,120.5c2.9-1.8,4.8-3.9,5.7-6.2c0.9-2.4,0.3-5-1.8-8.5c-0.9-1.4-1.9-2.8-2.9-4.1
			c-0.8-1.1-1.7-2.3-2.5-3.5c-2.1-3.2-3.3-6.5-3.8-9.9c-0.8-6.6-0.6-11.8,2.7-17.2c1.6-2.6,3.6-4.7,6-6.1c0.5-0.3,1.5-1,2.7-1.5
			c0.9-0.4,1.6-0.6,2.1-0.9c0-0.2,0-0.4,0-0.7c-5.3,0-10.6,0-15.9,0c0,7.4,0,14.8-0.1,22.2c0,0.6,0,1.3,0,1.9c-5,0-10,0-15-0.1
			l-9.1,0l0,0c0,4.3,0,8.6,0,12.9l0,0v3h2.6c6.5,0,13,0,19.6,0.1c0.6,0,1.3,0,1.9,0c0,5,0,10,0,15l0,9.1l0,0c2.1,0,4.4,0,6.8,0
			C57.5,124.2,57.6,121.5,59.2,120.5z"/>
	</g>
	<g>
		<rect x="292.9" y="79" class="st0" width="9.1" height="46.3"/>
		<g>
			<path class="st0" d="M302.3,54c0-2.6-2.1-4.7-4.7-4.7c-2.6,0-4.7,2.1-4.7,4.7l0,13.6c0,2.6,2.1,4.7,4.7,4.7
				c2.6,0,4.7-2.1,4.7-4.7L302.3,54z M294,60.6l0-6.6c0-2,1.6-3.6,3.6-3.6c2,0,3.6,1.6,3.6,3.6l0,6.6L294,60.6z"/>
			<path class="st0" d="M300,52.8c0-0.7-0.6-1.3-1.3-1.3c-0.7,0-1.3,0.6-1.3,1.3c0,0.7,0.6,1.3,1.3,1.3
				C299.4,54.2,300,53.6,300,52.8z"/>
			<path class="st0" d="M298.9,55.5c0,0.5,0.4,0.9,0.9,0.9s0.9-0.4,0.9-0.9s-0.4-0.9-0.9-0.9C299.3,54.5,298.9,55,298.9,55.5z"/>
		</g>
	</g>
</g>
</svg>
