<?xml version="1.0" encoding="utf-8"?>
<!-- Generator: Adobe Illustrator 25.2.0, SVG Export Plug-In . SVG Version: 6.00 Build 0)  -->
<svg version="1.1" id="Layer_1" xmlns="http://www.w3.org/2000/svg" xmlns:xlink="http://www.w3.org/1999/xlink" x="0px" y="0px"
	 viewBox="0 0 100 100" style="enable-background:new 0 0 100 100;" xml:space="preserve">
<style type="text/css">
	.st0{fill:#2E5871;}
	.st1{fill:#E3B591;}
	.st2{fill:#F0C8A4;}
	.st3{fill:#FA6121;}
	.st4{fill:#905F2D;}
	.st5{fill:#FEFDFE;}
</style>
<g>
	<path class="st0" d="M99,46.8c0,2.6,0,5.2,0,7.9c-0.5,1.2-0.4,2.5-0.6,3.8c-1.8,10.3-6.3,19.2-13.6,26.7c-2.5,2.5-5.2,4.8-8.2,6.6
		c-0.6-2.5-1.2-5-1.8-7.5c-0.8-3.3-2.5-5.6-5.6-7.2c-2.6-1.3-5.3-2.1-8-3.2c-1-0.3-2.1-0.6-3.1-0.9c-0.6-0.2-1.3-0.3-1.9-0.5
		c-0.4-0.1-0.6-0.3-0.6-0.8c0-0.8,0-1.6,0-2.4c0.4,0,0.9,0,1.2-0.4c1.8-1.7,3.6-3.3,5.5-4.9c0.4-0.4,0.5-0.8,0.6-1.3
		c0.1-2.1,0.3-4.2,0.5-6.3c0-0.8,0.3-1.2,1.1-1.6c1.1-0.4,1.8-1.3,2.3-2.3c1.8-3.4,0.6-7.6-2.5-8.5c0.5-3.7,0.7-7.4,0.6-11.1
		c0-1.8-0.9-3.2-2.3-4.2c-1.8-1.3-3.8-1.7-6-1.7c-4.3,0-8.7,0-13,0c-1.7,0-3.4,0.3-4.9,1.1c-2.1,1.1-3.4,2.8-3.4,5.2
		c0,3.6,0.1,7.1,0.6,10.7c-0.9,0.4-1.7,0.9-2.3,1.8c-2,2.9-0.9,7.5,2.3,9.2c0.3,0.1,0.6,0.2,0.7,0.5c0.2,2.5,0.4,5.1,0.6,7.6
		c0,0.4,0.3,0.7,0.6,0.9c1.7,1.5,3.4,3.1,5.1,4.6c0.5,0.4,1,0.7,1.6,0.7c0,0.2,0,0.4,0,0.6c0,2.6,0,2.6-2.5,3.2
		c-1.1,0.3-2.1,0.6-3.2,0.9c-0.5,0.2-1,0.3-1.4,0.5c-3,1-6,2.1-8.6,4c-1.4,1-2.4,2.2-2.7,4c-0.7,3.2-1.5,6.4-2.3,9.6
		c-2.3-1.3-4.3-2.9-6.2-4.6C4.5,75.3-0.9,60.4,1.6,42.8c1.6-11.1,6.7-20.6,15-28C30.6,2.1,47-1.8,64.9,4c19,6.2,30.1,19.8,33.6,39.6
		C98.7,44.7,98.6,45.7,99,46.8z"/>
	<path class="st1" d="M64.1,43.8c3.2,0.9,4.4,5.1,2.5,8.5c-0.5,1-1.3,1.9-2.3,2.3c-0.8,0.3-1.1,0.8-1.1,1.6c-0.1-0.2,0-0.4-0.3-0.5
		c-0.3,0.7-0.5,1.3-0.7,2c-0.6,1.6-1.3,3.1-2.3,4.4c-1.1,1.4-2.5,1.4-3.6-0.1c-0.3-0.4-0.7-0.9-0.9-1.3c-0.4-0.6-0.9-0.9-1.6-1.1
		c-1.3-0.3-2.6-0.7-4-1.1c0-8.5,0-17,0-25.5c1.6-0.1,3.1-0.4,4.6-0.8c3-0.7,5.1,0.6,5.9,3.6c0.7,2.7,0.8,5.3,0.6,8.1
		c0,0.5-0.1,1,0,1.5C62.1,44.7,63,44.1,64.1,43.8z"/>
	<path class="st2" d="M50,33c0,8.5,0,17,0,25.5c-0.8,0.2-1.6,0.6-2.4,0.7c-1.9,0.3-3.2,1.2-4.2,2.9c-0.9,1.5-2.4,1.5-3.5,0.1
		c-1.1-1.4-1.7-3-2.4-4.6c-0.3-0.7-0.4-1.5-1-2.1c-0.1-0.3-0.5-0.4-0.7-0.5c-3.2-1.6-4.3-6.2-2.3-9.2c0.6-0.8,1.4-1.4,2.3-1.8
		c1.1,0.2,2,0.9,3,1.6c0-0.7-0.1-1.2-0.1-1.7c-0.2-2.7,0-5.4,0.7-8.1c0.8-2.8,2.9-4.1,5.7-3.5C46.8,32.5,48.3,33,50,33z"/>
	<path class="st3" d="M76.6,91.7c-2.1,1.6-4.4,2.7-6.8,3.8c-3.8,1.7-7.8,2.9-12,3.5c0.4-1.9,0.7-3.7,1.1-5.6
		c1.2-6.4,2-12.8,2.3-19.3c0-0.1,0-0.2,0-0.3c2.6,1.1,5.4,1.9,8,3.2c3.1,1.5,4.8,3.9,5.6,7.2C75.3,86.7,76,89.2,76.6,91.7z"/>
	<path class="st3" d="M38.8,73.8c0.2,3.7,0.5,7.4,1,11.1c0.6,4.4,1.3,8.8,2.3,13.2c0.1,0.2,0.1,0.5,0.1,0.8c-2.8-0.4-5.4-1.1-8-1.9
		c-3.4-1.1-6.5-2.6-9.6-4.5c-0.3-0.2-0.7-0.3-0.9-0.7c0.8-3.2,1.6-6.4,2.3-9.6c0.4-1.8,1.4-3,2.7-4c2.6-1.9,5.6-3,8.6-4
		C37.8,74.2,38.3,74,38.8,73.8z"/>
	<path class="st4" d="M50,33c-1.6,0.1-3.2-0.5-4.8-0.8c-2.9-0.6-5,0.7-5.7,3.5c-0.7,2.6-0.9,5.3-0.7,8.1c0,0.5,0.1,1.1,0.1,1.7
		c-1-0.7-1.9-1.4-3-1.6c-0.5-3.5-0.6-7.1-0.6-10.7c0-2.5,1.2-4.2,3.4-5.2c1.5-0.8,3.2-1.1,4.9-1.1c4.3,0,8.7,0,13,0
		c2.1,0,4.2,0.4,6,1.7c1.4,1,2.2,2.4,2.3,4.2c0.1,3.7-0.1,7.4-0.6,11.1c-1.1,0.2-2,0.8-2.9,1.5c-0.2-0.6-0.1-1.1,0-1.5
		c0.2-2.7,0.1-5.4-0.6-8.1c-0.8-3-2.9-4.3-5.9-3.6C53.1,32.5,51.5,32.8,50,33z"/>
	<path class="st4" d="M36.6,55.3c0.6,0.6,0.7,1.4,1,2.1c0.7,1.6,1.3,3.2,2.4,4.6c1.1,1.4,2.6,1.5,3.5-0.1c1-1.7,2.3-2.6,4.2-2.9
		c0.8-0.1,1.6-0.4,2.4-0.7c1.3,0.4,2.6,0.8,4,1.1c0.7,0.2,1.2,0.5,1.6,1.1c0.3,0.5,0.6,0.9,0.9,1.3c1,1.5,2.5,1.5,3.6,0.1
		c1-1.3,1.7-2.8,2.3-4.4c0.2-0.6,0.5-1.3,0.7-2c0.3,0.1,0.2,0.3,0.3,0.5c-0.2,2.1-0.3,4.2-0.5,6.3c0,0.5-0.2,1-0.6,1.3
		c-1.8,1.6-3.7,3.3-5.5,4.9c-0.4,0.3-0.8,0.3-1.2,0.4c-1.9,0-3.7,0-5.6,0c-1.8,0-3.7,0-5.5,0c-0.6,0-1.1-0.2-1.6-0.7
		c-1.7-1.6-3.4-3.1-5.1-4.6c-0.3-0.3-0.6-0.5-0.6-0.9C37,60.4,36.8,57.9,36.6,55.3z M47.7,62c1.4,0,2.6,0,3.9,0
		c0.6,0,0.6-0.2,0.3-0.6C51.2,60.2,48.4,60.1,47.7,62z"/>
	<path class="st1" d="M50,69.2c1.9,0,3.7,0,5.6,0c0,0.8,0,1.6,0,2.5c0,0.5,0.2,0.7,0.6,0.8c0.6,0.2,1.3,0.3,1.9,0.5
		c-0.5,0.7-0.4,1.5-0.7,2.3c-1.1,3-4.1,5.1-7.4,5.1C50,76.5,50,72.9,50,69.2z"/>
	<path class="st2" d="M50,69.2c0,3.7,0,7.4,0,11.1c-3.7,0.1-7-2.7-7.7-6.2c-0.1-0.4-0.1-0.8-0.4-1.1c2.5-0.6,2.5-0.6,2.5-3.2
		c0-0.2,0-0.4,0-0.6C46.3,69.2,48.1,69.2,50,69.2z"/>
	<path class="st5" d="M47.7,62c0.7-2,3.5-1.8,4.2-0.6c0.3,0.4,0.3,0.6-0.3,0.6C50.4,62,49.1,62,47.7,62z"/>
</g>
</svg>
