<svg width="30" height="30" viewBox="0 0 30 30" fill="none" xmlns="http://www.w3.org/2000/svg">
<mask id="path-1-inside-1_481:102" fill="white">
<path d="M26.0482 10.6931H12.1028C11.8601 10.6931 11.6634 10.916 11.6634 11.1911C11.6634 11.4661 11.8601 11.6891 12.1028 11.6891H26.0482C26.2909 11.6891 26.4876 11.4661 26.4876 11.1911C26.4876 10.916 26.2909 10.6931 26.0482 10.6931Z"/>
</mask>
<path d="M26.0482 10.6931H12.1028C11.8601 10.6931 11.6634 10.916 11.6634 11.1911C11.6634 11.4661 11.8601 11.6891 12.1028 11.6891H26.0482C26.2909 11.6891 26.4876 11.4661 26.4876 11.1911C26.4876 10.916 26.2909 10.6931 26.0482 10.6931Z" fill="black"/>
<path d="M26.0482 5.69305H12.1028V15.6931H26.0482V5.69305ZM12.1028 5.69305C8.52914 5.69305 6.66339 8.7609 6.66339 11.1911H16.6634C16.6634 13.0712 15.1912 15.6931 12.1028 15.6931V5.69305ZM6.66339 11.1911C6.66339 13.6213 8.52914 16.6891 12.1028 16.6891V6.68911C15.1912 6.68911 16.6634 9.31099 16.6634 11.1911H6.66339ZM12.1028 16.6891H26.0482V6.68911H12.1028V16.6891ZM26.0482 16.6891C29.6219 16.6891 31.4876 13.6213 31.4876 11.1911H21.4876C21.4876 9.31099 22.9598 6.68911 26.0482 6.68911V16.6891ZM31.4876 11.1911C31.4876 8.7609 29.6219 5.69305 26.0482 5.69305V15.6931C22.9598 15.6931 21.4876 13.0712 21.4876 11.1911H31.4876Z" fill="black" mask="url(#path-1-inside-1_481:102)"/>
<mask id="path-3-inside-2_481:102" fill="white">
<path d="M26.0482 14.5002H12.1028C11.8601 14.5002 11.6634 14.7232 11.6634 14.9982C11.6634 15.2733 11.8601 15.4963 12.1028 15.4963H26.0482C26.2909 15.4963 26.4876 15.2733 26.4876 14.9982C26.4876 14.7232 26.2909 14.5002 26.0482 14.5002Z"/>
</mask>
<path d="M26.0482 14.5002H12.1028C11.8601 14.5002 11.6634 14.7232 11.6634 14.9982C11.6634 15.2733 11.8601 15.4963 12.1028 15.4963H26.0482C26.2909 15.4963 26.4876 15.2733 26.4876 14.9982C26.4876 14.7232 26.2909 14.5002 26.0482 14.5002Z" fill="black"/>
<path d="M26.0482 9.50021H12.1028V19.5002H26.0482V9.50021ZM12.1028 9.50021C8.52914 9.50021 6.66339 12.5681 6.66339 14.9982H16.6634C16.6634 16.8783 15.1912 19.5002 12.1028 19.5002V9.50021ZM6.66339 14.9982C6.66339 17.4284 8.52914 20.4963 12.1028 20.4963V10.4963C15.1912 10.4963 16.6634 13.1182 16.6634 14.9982H6.66339ZM12.1028 20.4963H26.0482V10.4963H12.1028V20.4963ZM26.0482 20.4963C29.6219 20.4963 31.4876 17.4284 31.4876 14.9982H21.4876C21.4876 13.1182 22.9598 10.4963 26.0482 10.4963V20.4963ZM31.4876 14.9982C31.4876 12.5681 29.6219 9.50021 26.0482 9.50021V19.5002C22.9598 19.5002 21.4876 16.8783 21.4876 14.9982H31.4876Z" fill="black" mask="url(#path-3-inside-2_481:102)"/>
<mask id="path-5-inside-3_481:102" fill="white">
<path d="M26.0482 18.3073H12.1028C11.8601 18.3073 11.6634 18.5303 11.6634 18.8054C11.6634 19.0804 11.8601 19.3034 12.1028 19.3034H26.0482C26.2909 19.3034 26.4876 19.0804 26.4876 18.8054C26.4876 18.5303 26.2909 18.3073 26.0482 18.3073Z"/>
</mask>
<path d="M26.0482 18.3073H12.1028C11.8601 18.3073 11.6634 18.5303 11.6634 18.8054C11.6634 19.0804 11.8601 19.3034 12.1028 19.3034H26.0482C26.2909 19.3034 26.4876 19.0804 26.4876 18.8054C26.4876 18.5303 26.2909 18.3073 26.0482 18.3073Z" fill="black"/>
<path d="M26.0482 13.3073H12.1028V23.3073H26.0482V13.3073ZM12.1028 13.3073C8.52914 13.3073 6.66339 16.3752 6.66339 18.8054H16.6634C16.6634 20.6855 15.1912 23.3073 12.1028 23.3073V13.3073ZM6.66339 18.8054C6.66339 21.2356 8.52914 24.3034 12.1028 24.3034V14.3034C15.1912 14.3034 16.6634 16.9253 16.6634 18.8054H6.66339ZM12.1028 24.3034H26.0482V14.3034H12.1028V24.3034ZM26.0482 24.3034C29.6219 24.3034 31.4876 21.2356 31.4876 18.8054H21.4876C21.4876 16.9253 22.9598 14.3034 26.0482 14.3034V24.3034ZM31.4876 18.8054C31.4876 16.3752 29.6219 13.3073 26.0482 13.3073V23.3073C22.9598 23.3073 21.4876 20.6855 21.4876 18.8054H31.4876Z" fill="black" mask="url(#path-5-inside-3_481:102)"/>
<mask id="path-7-inside-4_481:102" fill="white">
<path d="M27.444 6.33752H10.707C9.29762 6.33752 8.151 7.63691 8.151 9.23419V21.1615C8.151 22.7587 9.29756 24.0581 10.707 24.0581H22.4381C22.5635 24.0581 22.6801 24.1221 22.7579 24.2337L26.5463 29.669C26.6956 29.8833 26.9134 30 27.1415 30C27.2263 30 27.3126 29.9839 27.3972 29.9505C27.7093 29.8277 27.911 29.5064 27.911 29.1319V24.0087C29.096 23.7578 30 22.5704 30 21.1615V9.23413C30 7.63691 28.8535 6.33752 27.444 6.33752ZM29.1211 21.1615C29.1211 22.1958 28.3786 23.0481 27.4658 23.0613C27.2254 23.0648 27.032 23.2867 27.032 23.5593V28.7591L23.4476 23.6163C23.2022 23.264 22.8342 23.062 22.4381 23.062H10.707C9.78225 23.062 9.02991 22.2094 9.02991 21.1614V9.23413C9.02991 8.18614 9.78219 7.33352 10.707 7.33352H27.444C28.3688 7.33352 29.1211 8.18614 29.1211 9.23413V21.1615Z"/>
</mask>
<path d="M27.444 6.33752H10.707C9.29762 6.33752 8.151 7.63691 8.151 9.23419V21.1615C8.151 22.7587 9.29756 24.0581 10.707 24.0581H22.4381C22.5635 24.0581 22.6801 24.1221 22.7579 24.2337L26.5463 29.669C26.6956 29.8833 26.9134 30 27.1415 30C27.2263 30 27.3126 29.9839 27.3972 29.9505C27.7093 29.8277 27.911 29.5064 27.911 29.1319V24.0087C29.096 23.7578 30 22.5704 30 21.1615V9.23413C30 7.63691 28.8535 6.33752 27.444 6.33752ZM29.1211 21.1615C29.1211 22.1958 28.3786 23.0481 27.4658 23.0613C27.2254 23.0648 27.032 23.2867 27.032 23.5593V28.7591L23.4476 23.6163C23.2022 23.264 22.8342 23.062 22.4381 23.062H10.707C9.78225 23.062 9.02991 22.2094 9.02991 21.1614V9.23413C9.02991 8.18614 9.78219 7.33352 10.707 7.33352H27.444C28.3688 7.33352 29.1211 8.18614 29.1211 9.23413V21.1615Z" fill="black"/>
<path d="M22.7579 24.2337L26.8599 21.3747L26.8597 21.3744L22.7579 24.2337ZM26.5463 29.669L30.6483 26.8102L30.6482 26.81L26.5463 29.669ZM27.3972 29.9505L25.566 25.2979L25.5644 25.2986L27.3972 29.9505ZM27.911 24.0087L26.8754 19.1171L22.911 19.9563V24.0087H27.911ZM27.4658 23.0613L27.3938 18.0618L27.3927 18.0618L27.4658 23.0613ZM27.032 28.7591L22.93 31.618L32.032 44.6772V28.7591H27.032ZM23.4476 23.6163L19.3452 26.4747L19.3456 26.4753L23.4476 23.6163ZM27.444 1.33752H10.707V11.3375H27.444V1.33752ZM10.707 1.33752C5.96668 1.33752 3.151 5.4817 3.151 9.23419H13.151C13.151 9.62711 13.0104 10.0862 12.6496 10.4951C12.2812 10.9126 11.6059 11.3375 10.707 11.3375V1.33752ZM3.151 9.23419V21.1615H13.151V9.23419H3.151ZM3.151 21.1615C3.151 24.9137 5.96648 29.0581 10.707 29.0581V19.0581C11.6059 19.0581 12.2812 19.4831 12.6496 19.9006C13.0104 20.3095 13.151 20.7685 13.151 21.1615H3.151ZM10.707 29.0581H22.4381V19.0581H10.707V29.0581ZM22.4381 29.0581C20.7738 29.0581 19.4212 28.1906 18.6561 27.093L26.8597 21.3744C25.9389 20.0536 24.3532 19.0581 22.4381 19.0581V29.0581ZM18.6559 27.0927L22.4443 32.5281L30.6482 26.81L26.8599 21.3747L18.6559 27.0927ZM22.4442 32.5279C23.4308 33.9436 25.1146 35 27.1415 35V25C28.7123 25 29.9603 25.823 30.6483 26.8102L22.4442 32.5279ZM27.1415 35C27.8667 35 28.5739 34.861 29.23 34.6025L25.5644 25.2986C26.0512 25.1068 26.5859 25 27.1415 25V35ZM29.2283 34.6031C31.7255 33.6203 32.911 31.2509 32.911 29.1319H22.911C22.911 27.7618 23.6932 26.035 25.566 25.2979L29.2283 34.6031ZM32.911 29.1319V24.0087H22.911V29.1319H32.911ZM28.9465 28.9002C32.7926 28.086 35 24.5556 35 21.1615H25C25 20.7987 25.1158 20.4022 25.3842 20.0403C25.6488 19.6837 26.1374 19.2733 26.8754 19.1171L28.9465 28.9002ZM35 21.1615V9.23413H25V21.1615H35ZM35 9.23413C35 5.4817 32.1844 1.33752 27.444 1.33752V11.3375C26.5452 11.3375 25.8699 10.9126 25.5015 10.4951C25.1407 10.0862 25 9.62705 25 9.23413H35ZM24.1211 21.1615C24.1211 20.0556 25.0163 18.096 27.3938 18.0618L27.5379 28.0607C31.7408 28.0002 34.1211 24.3361 34.1211 21.1615H24.1211ZM27.3927 18.0618C23.8629 18.1135 22.032 21.1464 22.032 23.5593H32.032C32.032 25.427 30.5878 28.0161 27.539 28.0607L27.3927 18.0618ZM22.032 23.5593V28.7591H32.032V23.5593H22.032ZM31.134 25.9001L27.5496 20.7573L19.3456 26.4753L22.93 31.618L31.134 25.9001ZM27.55 20.7579C26.4616 19.1958 24.6241 18.062 22.4381 18.062V28.062C21.0442 28.062 19.9427 27.3322 19.3452 26.4747L27.55 20.7579ZM22.4381 18.062H10.707V28.062H22.4381V18.062ZM10.707 18.062C13.1133 18.062 14.0299 20.0542 14.0299 21.1614H4.02991C4.02991 24.3645 6.45123 28.062 10.707 28.062V18.062ZM14.0299 21.1614V9.23413H4.02991V21.1614H14.0299ZM14.0299 9.23413C14.0299 10.3412 13.1133 12.3335 10.707 12.3335V2.33352C6.45107 2.33352 4.02991 6.03113 4.02991 9.23413H14.0299ZM10.707 12.3335H27.444V2.33352H10.707V12.3335ZM27.444 12.3335C25.0378 12.3335 24.1211 10.3413 24.1211 9.23413H34.1211C34.1211 6.031 31.6998 2.33352 27.444 2.33352V12.3335ZM24.1211 9.23413V21.1615H34.1211V9.23413H24.1211Z" fill="black" mask="url(#path-7-inside-4_481:102)"/>
<path d="M2.60855 19.9076L2.55935 20.0326L2.60855 19.9076Z" fill="black" stroke="black" stroke-width="5"/>
</svg>
