<svg width="31" height="41" viewBox="0 0 31 41" fill="none" xmlns="http://www.w3.org/2000/svg">
<path d="M23.0208 25.3406C22.5723 25.3406 22.2083 24.9584 22.2083 24.4875C22.2083 21.2206 20.9972 18.1505 18.798 15.8402C18.4806 15.507 18.4806 14.9667 18.798 14.6334C19.1154 14.3002 19.6299 14.3002 19.9475 14.6334C22.4532 17.2655 23.8333 20.7657 23.8333 24.4875C23.8333 24.9584 23.4693 25.3406 23.0208 25.3406Z" fill="black"/>
<path d="M0.812505 25.3406C0.364001 25.3406 0 24.9584 0 24.4875C0 20.7657 1.38023 17.2655 3.88697 14.6345C4.20435 14.3012 4.71911 14.3012 5.0365 14.6345C5.35388 14.9677 5.35388 15.5082 5.0365 15.8415C2.83623 18.1505 1.62501 21.2206 1.62501 24.4875C1.62501 24.9584 1.26101 25.3406 0.812505 25.3406Z" fill="black"/>
<path d="M11.9166 40.4125C9.6763 40.4125 7.85413 38.4993 7.85413 36.1469C7.85413 35.676 8.21812 35.2938 8.66663 35.2938C9.11513 35.2938 9.47913 35.676 9.47913 36.1469C9.47913 37.5587 10.5721 38.7063 11.9166 38.7063C13.2609 38.7063 14.3541 37.5587 14.3541 36.1469C14.3541 35.676 14.7181 35.2938 15.1666 35.2938C15.6151 35.2938 15.9791 35.676 15.9791 36.1469C15.9791 38.4993 14.157 40.4125 11.9166 40.4125Z" fill="black"/>
<path d="M20.8541 37H2.9791C1.93352 37 1.08313 36.1071 1.08313 35.0095C1.08313 34.4269 1.32474 33.8754 1.74626 33.4965C3.39388 32.0348 4.33313 29.9101 4.33313 27.659V24.4875C4.33313 20.0969 7.73488 16.5251 11.9166 16.5251C16.0981 16.5251 19.4999 20.0969 19.4999 24.4875V27.659C19.4999 29.9101 20.4391 32.0348 22.076 33.4886C22.5083 33.8754 22.7499 34.4269 22.7499 35.0095C22.7499 36.1071 21.8995 37 20.8541 37ZM11.9166 18.2313C8.6307 18.2313 5.95813 21.0375 5.95813 24.4875V27.659C5.95813 30.4127 4.80881 33.0131 2.80573 34.791C2.76784 34.8252 2.70813 34.8958 2.70813 35.0095C2.70813 35.164 2.83171 35.2938 2.9791 35.2938H20.8541C21.0013 35.2938 21.1249 35.164 21.1249 35.0095C21.1249 34.8958 21.0654 34.8252 21.0295 34.7933C19.0242 33.0131 17.8749 30.4127 17.8749 27.659V24.4875C17.8749 21.0375 15.2023 18.2313 11.9166 18.2313Z" fill="black"/>
<path d="M11.9166 18.2313C11.4681 18.2313 11.1041 17.8491 11.1041 17.3782V13.9657C11.1041 13.4947 11.4681 13.1125 11.9166 13.1125C12.3651 13.1125 12.7291 13.4947 12.7291 13.9657V17.3782C12.7291 17.8491 12.3651 18.2313 11.9166 18.2313Z" fill="black"/>
<path d="M30.6262 10.499C30.6262 14.9173 27.0445 18.499 22.6262 18.499C18.2079 18.499 14.6262 14.9173 14.6262 10.499C14.6262 6.08075 18.2079 2.49902 22.6262 2.49902C27.0445 2.49902 30.6262 6.08075 30.6262 10.499Z" fill="white"/>
<circle cx="22.6262" cy="10.499" r="7" fill="#F45B5B"/>
<path d="M23.1965 14H22.2883V7.97949L20.467 8.64844V7.82812L23.0549 6.85645H23.1965V14Z" fill="white"/>
</svg>
