<?xml version="1.0" encoding="utf-8"?>
<!-- Generator: Adobe Illustrator 25.2.0, SVG Export Plug-In . SVG Version: 6.00 Build 0)  -->
<svg version="1.1" id="Layer_1" xmlns="http://www.w3.org/2000/svg" xmlns:xlink="http://www.w3.org/1999/xlink" x="0px" y="0px"
	 viewBox="0 0 100 100" style="enable-background:new 0 0 100 100;" xml:space="preserve">
<style type="text/css">
	.st0{fill:#FFFFFF;}
</style>
<g>
	<path class="st0" d="M45.69,98c-3.17-0.76-6.47-1.18-9.5-2.33C19.61,89.36,9.89,77.31,8.45,59.65
		c-1.37-16.72,5.82-29.7,19.96-38.75c0.75-0.48,2.04-0.92,2.65-0.58c0.59,0.33,0.82,1.65,0.88,2.55c0.12,2.03-0.09,4.09,0.07,6.12
		c0.21,2.51-0.74,4.32-2.54,6.02c-6.4,6.06-9.55,13.57-9.35,22.4c0.36,15.1,12.76,27.88,27.77,28.68
		c15.57,0.84,29.14-10.08,31.28-25.22c1.4-9.92-1.53-18.48-8.65-25.49c-2.06-2.03-3.19-4.09-2.92-7.01c0.18-1.96,0-3.96,0.04-5.93
		c0.04-2.41,1.13-3.05,3.16-1.82c11.25,6.8,18.2,16.67,20.11,29.67c3.35,22.76-11.65,43.19-34.33,47.19
		c-0.91,0.16-1.81,0.34-2.71,0.52C51.13,98,48.41,98,45.69,98z"/>
	<path class="st0" d="M51.26,2.98c3.49,1.46,4.6,4.11,4.53,7.8c-0.17,9.2-0.03,18.4-0.07,27.61c-0.02,4.74-4.59,7.61-8.65,5.49
		c-2.1-1.1-3.19-2.91-3.2-5.25c-0.03-9.88-0.02-19.76-0.01-29.65c0-3.08,1.94-4.74,4.42-6C49.28,2.98,50.27,2.98,51.26,2.98z"/>
</g>
</svg>
