<?xml version="1.0" encoding="utf-8"?>
<!-- Generator: Adobe Illustrator 25.2.0, SVG Export Plug-In . SVG Version: 6.00 Build 0)  -->
<svg version="1.1" id="OBJECTS" xmlns="http://www.w3.org/2000/svg" xmlns:xlink="http://www.w3.org/1999/xlink" x="0px" y="0px"
	 viewBox="0 0 750 500" style="enable-background:new 0 0 750 500;" xml:space="preserve">
<style type="text/css">
	.st0{fill:#D6F5FF;}
	.st1{fill:#65BFCE;}
	.st2{fill:#91D3E2;}
	.st3{fill:#0055AA;}
	.st4{fill:#1A78C6;}
	.st5{fill:#B56167;}
	.st6{fill:#F0EDF2;}
	.st7{fill:#39657D;}
	.st8{fill:#F4B3BD;}
	.st9{fill:#FFFFFF;}
	.st10{opacity:0.5;fill:#F7BFC5;}
	.st11{opacity:0.5;fill:#0055AA;}
	.st12{fill:#DD4C38;}
	.st13{fill:#DF9296;}
	.st14{fill:#CD4438;}
	.st15{fill:#F7BFC5;}
	.st16{fill:#482320;}
	.st17{fill:#E4DFE8;}
	.st18{fill:#B1A9B9;}
	.st19{fill:#75DECB;}
	.st20{fill:#FFB0C9;}
	.st21{fill:#091143;}
</style>
<g>
	<g>
		<g>
			<path class="st0" d="M699.83,463.2c4.6-8.76,15.79-34.57,22.08-87.64c8.05-67.96-28.62-112.68-37.56-136.82
				c-8.94-24.14,19.67-75.12-21.46-125.19C621.76,63.47,552.9,64.36,514.45,84.04s-87.64,40.24-126.98,2.68
				c-39.35-37.56-66.87-55.47-130.19-63.23C190.96,15.36,85.49,57.56,92.97,146.96c7.37,88.18-54.82,76.53-72.14,160.64
				C0.3,407.25,52.14,454.74,57.78,463.2H699.83z"/>
			<g>
				<rect x="79.2" y="295.2" class="st1" width="501.05" height="171.53"/>
				<g>
					<g>
						<polygon class="st2" points="589.13,466.73 578.91,466.73 578.91,295.2 80.53,295.2 80.53,466.73 70.31,466.73 70.31,284.97 
							589.13,284.97 						"/>
					</g>
					<g>
						<rect x="75.42" y="372.25" class="st2" width="508.6" height="10.22"/>
					</g>
					<g>
						<g>
							<rect x="232.57" y="290.09" class="st2" width="10.22" height="173.11"/>
						</g>
						<g>
							<rect x="416.65" y="290.09" class="st2" width="10.22" height="173.11"/>
						</g>
					</g>
				</g>
			</g>
			<g>
				<g>
					<path class="st3" d="M109.51,466.18c0,0-51.13-111.2-31.95-146.99c19.17-35.79,99.7-26.84,117.59,6.39
						c17.89,33.23,44.74,140.6,44.74,140.6H109.51z"/>
					<path class="st4" d="M195.15,325.58c-2.63-4.88-6.61-9.23-11.54-12.99c-14.9-6.02-44.99-14.61-63.71,4.1
						c-20.73,20.73,22.17,112.83,43.87,149.49h76.11C239.89,466.18,213.04,358.82,195.15,325.58z"/>
					<g>
						<path class="st4" d="M651.46,466.18c0,0,51.13-111.2,31.95-146.99c-19.17-35.79-99.7-26.84-117.59,6.39
							c-17.89,33.23-44.74,140.6-44.74,140.6H651.46z"/>
						<path class="st3" d="M584.44,307.94c-8.23,4.66-14.83,10.61-18.62,17.64c-17.89,33.23-44.74,140.6-44.74,140.6h84.29
							c17.62-37.97,51.83-117.88,39.66-141.63C636.34,307.59,608.41,305.89,584.44,307.94z"/>
					</g>
					<g>
						<g>
							<path class="st5" d="M393.21,400.98c0,0,10.02,2.18,15.25,2.18c5.23,0,20.2-7.93,23.13-5.01c2.92,2.92-11.36,6.75-8.31,9.8
								c3.05,3.05,28.32,4.14,25.92,6.54c-2.4,2.4-16.56,1.31-16.56,1.31s17.65,1.74,17.65,4.14c0,2.4-17.43,0.87-17.43,0.87
								s15.39,2.2,13.29,4.3c-2.1,2.1-14.56,0-14.56,0s11.02,1.64,8.24,4.41c-0.87,0.87-18.08,0.22-25.71-3.27
								c-7.62-3.49-10.96-7.41-12.34-7.41s-15.98-2.61-15.98-2.61L393.21,400.98z"/>
							<path class="st6" d="M296.2,276.83c0,0,12.07,80.67,28.97,91.94c16.9,11.27,70.82,26.56,70.82,26.56s3.22,19.31-9.66,29.78
								c0,0-61.16-12.07-82.89-27.36c-21.73-15.29-47.48-107.83-44.26-117.49C262.4,270.59,296.2,276.83,296.2,276.83z"/>
						</g>
						<g>
							<g>
								<path class="st7" d="M310.48,261.43c-0.45,0-0.72-0.06-0.76-0.07l0.5-2.34c0.07,0.01,1.58,0.26,3.3-1.43
									c3.51-3.47,8.33-15.44,1.3-56.63l2.36-0.4c6.91,40.43,2.67,54.33-2.11,58.87C313.26,261.14,311.46,261.43,310.48,261.43z"/>
							</g>
							<g>
								<path class="st8" d="M340.09,209.26c0.89-9.58,0.88-19.84,0.03-28.65c-1.78-18.65-21.6-23.02-21.6-23.02
									s-34.29-15.61-48.7,13.74c-14.41,29.35-1.3,49.34-2.35,56.01c-1.04,6.67-8.21,25.2-8.21,25.2l30.82,16.15
									c0,0,2.73-12.18,3.58-17.6c0.85-5.42,7.01-6.59,7.01-6.59c11.28,4.33,24.17,7.27,32.92-8.59c1.81-3.27,3.26-7.62,4.37-12.6
									c1.68-0.1,5.17-0.47,6.41-1.71C345.67,220.3,341.81,212.55,340.09,209.26z"/>
								<path class="st9" d="M334.61,228.16l-9.77-2.77c0,0,0.37,9.22,3.41,9.22C331.29,234.61,334.61,228.16,334.61,228.16z"/>
								<circle class="st7" cx="332.86" cy="203.66" r="3.13"/>
								<path class="st7" d="M324.84,196.77c0,0,6.6-1.27,13.41,0c0,0,1.31-5.28-3.96-5.28
									C329.02,191.49,324.84,196.77,324.84,196.77z"/>
								<path class="st3" d="M342.38,151.01c6.57-1.13,12.96,2.65,14.88,9.03c1.31,4.35,2.14,9.33,1.4,14.07
									c-1.95,12.51-15.36,15.46-26.11,13.07c-8.77-1.95-16.14-8.3-16.14-8.3s0.24,12.51-6.27,17.26
									c-6.51,4.75-4.05,10.58-6.97,10.12c-2.92-0.46,1.61-12.25-5.88-14.29c-7.4-2.02-9.31,11.65-4.37,15.97l-1.68,5.38
									c0,0-7.37,10.73-15.97,11.1c-8.6,0.36-12.94-3.77-17.97-20.78c-5.03-17.02-6.83-36.59,2.47-49.66
									c9.3-13.07,20.79-7.86,21.12-9.95c0.33-2.08,12.3-13.16,29.38-4.4C320.78,145.04,330.4,153.08,342.38,151.01z"/>
								<path class="st10" d="M289.26,227.41c-3.41,4.11,4.39,23.68,4.39,23.68c0.85-5.42,7.01-6.59,7.01-6.59
									S286.42,233.58,289.26,227.41z"/>
								<path class="st11" d="M358.47,175.05c-24.14,9.34-52.03-6.17-56.53-11.24c-0.94,7.64-1.1,14.82-10.55,24.78
									c-15.35,15.52-29.47,7.3-37.54-0.52c0.72,5.26,1.92,10.53,3.41,15.57c5.03,17.02,9.37,21.15,17.97,20.78
									c8.6-0.36,15.97-11.1,15.97-11.1l1.68-5.38c-4.94-4.32-3.03-17.99,4.37-15.97c7.49,2.04,2.97,13.84,5.88,14.29
									c2.92,0.46,0.46-5.38,6.97-10.12c6.51-4.75,6.27-17.26,6.27-17.26s7.37,6.36,16.14,8.3
									C343.02,189.51,356.01,186.76,358.47,175.05z"/>
							</g>
							<g>
								<g>
									<path class="st7" d="M365.88,385.02c-2.85,0-5.82-0.3-8.92-0.93c-41.2-8.45-47.54-111.49-48.12-122.96
										c-12.69-4.5-14.12-54.52-14.24-60.35l2.39-0.05c0.33,15.65,3.34,56.64,13.2,58.29l0.96,0.16l0.04,0.97
										c0.05,1.13,5.36,113.21,46.25,121.6c29.83,6.12,46.93-20.22,62.01-43.46c5.67-8.73,11.02-16.98,16.55-22.51
										c19.86-19.86,32.27-20.15,32.79-20.16l0.01,2.39c-0.11,0-12.07,0.41-31.11,19.46c-5.35,5.35-10.64,13.5-16.23,22.12
										C408.17,360.05,391.97,385.02,365.88,385.02z"/>
								</g>
								<g>
									<path class="st9" d="M298.68,200.75c0,1.59-1.29,2.89-2.89,2.89c-1.59,0-2.89-1.29-2.89-2.89c0-1.59,1.29-2.89,2.89-2.89
										C297.38,197.87,298.68,199.16,298.68,200.75z"/>
								</g>
							</g>
						</g>
						<g>
							<path class="st9" d="M253.65,249.76c0,0,29.36,7.29,50.28,37.07c17.69,25.18,18.04,179.16,18.04,179.16l-129.4,0.67
								c0,0,12.38-35.48,17.67-69.16c5.76-36.65,6.69-93.2,16.1-115.68C240.69,247.55,253.65,249.76,253.65,249.76z"/>
							<path class="st6" d="M273.47,442.73c-12.95,1.18-26.49-10.59-27.08-1.18c-0.32,5.07-3.02,15.44-3.89,24.84l79.47-0.41
								c0,0-1.79-150.47-19.48-175.65c-7.21-10.26-27.5-19.47-34.96-23.86c-18.14,3.92-22.45,3.48-29.97,17.33
								c0,0-6.47,11.18,16.48,46.5s50.03,56.51,55.92,67.1c5.89,10.59,4.12,28.25-7.65,31.2c-11.77,2.94-47.68-36.49-45.32-25.31
								C259.35,414.47,286.42,441.55,273.47,442.73z"/>
							<path class="st6" d="M253.65,249.76c0,0,15.19,9.56,24.84,28.07c9.66,18.51,5.63,20.12,5.63,20.12l19.31,5.63l-16.09,9.66
								l33.17,96.24c0,0-2.59-85.78-9.84-109.11c-7.24-23.34-48.28-59.55-48.28-59.55L253.65,249.76z"/>
						</g>
					</g>
					<g>
						<g>
							<path class="st12" d="M381.81,429.75c0,0-2.53-0.37,2.31,7.74c4.84,8.12,10.66,11.77,12.41,10.9
								c1.75-0.88,5.21-6.06,2.1-12.45C395.51,429.54,381.81,429.75,381.81,429.75z"/>
							<path class="st13" d="M399.54,444.62c0,0-7.34,3.58-8.54,4.62c-1.2,1.04-3.69,5.89-10.94,9.96
								c-6.32,3.55-11.45,7.51-13.18,5.5c-1.73-2.01,5.01-5.95,6.95-7.62c1.94-1.67,2.48-4.68,2.48-4.68s-4.23-0.33-9.6,1.15
								c-5.37,1.47-11.38,10.38-13.59,9.49c-3.37-1.36,6.03-11.65,6.03-11.65s-9.6,9.67-11.1,7.94c-1.5-1.74,8.23-11.97,8.23-11.97
								s5.26-5.08,10.67-7.18c5.41-2.1,11.76-2.45,18.72-4.43c6.96-1.98,15.9-11.26,15.9-11.26s13.67,8.59,10.92,12.47
								C411.18,438.83,399.54,444.62,399.54,444.62z"/>
							<path class="st14" d="M488.94,272.15c0,0-20.72,6.69-29.29,38.75c-8.56,32.06-13.54,63.96-20.92,73.83
								c-7.38,9.87-56.93,45.02-56.93,45.02s7.25,2.29,12.44,8.33c5.19,6.04,2.28,10.31,2.28,10.31s58.54-23.01,71.61-48.26
								c13.06-25.25,22.51-97.57,23.56-111.57C492.74,274.55,488.94,272.15,488.94,272.15z"/>
							<path class="st12" d="M468.13,400.12c9.75-18.85,17.49-63.92,21.22-91.39c-9.27,0.08-17.66,1.74-17.66,1.74
								s-0.73,57.72-8.98,75.38c-6.95,14.89-53.55,44.09-67.96,52.86c4.46,5.69,1.77,9.67,1.77,9.67S455.07,425.38,468.13,400.12z"
								/>
							<path class="st15" d="M506.94,264.22c0,0,6.49-3.14,8.54-5.19c2.05-2.05,1.12-27.4,1.12-27.4h32.24c0,0-2.87,24.73,0,27.6
								c2.87,2.87,6,2.61,6,2.61s6.3,18.49-15.29,26.38c-21.59,7.89-36.62-5.68-36.62-14.33S506.94,264.22,506.94,264.22z"/>
							<path class="st10" d="M548.77,232.36c0.05-0.46,0.08-0.73,0.08-0.73H516.6c0,0,0.59,16.19-0.21,23.73
								C526.41,253.93,544.01,249.04,548.77,232.36z"/>
							<path class="st12" d="M506.94,264.22c0,0-8.53,18.97,17.43,20.92c25.97,1.95,30.47-23.29,30.47-23.29s25.07,2.26,34.78,23.69
								c9.71,21.43-2.95,181.2-2.95,181.2H447.7c0,0,20.44-52.33,20.43-84.05c-0.01-31.72,2.19-82.98,9.52-102.03
								C480.29,273.78,506.94,264.22,506.94,264.22z"/>
							<path class="st12" d="M564.65,312.65c0,0,0,36.88,0,59.08c0,22.2-27.48,27.17-25.3,34.48c2.18,7.31,16.59,11.86,13.52,21.34
								c-3.07,9.48-36.48,9.76-36.48,28.63c0,3.46,1.03,7.03,2.86,10.56h67.42c0,0,8.81-111.14,6.1-160.46
								C583.51,303.5,573.82,304.93,564.65,312.65z"/>
							<path class="st9" d="M508.74,263.38c0,0-3.76-2.2-6.9,2.82c-3.14,5.02-5.33,21.01,16.94,23.52
								c22.27,2.51,32.62-8.78,34.82-12.86c2.2-4.08,5.02-11.29,4.39-14.11c-0.63-2.82-5.72-1.5-5.72-1.5s1.5,22.47-26.41,22.78
								C497.94,284.35,508.74,263.38,508.74,263.38z"/>
							<path class="st13" d="M520.2,417.45c0,0-14.15,1.67-22.93,0.58c-8.78-1.09-10.53-1.75-21.73,1.89
								c-11.2,3.64-31.53,16.44-27.19,18.35c4.34,1.91,17.55-6.97,17.55-6.97s-15.27,10.68-13.69,12.71
								c1.58,2.02,17.24-8.15,17.24-8.15s-11.69,11.35-8.09,11.8c3.6,0.45,13.22-8.88,13.22-8.88s-8.71,9.44-5.34,9.85
								c3.38,0.42,11.05-8,11.05-8s11.48-0.41,15.28-3.37c3.8-2.96,6.42-4.2,9.12-3.86c2.7,0.33,20.2,1.55,20.2,1.55L520.2,417.45z"
								/>
							<path class="st12" d="M573.49,268.11c0,0,19.81,7.22,30.61,41.03c10.96,34.31,16.95,106.13,5.11,119.03
								c-11.84,12.9-94.25,13.09-94.25,13.09s-3.88-14.67-4.34-25.5c0,0,67.9-9.71,71.51-13.64c3.61-3.93-19.43-85.11-20.26-104.41
								C561.05,278.41,573.49,268.11,573.49,268.11z"/>
							<path class="st12" d="M584.71,275.92c0.15,0.75,0.33,1.52,0.55,2.33c0,0,16.73,79.06,19.15,107.6
								c2.42,28.54-0.63,37.01-28.05,41.69c-19.68,3.36-48.91,3.09-63.85,2.67c1.18,6.19,2.46,11.05,2.46,11.05
								s82.41-0.19,94.25-13.09c11.84-12.9,5.86-84.72-5.11-119.03C598.69,292.21,591.02,281.94,584.71,275.92z"/>
							<g>
								<path class="st12" d="M510.62,416.37c-0.29,0-0.54-0.21-0.59-0.5c-0.05-0.33,0.17-0.63,0.49-0.69
									c0.58-0.1,57.92-9.71,70.68-13.11c9.54-2.54,16.71,2.1,19.97,4.88c-1.01-2.05-3.08-5.02-7.16-7.23
									c-1.75-0.95-2.51-1.7-2.46-2.45c0.02-0.26,0.15-0.73,0.86-0.99c2.17-0.81,9.09,0.55,11.81,3.27c0.23,0.23,0.23,0.61,0,0.85
									c-0.23,0.23-0.61,0.23-0.85,0c-2.61-2.6-9.44-3.62-10.59-2.99c0.12,0.17,0.51,0.58,1.79,1.27
									c7.35,3.97,8.6,10.16,8.65,10.42c0.05,0.27-0.09,0.54-0.33,0.65c-0.25,0.12-0.54,0.05-0.71-0.16
									c-0.08-0.1-8.27-9.67-20.67-6.37c-12.82,3.41-70.21,13.04-70.79,13.14C510.68,416.37,510.65,416.37,510.62,416.37z"/>
							</g>
							<g>
								<path class="st12" d="M567.57,329.87c-0.26,0-0.5-0.17-0.57-0.43c-10.64-35.96-3.62-46.95-3.32-47.41
									c0.19-0.27,0.56-0.34,0.83-0.16c0.27,0.18,0.35,0.55,0.16,0.83l0,0c-0.07,0.11-6.97,11.13,3.47,46.4
									c0.09,0.32-0.09,0.65-0.4,0.74C567.69,329.86,567.63,329.87,567.57,329.87z"/>
							</g>
						</g>
						<g>
							<path class="st15" d="M491.92,173.21c0,0-10.34,34.46,1.55,62.68c7.03,16.68,20.36,14.01,32.72,10.61
								c13.6-3.74,29.63-15.99,37.16-36.97c7.53-20.98,8.16-44.18-15.6-54.12C523.99,145.48,497.62,157.98,491.92,173.21z"/>
							<path class="st16" d="M499.81,209.84c0.05,1.64-1.24,3.01-2.87,3.06c-1.64,0.05-3.01-1.24-3.06-2.87
								c-0.05-1.64,1.24-3.01,2.87-3.06C498.39,206.92,499.76,208.21,499.81,209.84z"/>
							<path class="st16" d="M489.05,203.65c0,0,6.21-1.4,12.69-0.4c0,0,1.08-5.04-3.9-4.88
								C492.86,198.53,489.05,203.65,489.05,203.65z"/>
							<path class="st16" d="M517.44,210.53c0.05,1.64,1.42,2.93,3.06,2.87c1.64-0.05,2.93-1.42,2.87-3.06
								c-0.05-1.64-1.42-2.93-3.06-2.87C518.67,207.52,517.39,208.89,517.44,210.53z"/>
							<path class="st16" d="M527.79,203.68c0,0-6.28-1.01-12.69,0.4c0,0-1.39-4.96,3.59-5.12S527.79,203.68,527.79,203.68z"/>
							<path class="st5" d="M501.2,222.5c0,0,5.05,1.53,9.95,0c0,0-2.14,2.31-6.02,2.31C501.25,224.81,501.2,222.5,501.2,222.5z"/>
							<path class="st9" d="M502.22,229.48l14.21-0.7c0,0-5.46,9.01-10.26,6.75C501.37,233.28,502.22,229.48,502.22,229.48z"/>
							<path class="st16" d="M536.07,178.31c0,0-19.13,11.33-40.91,0.68c0,0-6.64,3.37-6.64,11.64c0,6.47-12.33-9.57-8.42-24.55
								c3.91-14.98,42.66-24.62,56.41-22.64c13.75,1.98,15.49,9.59,17.9,13.69c0,0,10.88,1.06,14.03,14.05
								c2.87,11.84,3.42,34.98-9.08,52.25c-1.71,2.36-5.47,1.54-5.9-1.35c-0.23-1.57-0.33-7.18,0.64-6.99
								c5.14,1,12.28-11.35,7.85-16.26c-6.25-6.94-11.38,1.72-11.38,7.31c0,5.79-5.18-5-5.59-10.83
								C544.56,189.49,537.32,188.77,536.07,178.31z"/>
						</g>
					</g>
					<g>
						<g>
							<g>
								<path class="st17" d="M486.2,279.4h-5.8v34.83h5.8c6.41,0,11.61-7.8,11.61-17.41C497.81,287.19,492.62,279.4,486.2,279.4z"
									/>
								<ellipse class="st18" cx="480.4" cy="296.81" rx="11.61" ry="17.41"/>
							</g>
							<g>
								<path class="st17" d="M478.01,285.34h-7.65v22.94h7.65c4.22,0,7.65-5.14,7.65-11.47
									C485.65,290.48,482.23,285.34,478.01,285.34z"/>
								<ellipse class="st18" cx="470.36" cy="296.81" rx="7.65" ry="11.47"/>
							</g>
						</g>
						<path class="st5" d="M419.22,315.08c0,0,12.08-1.79,17.37-6.26c5.28-4.47,12.6-17.07,19.1-19.5c6.5-2.44,23.16-9.35,23.57-6.1
							s-13.82,9.75-13.82,9.75s17.88-5.69,17.07-1.63c-0.81,4.06-16.66,8.13-16.66,8.13s18.29,0.41,14.63,3.25
							c-3.66,2.84-14.22,2.03-14.22,2.03s13.41,3.25,10.16,4.88c-3.25,1.63-10.97,0.41-10.97,0.41s-10.97,12.6-23.57,12.19
							l-16.66,8.94L419.22,315.08z"/>
						<path class="st9" d="M239.55,275.38c-3,5.66-2.86,12.48-0.06,18.24c9.75,20.04,54.61,73.66,80.85,75.95
							C343.02,371.56,431.39,339,431.39,339s2.4-22.54-9.66-25.75l-95.76,19.31c0,0-43.89-55.17-53.03-64.31
							C265.54,260.85,246.6,262.09,239.55,275.38z"/>
						<path class="st6" d="M419.22,332.27c-8.11,4.36-91.53,21.93-98.7,29.1c-3.92,3.92-2.62,6.57-0.63,8.16
							c0.15,0.02,0.3,0.04,0.45,0.05C343.02,371.56,431.39,339,431.39,339s1.53-14.42-4.03-21.83
							C426.78,321.43,424.96,329.18,419.22,332.27z"/>
					</g>
					<g>
						<g>
							<path class="st18" d="M142.6,393.2h-4.23v-9.95c0-2.68-2.18-4.87-4.87-4.87h-26.3c-2.68,0-4.87,2.18-4.87,4.87v9.95h-4.23
								v-9.95c0-5.01,4.08-9.1,9.09-9.1h26.3c5.01,0,9.09,4.08,9.09,9.1V393.2z"/>
						</g>
						<rect x="61.3" y="390.82" class="st9" width="91.58" height="66.8"/>
						
							<rect x="152.88" y="390.82" transform="matrix(-1 -1.224647e-16 1.224647e-16 -1 332.6739 848.4455)" class="st18" width="26.91" height="66.8"/>
						<circle class="st19" cx="107.09" cy="424.22" r="22.18"/>
						<g>
							<rect x="100.23" y="409.26" class="st9" width="14.25" height="29.93"/>
							
								<rect x="100.23" y="409.26" transform="matrix(-1.836970e-16 1 -1 -1.836970e-16 531.5748 316.8706)" class="st9" width="14.25" height="29.93"/>
						</g>
					</g>
					<g>
						<path class="st18" d="M215.06,457.62H186.7v-86.48c0-7.15,5.8-12.95,12.95-12.95h2.46c7.15,0,12.95,5.8,12.95,12.95V457.62z"
							/>
						<path class="st17" d="M220.24,457.62h-28.36v-86.48c0-7.15,5.8-12.95,12.95-12.95h2.46c7.15,0,12.95,5.8,12.95,12.95V457.62z"
							/>
						<rect x="200.88" y="366.44" class="st9" width="10.97" height="91.19"/>
						<g>
							<g>
								<rect x="202.92" y="368.27" class="st7" width="0.6" height="89.35"/>
							</g>
							<g>
								<g>
									<rect x="204.67" y="370.23" class="st7" width="4.56" height="0.6"/>
								</g>
								<g>
									<rect x="204.67" y="371.86" class="st7" width="2.75" height="0.6"/>
								</g>
								<g>
									<rect x="204.67" y="373.5" class="st7" width="2.75" height="0.6"/>
								</g>
								<g>
									<rect x="204.67" y="375.13" class="st7" width="2.75" height="0.6"/>
								</g>
								<g>
									<rect x="204.67" y="376.77" class="st7" width="2.75" height="0.6"/>
								</g>
							</g>
							<g>
								<g>
									<rect x="204.67" y="378.45" class="st7" width="4.56" height="0.6"/>
								</g>
								<g>
									<rect x="204.67" y="380.08" class="st7" width="2.75" height="0.6"/>
								</g>
								<g>
									<rect x="204.67" y="381.72" class="st7" width="2.75" height="0.6"/>
								</g>
								<g>
									<rect x="204.67" y="383.35" class="st7" width="2.75" height="0.6"/>
								</g>
								<g>
									<rect x="204.67" y="384.98" class="st7" width="2.75" height="0.6"/>
								</g>
							</g>
							<g>
								<g>
									<rect x="204.67" y="386.66" class="st7" width="4.56" height="0.6"/>
								</g>
								<g>
									<rect x="204.67" y="388.3" class="st7" width="2.75" height="0.6"/>
								</g>
								<g>
									<rect x="204.67" y="389.93" class="st7" width="2.75" height="0.6"/>
								</g>
								<g>
									<rect x="204.67" y="391.57" class="st7" width="2.75" height="0.6"/>
								</g>
								<g>
									<rect x="204.67" y="393.2" class="st7" width="2.75" height="0.6"/>
								</g>
							</g>
							<g>
								<g>
									<rect x="204.67" y="394.88" class="st7" width="4.56" height="0.6"/>
								</g>
								<g>
									<rect x="204.67" y="396.52" class="st7" width="2.75" height="0.6"/>
								</g>
								<g>
									<rect x="204.67" y="398.15" class="st7" width="2.75" height="0.6"/>
								</g>
								<g>
									<rect x="204.67" y="399.79" class="st7" width="2.75" height="0.6"/>
								</g>
								<g>
									<rect x="204.67" y="401.42" class="st7" width="2.75" height="0.6"/>
								</g>
							</g>
							<g>
								<g>
									<rect x="204.67" y="403.1" class="st7" width="4.56" height="0.6"/>
								</g>
								<g>
									<rect x="204.67" y="404.73" class="st7" width="2.75" height="0.6"/>
								</g>
								<g>
									<rect x="204.67" y="406.37" class="st7" width="2.75" height="0.6"/>
								</g>
								<g>
									<rect x="204.67" y="408" class="st7" width="2.75" height="0.6"/>
								</g>
								<g>
									<rect x="204.67" y="409.64" class="st7" width="2.75" height="0.6"/>
								</g>
							</g>
							<g>
								<g>
									<rect x="204.67" y="411.32" class="st7" width="4.56" height="0.6"/>
								</g>
								<g>
									<rect x="204.67" y="412.95" class="st7" width="2.75" height="0.6"/>
								</g>
								<g>
									<rect x="204.67" y="414.59" class="st7" width="2.75" height="0.6"/>
								</g>
								<g>
									<rect x="204.67" y="416.22" class="st7" width="2.75" height="0.6"/>
								</g>
								<g>
									<rect x="204.67" y="417.86" class="st7" width="2.75" height="0.6"/>
								</g>
							</g>
							<g>
								<g>
									<rect x="204.67" y="419.54" class="st7" width="4.56" height="0.6"/>
								</g>
								<g>
									<rect x="204.67" y="421.17" class="st7" width="2.75" height="0.6"/>
								</g>
								<g>
									<rect x="204.67" y="422.81" class="st7" width="2.75" height="0.6"/>
								</g>
								<g>
									<rect x="204.67" y="424.44" class="st7" width="2.75" height="0.6"/>
								</g>
								<g>
									<rect x="204.67" y="426.07" class="st7" width="2.75" height="0.6"/>
								</g>
							</g>
							<g>
								<g>
									<rect x="204.67" y="427.75" class="st7" width="4.56" height="0.6"/>
								</g>
								<g>
									<rect x="204.67" y="429.39" class="st7" width="2.75" height="0.6"/>
								</g>
								<g>
									<rect x="204.67" y="431.02" class="st7" width="2.75" height="0.6"/>
								</g>
								<g>
									<rect x="204.67" y="432.66" class="st7" width="2.75" height="0.6"/>
								</g>
								<g>
									<rect x="204.67" y="434.29" class="st7" width="2.75" height="0.6"/>
								</g>
							</g>
							<g>
								<g>
									<rect x="204.67" y="435.97" class="st7" width="4.56" height="0.6"/>
								</g>
								<g>
									<rect x="204.67" y="437.61" class="st7" width="2.75" height="0.6"/>
								</g>
								<g>
									<rect x="204.67" y="439.24" class="st7" width="2.75" height="0.6"/>
								</g>
								<g>
									<rect x="204.67" y="440.88" class="st7" width="2.75" height="0.6"/>
								</g>
								<g>
									<rect x="204.67" y="442.51" class="st7" width="2.75" height="0.6"/>
								</g>
							</g>
							<g>
								<g>
									<rect x="204.67" y="444.19" class="st7" width="4.56" height="0.6"/>
								</g>
								<g>
									<rect x="204.67" y="445.83" class="st7" width="2.75" height="0.6"/>
								</g>
								<g>
									<rect x="204.67" y="447.46" class="st7" width="2.75" height="0.6"/>
								</g>
								<g>
									<rect x="204.67" y="449.09" class="st7" width="2.75" height="0.6"/>
								</g>
								<g>
									<rect x="204.67" y="450.73" class="st7" width="2.75" height="0.6"/>
								</g>
							</g>
						</g>
						<g>
							<rect x="186.7" y="446.42" class="st3" width="80.14" height="11.2"/>
							<rect x="186.7" y="446.42" class="st4" width="64.18" height="11.2"/>
						</g>
					</g>
				</g>
				<path class="st16" d="M712.81,457.62H36.2c-4.99,0-9.03,4.04-9.03,9.03c0,4.99,4.04,9.03,9.03,9.03h676.61
					c4.99,0,9.03-4.04,9.03-9.03C721.84,461.67,717.8,457.62,712.81,457.62z"/>
			</g>
			<g>
				<rect x="119.13" y="128.31" class="st20" width="94.42" height="129.14"/>
				<rect x="124.7" y="135.94" class="st9" width="83.27" height="113.89"/>
				<path class="st12" d="M180.21,130.84c-2-0.3-3.27-2.32-2.66-4.25c0.67-2.13-0.92-4.29-3.15-4.29h-8.07h-8.07
					c-2.23,0-3.82,2.17-3.15,4.29c0.61,1.93-0.65,3.95-2.66,4.25l-6.24,0.94v6.46h20.12h20.12v-6.46L180.21,130.84z"/>
				<g>
					<rect x="134.16" y="149.14" class="st19" width="19.65" height="19.65"/>
					<polygon class="st9" points="135.85,155.23 138.44,155.23 143.99,161.57 152.8,150.58 143.99,164.03 					"/>
					<g>
						<rect x="157.24" y="151.76" class="st21" width="41.27" height="0.71"/>
					</g>
					<g>
						<polyline class="st21" points="157.24,159.32 157.24,158.61 198.51,158.61 198.51,159.32 						"/>
					</g>
					<g>
						<rect x="157.24" y="165.45" class="st21" width="41.27" height="0.71"/>
					</g>
				</g>
				<g>
					<rect x="134.16" y="173.37" class="st19" width="19.65" height="19.65"/>
					<polygon class="st9" points="135.85,179.46 138.44,179.46 143.99,185.8 152.8,174.81 143.99,188.26 					"/>
					<g>
						<rect x="157.24" y="175.99" class="st21" width="41.27" height="0.72"/>
					</g>
					<g>
						<polyline class="st21" points="198.51,182.84 198.51,183.55 157.24,183.55 157.24,182.84 						"/>
					</g>
					<g>
						<rect x="157.24" y="189.68" class="st21" width="41.27" height="0.71"/>
					</g>
				</g>
				<g>
					<rect x="134.16" y="197.6" class="st19" width="19.65" height="19.65"/>
					<polygon class="st9" points="135.85,203.7 138.44,203.7 143.99,210.04 152.8,199.04 143.99,212.49 					"/>
					<g>
						<rect x="157.24" y="200.22" class="st21" width="41.27" height="0.71"/>
					</g>
					<g>
						<polyline class="st21" points="198.51,207.07 198.51,207.78 157.24,207.78 157.24,207.07 						"/>
					</g>
					<g>
						<rect x="157.24" y="213.91" class="st21" width="41.27" height="0.71"/>
					</g>
				</g>
				<g>
					<rect x="134.16" y="221.83" class="st19" width="19.65" height="19.65"/>
					<polygon class="st9" points="135.85,227.93 138.44,227.93 143.99,234.27 152.8,223.27 143.99,236.72 					"/>
					<g>
						<rect x="157.24" y="224.46" class="st21" width="41.27" height="0.71"/>
					</g>
					<g>
						<polyline class="st21" points="198.51,231.3 198.51,232.02 157.24,232.02 157.24,231.3 						"/>
					</g>
					<g>
						<rect x="157.24" y="238.14" class="st21" width="41.27" height="0.71"/>
					</g>
				</g>
			</g>
			<g>
				<path class="st12" d="M619.02,106.06L619.02,106.06c-5.05-10.3-18.29-13.37-27.36-6.34l-2.01,1.56l-2.01-1.56
					c-9.07-7.03-22.3-3.96-27.36,6.34l0,0c-3.08,6.28-2.27,13.77,2.08,19.25l27.29,23.67l27.29-23.67
					C621.29,119.83,622.1,112.34,619.02,106.06z"/>
				<g>
					<path class="st9" d="M599.28,136.82L599.28,136.82c-0.4,0-0.75-0.27-0.85-0.66l-6.94-27.62l-8.49,23.36
						c-0.13,0.37-0.5,0.6-0.89,0.57c-0.39-0.03-0.71-0.32-0.79-0.7l-3.51-18.27l-3.77,9.27c-0.13,0.33-0.45,0.54-0.81,0.54h-27.39
						c-0.48,0-0.87-0.39-0.87-0.87c0-0.48,0.39-0.87,0.87-0.87h26.81l4.66-11.45c0.14-0.36,0.5-0.58,0.89-0.54
						c0.38,0.04,0.7,0.32,0.77,0.7l3.47,18.05l8.38-23.07c0.13-0.36,0.49-0.59,0.86-0.57c0.38,0.02,0.71,0.29,0.8,0.66l6.79,27.02
						l5.12-20.24c0.1-0.38,0.44-0.66,0.84-0.66c0,0,0.01,0,0.01,0c0.39,0,0.74,0.26,0.84,0.65l2.54,9.45h24.83
						c0.48,0,0.87,0.39,0.87,0.87c0,0.48-0.39,0.87-0.87,0.87h-25.5c-0.39,0-0.74-0.26-0.84-0.65l-1.84-6.86l-5.15,20.36
						C600.03,136.55,599.68,136.82,599.28,136.82z"/>
				</g>
			</g>
			<g>
				
					<ellipse transform="matrix(0.2272 -0.9739 0.9739 0.2272 269.9334 777.2952)" class="st19" cx="624.72" cy="218.57" rx="28.85" ry="28.85"/>
				<g>
					<rect x="615.79" y="199.11" class="st9" width="18.54" height="38.93"/>
					
						<rect x="615.79" y="199.11" transform="matrix(-1.836970e-16 1 -1 -1.836970e-16 843.6269 -406.4856)" class="st9" width="18.54" height="38.93"/>
				</g>
			</g>
			<g>
				
					<ellipse transform="matrix(0.1587 -0.9873 0.9873 0.1587 125.5374 317.1304)" class="st19" cx="248.85" cy="84.9" rx="33.73" ry="33.73"/>
				<g>
					<g>
						<path class="st12" d="M241.36,57.66c-5.18,0-9.39,4.2-9.39,9.39v13.42h18.77V67.05C250.74,61.86,246.54,57.66,241.36,57.66z"
							/>
						<path class="st9" d="M241.36,103.27c-5.18,0-9.39-4.2-9.39-9.39V80.47h18.77v13.42C250.74,99.07,246.54,103.27,241.36,103.27z
							"/>
					</g>
					<g>
						<path class="st12" d="M269.65,77.7c-3.59-3.74-9.53-3.87-13.27-0.28l-9.69,9.29l12.99,13.55l9.69-9.29
							C273.11,87.38,273.24,81.44,269.65,77.7z"/>
						<path class="st9" d="M236.72,109.26c-3.59-3.74-3.46-9.68,0.28-13.27l9.69-9.29l12.99,13.55l-9.69,9.29
							C246.24,113.13,240.3,113,236.72,109.26z"/>
					</g>
				</g>
			</g>
			<circle class="st20" cx="418.05" cy="168.22" r="32.83"/>
			<g>
				<g>
					
						<rect x="427.85" y="141.75" transform="matrix(0.7071 -0.7071 0.7071 0.7071 29.6603 355.7108)" class="st19" width="32.72" height="0.6"/>
				</g>
				
					<rect x="378.88" y="193.79" transform="matrix(0.7071 0.7071 -0.7071 0.7071 253.1261 -218.0055)" class="st9" width="21.68" height="5.52"/>
				
					<rect x="410.25" y="142.11" transform="matrix(0.7071 0.7071 -0.7071 0.7071 243.3108 -241.6979)" class="st18" width="6.31" height="61.49"/>
				
					<rect x="410.19" y="148.67" transform="matrix(0.7071 0.7071 -0.7071 0.7071 241.8699 -245.1831)" class="st9" width="13.4" height="41.39"/>
				
					<rect x="396.22" y="182.4" transform="matrix(0.7071 0.7071 -0.7071 0.7071 247.657 -231.2118)" class="st18" width="13.4" height="1.87"/>
				
					<rect x="389.47" y="183.19" transform="matrix(0.7071 0.7071 -0.7071 0.7071 248.7388 -228.5977)" class="st9" width="21.68" height="5.52"/>
				<g>
					<g>
						<g>
							
								<rect x="427.75" y="152.68" transform="matrix(0.7071 -0.7071 0.7071 0.7071 15.5924 348.1843)" class="st7" width="0.68" height="5.19"/>
						</g>
						<g>
							
								<rect x="425.71" y="154.29" transform="matrix(0.7071 -0.7071 0.7071 0.7071 14.5801 346.9115)" class="st7" width="0.68" height="3.13"/>
						</g>
						<g>
							
								<rect x="424.4" y="155.61" transform="matrix(0.7071 -0.7071 0.7071 0.7071 13.2661 346.3672)" class="st7" width="0.68" height="3.13"/>
						</g>
						<g>
							
								<rect x="423.08" y="156.92" transform="matrix(0.7071 -0.7071 0.7071 0.7071 11.9526 345.8232)" class="st7" width="0.68" height="3.13"/>
						</g>
						<g>
							
								<rect x="421.77" y="158.23" transform="matrix(0.7071 -0.7071 0.7071 0.7071 10.6339 345.2686)" class="st7" width="0.68" height="3.13"/>
						</g>
					</g>
					<g>
						<g>
							
								<rect x="421.15" y="159.28" transform="matrix(0.7071 -0.7071 0.7071 0.7071 8.9871 345.4483)" class="st7" width="0.68" height="5.19"/>
						</g>
						<g>
							
								<rect x="419.1" y="160.9" transform="matrix(0.7071 -0.7071 0.7071 0.7071 7.9794 344.1857)" class="st7" width="0.68" height="3.13"/>
						</g>
						<g>
							
								<rect x="417.79" y="162.21" transform="matrix(0.7071 -0.7071 0.7071 0.7071 6.6608 343.6312)" class="st7" width="0.68" height="3.13"/>
						</g>
						<g>
							
								<rect x="416.48" y="163.52" transform="matrix(0.7071 -0.7071 0.7071 0.7071 5.3473 343.0871)" class="st7" width="0.68" height="3.13"/>
						</g>
						<g>
							
								<rect x="415.16" y="164.84" transform="matrix(0.7071 -0.7071 0.7071 0.7071 4.0333 342.5428)" class="st7" width="0.68" height="3.13"/>
						</g>
					</g>
					<g>
						
							<rect x="414.54" y="165.89" transform="matrix(0.7071 -0.7071 0.7071 0.7071 2.3819 342.7123)" class="st7" width="0.68" height="5.19"/>
					</g>
				</g>
				<g>
					<g>
						<g>
							
								<rect x="412.5" y="167.5" transform="matrix(0.7071 -0.7071 0.7071 0.7071 1.3653 341.4293)" class="st7" width="0.68" height="3.13"/>
						</g>
						<g>
							
								<rect x="411.19" y="168.82" transform="matrix(0.7071 -0.7071 0.7071 0.7071 0.0553 340.8945)" class="st7" width="0.68" height="3.13"/>
						</g>
						<g>
							
								<rect x="409.87" y="170.13" transform="matrix(0.7071 -0.7071 0.7071 0.7071 -1.2538 340.3613)" class="st7" width="0.68" height="3.13"/>
						</g>
						<g>
							
								<rect x="408.56" y="171.44" transform="matrix(0.7071 -0.7071 0.7071 0.7071 -2.572 339.8069)" class="st7" width="0.68" height="3.13"/>
						</g>
					</g>
					<g>
						<g>
							
								<rect x="407.94" y="172.49" transform="matrix(0.7071 -0.7071 0.7071 0.7071 -4.2236 339.9759)" class="st7" width="0.68" height="5.19"/>
						</g>
						<g>
							
								<rect x="405.89" y="174.11" transform="matrix(0.7071 -0.7071 0.7071 0.7071 -5.236 338.7028)" class="st7" width="0.68" height="3.13"/>
						</g>
						<g>
							
								<rect x="404.58" y="175.42" transform="matrix(0.7071 -0.7071 0.7071 0.7071 -6.5457 338.1694)" class="st7" width="0.68" height="3.13"/>
						</g>
						<g>
							
								<rect x="403.27" y="176.74" transform="matrix(0.7071 -0.7071 0.7071 0.7071 -7.8672 337.6049)" class="st7" width="0.68" height="3.13"/>
						</g>
						<g>
							
								<rect x="401.95" y="178.05" transform="matrix(0.7071 -0.7071 0.7071 0.7071 -9.1772 337.0709)" class="st7" width="0.68" height="3.13"/>
						</g>
					</g>
				</g>
			</g>
		</g>
	</g>
</g>
</svg>
