<?xml version="1.0" encoding="utf-8"?>
<!-- Generator: Adobe Illustrator 25.2.0, SVG Export Plug-In . SVG Version: 6.00 Build 0)  -->
<svg version="1.1" xmlns="http://www.w3.org/2000/svg" xmlns:xlink="http://www.w3.org/1999/xlink" x="0px" y="0px"
	 viewBox="0 0 500 400" style="enable-background:new 0 0 500 400;" xml:space="preserve">
<style type="text/css">
	.st0{fill:#D0DBFC;}
	.st1{fill:#84C4E2;}
	.st2{fill:#AEE4F4;}
	.st3{fill:#4E9DC4;}
	.st4{fill:#F7AB61;}
	.st5{fill:#FFC68D;}
	.st6{fill:#FFE2CF;}
	.st7{fill:#9D99E5;}
	.st8{fill:#726AE4;}
	.st9{fill:#FFCDA4;}
	.st10{fill:#736BE5;}
	.st11{fill:#BDBDFF;}
	.st12{fill:#FFFFFF;}
	.st13{fill:#0065AA;}
	.st14{fill:#6F6FD8;}
	.st15{fill:#5DCEC1;}
	.st16{fill:#D5E1ED;}
	.st17{fill:#B8DDFF;}
	.st18{opacity:0.5;}
	.st19{fill:#8FA7D7;}
	.st20{fill:#38A595;}
	.st21{opacity:0.5;fill:#8FA7D7;}
	.st22{fill:#FFCCA9;}
	.st23{opacity:0.1;fill:#8FA7D7;}
	.st24{fill:#AE376D;}
	.st25{fill:#A1B5BF;}
	.st26{fill:#F0BA92;}
	.st27{opacity:0.6;}
	.st28{fill:#D88D64;}
	.st29{fill:#D3976E;}
	.st30{fill:#383F47;}
	.st31{fill:#1A2026;}
	.st32{fill:#BCBCBC;}
	.st33{fill:#444444;}
	.st34{opacity:0.3;}
	.st35{fill:#635B53;}
	.st36{opacity:0.4;}
	.st37{fill:#D3D3D3;}
	.st38{fill:#A8A6A0;}
	.st39{fill:#BABABA;}
	.st40{fill:#AAA9A2;}
	.st41{fill:#2A445D;}
	.st42{fill:#1F384C;}
	.st43{clip-path:url(#SVGID_4_);fill:#FFFFFF;}
	.st44{clip-path:url(#SVGID_6_);fill:#FFFFFF;}
	.st45{fill:#210601;}
	.st46{fill:#302420;}
	.st47{opacity:0.1;}
	.st48{fill:#0E3368;}
</style>
<g id="background">
</g>
<g id="background_2">
	<g id="Layer_22">
	</g>
	<g id="Layer_18">
	</g>
	<g id="Layer_23">
	</g>
	<g id="Layer_20">
	</g>
	<g id="_x2B_">
	</g>
</g>
<g id="phone">
</g>
<g id="chat">
</g>
<g id="accent_1_">
	<g id="Layer_13">
	</g>
	<g id="Layer_26">
	</g>
	<g id="Layer_21">
	</g>
	<g id="Layer_6">
	</g>
	<g>
		<path class="st0" d="M393.2,309.7c0,5.4-79.6,11.3-175,11.3c-95.4,0-173.2-4.9-173.2-10.3S393.2,304.3,393.2,309.7z"/>
		<image style="overflow:visible;" width="273" height="243" xlink:href="C4D05361.png"  transform="matrix(1 0 0 1 170 68)">
		</image>
		<image style="overflow:visible;" width="242" height="216" xlink:href="C4D05362.png"  transform="matrix(1 0 0 1 0 95)">
		</image>
		<g>
			<path class="st1" d="M319.7,116.7c0,0-7.3,3-17.4,9.9c-1.7,1.2-3.8,17-3.8,17s-1.7-13.8-2.6-13.1c-6.5,5.1-13.8,11.8-20.8,20.1
				c-0.8,0.9,7.8,11.7,7,12.6c-0.9,1.1-11.1-7.6-11.9-6.5c-10.3,13.7-37.3,51.2-41.2,71.8l27.5,11.3c32.6,3.2,43.2-7.8,47.2-16.1
				c0.7-1.5-27.4-5.3-27.4-5.3s30.9-2,31.5-3.4c4.8-10.3,9.8-22,13.2-32.4c0.5-1.6-32-0.2-31.6-1.7c0.2-0.7,33.4-4.2,33.6-4.9
				c1.4-4.9,2.3-9.4,2.5-13.1c0.1-1.3-25.4,0.4-25.4,0.4s25.2-5.7,25.6-9.1C327,143,323.9,130.4,319.7,116.7z"/>
		</g>
		<g>
			<path class="st2" d="M275.4,210.8l24-50.9c-0.1-0.6-0.1-1.2-0.2-1.8c-0.2-2.1-0.5-4.1-0.7-6.2c-0.6-5.1-0.9-10.2-1.5-15.3
				c-0.8-6.1-1-6-1-6c0.8-0.4,1.3,3.9,1.6,5.4c0.4,2.4,0.7,4.5,1.1,6.9c0.7,4.8,1.5,9.6,2,14.4c0,0,0,0,0,0l19.1-40.6
				c0,0-9.7,23.9-18.7,44.7c0.1,0,0.1,0,0.2-0.1c0.7-0.3,17-1,24.6-7.3l-0.2,0.8c-7.5,7.4-24.8,8.4-25.4,8.5c-3,7-4.1,9.2-7.2,15.9
				c0.4,0.1,0.9-0.1,1.2-0.1c0.7-0.1,1.4-0.2,2-0.2c2.4-0.3,4.8-0.6,7.2-0.9c5.6-0.7,11.2-1.1,16.7-1.7c1.3-0.1,2.2-0.1,2.2-0.1
				s-5.5,1.2-9.1,1.8c-5.5,0.9-11,1.8-16.4,2.7c-0.8,0.1-1.5,0.2-2.3,0.4c-0.8,0.1-1.6,0.3-2.3,0
				C284.8,197.1,278.1,210.1,275.4,210.8z"/>
		</g>
		<g>
			<path class="st3" d="M307.9,215l-34.7,2l-0.4,1.8C272.8,218.8,299.9,216.6,307.9,215z"/>
		</g>
		<path class="st2" d="M275.1,150.6l18.5,23.2l-2.1,4.4C291.5,178.2,274.8,153.1,275.1,150.6z"/>
		<g>
			<path class="st4" d="M79.1,89.1c0,0,9.1,4.8,21.3,14.7c2.1,1.7-1.4,37.1-1.4,37.1s8-32.3,9.1-31.2c8.1,7.6,17,17.5,25.2,29.4
				c0.5,0.8-6.4,11.2-5.8,12c13.1,19.6,31.6,34.8,34.4,64.1c0,0,1.9,17.9,0,16.7c-2-1.2-51,38.2-51,38.2s-6.6-10.6-14.4-24.3
				c-1-1.8,18.9-11,17.8-12.9c-0.8-1.3-22.5,4.5-23.3,3.2c-7.9-14.3-15.8-30.1-19-40.4c-0.4-1.3,20.7-1.2,20.4-2.6
				c-0.4-1.6-22.8-6.4-22.8-6.4c-2.6-11.2-4.3-24.3-3.7-39c0.1-1.6,28.4,4.2,28.4,4.2s-27.9-13.3-27.6-15.4
				C68.4,122.1,72.1,106.2,79.1,89.1z"/>
		</g>
		<g>
			<path class="st5" d="M79.1,89.1c0,0,9.1,4.8,21.3,14.7c2.1,1.7-1.4,37.1-1.4,37.1s8-32.3,9.1-31.2c8.1,7.6,17,17.5,25.2,29.4
				c0.6,0.8-3.7,7.6-3.2,8.4c13,19.6,28.9,38.5,31.7,67.7c0,0,1.9,17.9,0,16.7c-2-1.2-43.6-28.4-43.6-28.4L79.1,89.1z"/>
		</g>
		<g>
			<path class="st6" d="M79.1,89.1c0,0,29.2,93.4,32.4,102.4c0.8,2.2-40.4-4.3-41.8-4.7c0.1,0.1,41.2,13.4,42.6,7
				c7.7,21.7,9.4,20.3,12.8,21.5L79.1,89.1z"/>
		</g>
		<g>
			<path class="st6" d="M76.3,142.9c0.3,0,23.6,11.2,23.6,11.2l1.1,2.5L76.3,142.9z"/>
		</g>
		<g>
			<polygon class="st6" points="103.9,122 98,144.9 98.2,147.5 			"/>
		</g>
		<g>
			<path class="st7" d="M159,301.2c-6.4,6.1-27.9,3-44.2-3.4c-3.8-1.5-8.5-3.6-13.8-6.5c3.4-0.2,24.7-2.6,19.6-34.3
				c-0.2-1.4-17.4,16.5-20,34.1c-7-3.9-14.1-8.6-24.9-18.8c-2.5-2.4-10.7-11.8-15.4-19.3c3.2-1.6,17.6-9.5,25.6-30.8
				c0.5-1.3-24.6,6.8-26.2,29.8c-4.2-6.9-8-14.7-10.9-23.6c0,0,0.1,0,0.1,0c-0.1-0.2-0.2-0.5-0.2-0.7c0-0.1-0.1-0.3-0.1-0.4
				c0,0.1,0,0.2,0,0.4c-1.8-5.5-3.2-11.4-4.3-17.7c1.4-1.5,6.1-8.3,1.6-29.9c-0.3-1.3-7.4,10-2.9,27c1.1,7.1,2.6,13.7,4.5,19.8
				c-20.1-15.7-29,0.2-29,0.2c11.3,4.5,27.4,1.3,29.2,0.2c3,9.4,6.9,17.7,11.3,25c0,0,1.5,2.4,1.8,2.8c4.8,7.4,10.1,13.7,15.6,19
				c0,0,0,0,0,0.1c0,0,0,0,0.1,0c0.2,0.2,0.4,0.4,0.6,0.6c-24-5.3-39,4.4-39,4.4c17.9,11.5,36.9-0.3,40.1-3.4
				c6,5.6,12.1,10,17.9,13.6c1.2,0.5,2.2,1.2,3.2,1.9c0,0,0,0,0,0c5.8,3.4,11.2,5.8,15.3,7.4c12,4.7,23,6.8,31.3,6.8
				c6.6,0,11.5-1.3,13.8-3.5L159,301.2z"/>
		</g>
		<g>
			<g>
				<path class="st8" d="M99.2,291.1c-17.1-7.3-34.2,3.3-34.2,3.3c16.8,9.7,30.3,1.1,34.2-2.8C99.9,291,99.2,291.2,99.2,291.1z"/>
			</g>
			<g>
				<path class="st8" d="M70.8,200.8c0.5-1.3-19.6,5.6-22.2,26.6c0.1,0,0.2,0.6,0.3,0.9C52.3,226.7,63.4,220.3,70.8,200.8z"/>
			</g>
			<g>
				<path class="st8" d="M60,253.8c-19.9-16.6-33.3-2.4-33.3-2.4c11.5,5.7,29.6,4.7,34,3.6C60.7,255,60,253.9,60,253.8
					C60,253.8,60,253.8,60,253.8z"/>
			</g>
			<g>
				<path class="st8" d="M96.3,239.6c-0.2-1.4-15.6,17.2-19,34.2c0.1,0,0.3,0.2,0.5,0.3C84,273.2,100.9,267.7,96.3,239.6z"/>
			</g>
		</g>
		<g>
			<path class="st4" d="M256.3,250.2c5.2,4.9,22.6,2.2,35.7-3c3.1-1.2,6.9-3,11.1-5.4c-2.7-0.1-20-2-16-27.7
				c0.2-1.1,14.2,13.3,16.4,27.5c5.6-3.2,11.4-7,20.1-15.4c2-1.9,8.6-9.6,12.4-15.7c-2.6-1.2-14.3-7.6-20.9-24.7
				c-0.4-1.1,20,5.3,21.4,24c3.4-5.6,6.4-12,8.7-19.2c0,0-0.1,0-0.1,0c0.1-0.2,0.1-0.4,0.2-0.6c0-0.1,0.1-0.2,0.1-0.4
				c0,0.1,0,0.2,0,0.3c1.4-4.5,2.6-9.2,3.4-14.3c-1.1-1.2-5-6.7-1.5-24.2c0.2-1.1,6.1,8.1,2.5,21.9c-0.8,5.8-2,11.1-3.5,16.1
				c16.2-12.8,23.5,0,23.5,0c-9.1,3.7-22.1,1.2-23.6,0.4c-2.4,7.6-5.5,14.4-9,20.3c0,0-1.2,2-1.4,2.3c-3.8,6-8.1,11.1-12.6,15.5
				c0,0,0,0,0,0c0,0,0,0-0.1,0c-0.2,0.2-0.3,0.3-0.5,0.5c19.4-4.4,31.6,3.4,31.6,3.4c-14.4,9.4-29.9,0-32.5-2.5
				c-4.8,4.5-9.8,8.2-14.4,11.1c-0.9,0.4-1.8,0.9-2.6,1.6c0,0,0,0,0,0c-4.7,2.8-9,4.7-12.4,6.1c-9.7,3.9-18.6,5.6-25.3,5.7
				c-5.3,0-9.3-1-11.2-2.8L256.3,250.2z"/>
		</g>
		<g>
			<g>
				<path class="st9" d="M305,242c0.4-0.2,0.9-0.5,1.4-0.5c0.4,0,0.4-0.4,0.2-0.6c0.2-0.2,0.5-0.3,0.7-0.5c0,0,0.1-0.1,0.1-0.1
					c17.7-2.6,24.9,4,24.9,4c-13.5,8-24.5,1-27.7-2C304.8,242.1,304.9,242.1,305,242z"/>
			</g>
			<g>
				<path class="st9" d="M327.1,168.5c-0.4-1,15.9,4.4,18.2,21.4c-0.1,0-0.1,0.5-0.2,0.7C342.2,189.4,333.2,184.2,327.1,168.5z"/>
			</g>
			<g>
				<path class="st9" d="M336.2,211.3c16-13.6,26.9-2.2,26.9-2.2c-9.3,4.7-23.9,4-27.5,3.1C335.6,212.2,336.2,211.4,336.2,211.3
					C336.2,211.3,336.2,211.3,336.2,211.3z"/>
			</g>
			<g>
				<path class="st9" d="M306.7,200c0.2-1.1,12.7,13.8,15.6,27.5c-0.1,0-0.3,0.1-0.4,0.3C316.8,227.1,303.1,222.8,306.7,200z"/>
			</g>
		</g>
		<g>
			<g>
				<path class="st10" d="M370.1,310.4H267.2c-6.3,0-11.4-5.1-11.4-11.4v-55.5c0-6.3,5.1-11.4,11.4-11.4h102.8
					c6.3,0,11.4,5.1,11.4,11.4v55.5C381.5,305.2,376.4,310.4,370.1,310.4z"/>
			</g>
		</g>
		<g>
			<g>
				<path class="st7" d="M357.9,310.7H255.1c-6.3,0-11.4-5.1-11.4-11.4v-55.5c0-6.3,5.1-11.4,11.4-11.4h102.8
					c6.3,0,11.4,5.1,11.4,11.4v55.5C369.4,305.6,364.3,310.7,357.9,310.7z"/>
			</g>
		</g>
		<g>
			<g>
				<path class="st7" d="M312.8,254.7h-19.3c-12.4,0-22.4-10.1-22.4-22.4c0-12.4,10.1-22.4,22.4-22.4h19.3
					c12.4,0,22.4,10.1,22.4,22.4C335.2,244.6,325.1,254.7,312.8,254.7z M293.4,219.4c-7.1,0-12.9,5.8-12.9,12.9
					c0,7.1,5.8,12.9,12.9,12.9h19.3c7.1,0,12.9-5.8,12.9-12.9c0-7.1-5.8-12.9-12.9-12.9H293.4z"/>
			</g>
		</g>
		<g>
			<g>
				<path class="st11" d="M243.7,247.9L243.7,247.9c0-8.8,7.1-16,16-16h99.9c8.8,0,10.4,6.3,9.9,16l0,0H243.7z"/>
			</g>
		</g>
		<g>
			<g>
				<path class="st12" d="M323.8,271.3h-13.3v-11.2c0-2.2-1.8-4-4-4c-2.2,0-4,1.8-4,4v11.2h-13.3c-2.2,0-4,1.8-4,4v0
					c0,2.2,1.8,4,4,4h13.3v15.5c0,2.2,1.8,4,4,4c2.2,0,4-1.8,4-4v-15.5h13.3c2.2,0,4-1.8,4-4v0C327.8,273.1,326,271.3,323.8,271.3z"
					/>
			</g>
		</g>
		<path class="st13" d="M250.8,310.5H129.4c-11.9,0-21.6-9.7-21.6-21.6V21.6c0-11.9,9.7-21.6,21.6-21.6h121.4
			c11.9,0,21.6,9.7,21.6,21.6V289C272.3,300.9,262.7,310.5,250.8,310.5z"/>
		<g>
			<defs>
				<path id="SVGID_1_" d="M252.6,304.1H128c-7.6,0-13.7-6.1-13.7-13.7V20.7c0-7.6,6.1-13.7,13.7-13.7h124.6
					c7.6,0,13.7,6.1,13.7,13.7v269.6C266.3,297.9,260.2,304.1,252.6,304.1z"/>
			</defs>
			<clipPath id="SVGID_2_">
				<use xlink:href="#SVGID_1_"  style="overflow:visible;"/>
			</clipPath>
			<g style="clip-path:url(#SVGID_2_);">
				<image style="overflow:visible;" width="182" height="299" xlink:href="C4D05363.png"  transform="matrix(1 0 0 1 104 6)">
				</image>
			</g>
		</g>
		<path class="st13" d="M224.1,16.1h-66.9c-4,0-7.2-3.2-7.2-7.2V4.2h81.3v4.7C231.3,12.9,228,16.1,224.1,16.1z"/>
		<path class="st14" d="M361.5,52.7c-2.3-22.1-42.2-28.2-80.5-23.7s-39.7,13.2-38.8,39.3c0.3,8.6,2.7,15.4,6.5,20.7
			c-2.3,8-11.8,9.7-10.5,10.9c6.7,6.5,18.6,0.5,21.5-1.1c18.5,10.8,47.7,9.3,68.8,6.3C356.7,101.2,364,76.9,361.5,52.7z"/>
		<path class="st12" d="M285.1,66.8c0,2.2-1.8,4.1-4.1,4.1c-2.2,0-4.1-1.8-4.1-4.1c0-2.2,1.8-4.1,4.1-4.1
			C283.3,62.7,285.1,64.5,285.1,66.8z"/>
		<path class="st12" d="M305.2,66.8c0,2.2-1.8,4.1-4.1,4.1s-4.1-1.8-4.1-4.1c0-2.2,1.8-4.1,4.1-4.1S305.2,64.5,305.2,66.8z"/>
		<path class="st12" d="M324.5,66.8c0,2.2-1.8,4.1-4.1,4.1c-2.2,0-4.1-1.8-4.1-4.1c0-2.2,1.8-4.1,4.1-4.1
			C322.7,62.7,324.5,64.5,324.5,66.8z"/>
		<path class="st15" d="M177.3,127.2c0.4-0.6,15.9,7.2,33.4-3c17.5-10.2,7.3,97.2,7.3,97.2l-1.4,55.7l-2,26.9H171l-8.9-84.7
			C162.1,219.3,171.2,136.9,177.3,127.2z"/>
		<path class="st12" d="M255.8,143.1c-7.1-6.1-39.8-18.5-39.8-18.5l-5.3,9.5c0,0,1.7,118.3,0.8,142.7l0,27.3h39.9l0.2-61.6
			c11.5-2.9,20.4-7.8,25.3-13.1c5.5-6.1,6.9-9.5,6.9-17.5C283.8,203.7,262.9,149.2,255.8,143.1z"/>
		<path class="st12" d="M173.7,231.3c0.4-0.6,0.6-0.9,0.6-0.9V125.6c0,0-32.7,12.4-39.8,18.5c-7.1,6.1-27.8,62.6-28,70.7
			c-0.8,32,27,72.3,27,72.3s0.9-0.4,2.6-1.6c-0.5,7.4-1.5,18.6-1.5,18.6H178c0,0,0.1-33.1,0-34.6
			C177.9,268.6,175.5,247.9,173.7,231.3z"/>
		<g>
			<g>
				<path class="st16" d="M243.2,202.8l-7.3,4.3c-0.2,0.1-0.4,0.1-0.5,0l-7.7-4.3c-0.2-0.1-0.3-0.3-0.3-0.5v-16.2
					c0-0.3,0.2-0.5,0.5-0.5h15c0.3,0,0.5,0.2,0.5,0.5v16.2C243.5,202.5,243.4,202.7,243.2,202.8z"/>
			</g>
		</g>
		<g>
			<g>
				<path class="st17" d="M243.2,202.8l-7.3,4.3c-0.2,0.1-0.4,0.1-0.5,0l-7.7-4.3c-0.2-0.1-0.3-0.3-0.3-0.5v-12.9
					c0-0.3,0.2-0.5,0.5-0.5h15c0.3,0,0.5,0.2,0.5,0.5v12.9C243.5,202.5,243.4,202.7,243.2,202.8z"/>
			</g>
		</g>
		<g class="st18">
			<g>
				<path class="st19" d="M211.5,277.9v-51.2V115.5c0,0,1.4,2.5,6.4,7.6c6.3,6.4,11.7,16,11.7,16l-11.3-2.2l14.7,14.8l-11.1,65.2
					l-7.8,1.2l5,15.8L211.5,277.9z"/>
			</g>
		</g>
		<g class="st18">
			<path class="st19" d="M169.3,123c-6.3,6.4-11.7,16-11.7,16l11.3-2.2l-14.7,14.8L178,274.5l-2.3-159.2
				C175.7,115.4,174.3,117.9,169.3,123z"/>
		</g>
		<g>
			<g>
				<path class="st12" d="M211.5,271.1L211.5,271.1L209,114.2c0,0,2.6,1.1,7.6,6.2c6.3,6.4,10.5,17.4,10.5,17.4l-11.3-2.2l14.7,14.8
					l-10.6,67.1l-5.4,1.2l4,8L211.5,271.1z"/>
			</g>
		</g>
		<g>
			<g>
				<path class="st12" d="M178,269.4V114.2c0,0-2.6,1.1-7.6,6.2c-6.3,6.4-10.5,17.4-10.5,17.4l11.3-2.2l-14.7,14.8L178,269.4z"/>
			</g>
		</g>
		<path class="st20" d="M195.6,282.1c-9.9,0-17.5-1.5-17.6-1.5l0-0.9c0.2,0,17.4,3.4,33.5,0v0.9
			C206.1,281.7,200.6,282.1,195.6,282.1z"/>
		<g>
			<path class="st20" d="M193.4,141.6c-8.9,0-15.4-3.1-15.5-3.2v-1.1c0.2,0.1,16,7.6,31.4-0.7l0,1.1
				C203.8,140.7,198.4,141.6,193.4,141.6z"/>
		</g>
		<path class="st21" d="M120.9,214.9c0,0,11.8,2.3,17.9,8.4C138.8,223.3,123.5,215.6,120.9,214.9z"/>
		<path class="st22" d="M152.2,267.5l2.5,3c0,0-5,12.2-10.5,18.6l-4.5-6.2C139.7,282.9,146.5,277.6,152.2,267.5z"/>
		<path class="st21" d="M134.8,214.9c0.3,0.5,4.3,4.3,5.6,7.9l-6.2-7.1L134.8,214.9z"/>
		<path class="st21" d="M147.4,173.9c0-0.6-3.6,47-5.2,53.2l11.9,36.5c0,0-6.3,14.3-18.1,21.9c0,0,7.6-1.1,19.5-17.6
			c0,0-6,17-14.4,24.2c0,0,13.2-7.8,17.1-31.6l-12.5-33.4C145.8,227.1,148,184.4,147.4,173.9z"/>
		<polygon class="st21" points="251.6,242.5 245.9,244.1 246.7,249.3 251.6,247.4 		"/>
		<path class="st21" d="M250.2,206.8L250.2,206.8l-4.4-35.8l1.4,36.9c-14.7,5.6-30.5,12.2-30.5,12.2s8.4-2.2,18.7-4.9
			c10.3-2.7,29.5-13.5,29.5-13.5C261,202.9,255.8,204.7,250.2,206.8z"/>
		<path class="st23" d="M270.5,171.9c0,0,9.2,24.9,9.3,41c0,6-3.4,11-5.9,12.8c-24,17.5-53.7,18.1-53.7,18.1s-0.2,4-0.8,4.8
			c0,0,52.5-3.5,62.5-26.2c0,0,2.3-3.6,1.8-9.3C282.8,202.2,276.8,187.2,270.5,171.9z"/>
		<path class="st23" d="M124.4,162.7c0.4-1-15,38.1-14.8,52.1c0.3,29.5,22.1,66.7,26.5,70.7l-2.6,1.6c0,0-28.9-42.9-27-72.3
			C106.8,209,107.5,206.4,124.4,162.7z"/>
		<path class="st24" d="M219.6,248.2c1.7-17.3-3.3-27.9-2.7-28.2c5.6-2.5,19.6-8,30.8-12.4l0.5-25.5l-57.4-2.3l-1.3,84.8l57.2-2.3
			l0.3-18.5C232.9,247.1,219.6,248.2,219.6,248.2z"/>
		<polygon class="st25" points="228.9,181.4 228.9,180.4 213.4,179.5 213.3,180.8 		"/>
		<path class="st25" d="M215.4,182.5c0,0.2-0.1,0.3-0.3,0.3c-0.2,0-0.3-0.1-0.3-0.3s0.1-0.3,0.3-0.3
			C215.2,182.2,215.4,182.3,215.4,182.5z"/>
		<path class="st25" d="M227.7,183c0,0.1-0.1,0.2-0.2,0.2c-0.1,0-0.2-0.1-0.2-0.2c0-0.1,0.1-0.2,0.2-0.2
			C227.6,182.8,227.7,182.9,227.7,183z"/>
		<g>
			<g>
				<path class="st26" d="M218.6,93.8c-1.6,5.9-4.5,10.4-5.8,10.1c0,0,0.9-3.8,2.1-9.8c1.4-7,1.6-11.9,4.4-11.6
					C220.6,82.6,220.2,87.9,218.6,93.8z"/>
			</g>
		</g>
		<g class="st27">
			<g>
				<path class="st28" d="M216.4,91.3c-1.5,5.9-2.3,12.8-3.6,12.5c0,0,1.2-5.4,2.4-11.4c1.4-7,1.2-9.4,4.1-9.1
					C219.3,83.4,218.2,84.1,216.4,91.3z"/>
			</g>
		</g>
		<g>
			<g>
				<path class="st26" d="M168.6,93.8c1.6,5.9,4.3,10.4,5.6,10.1c0,0-1.3-4.9-2.1-10c-1.1-7-1.3-11.7-4.2-11.4
					C166.6,82.6,167,87.9,168.6,93.8z"/>
			</g>
		</g>
		<g class="st27">
			<g>
				<path class="st28" d="M169.9,90.7c1.5,5.9,3,13.5,4.3,13.2c0,0-1.3-6.1-2.5-12.1c-1.4-7-1.1-8.6-4-8.3
					C167.7,83.4,168.1,83.5,169.9,90.7z"/>
			</g>
		</g>
		<g>
			<g>
				<path class="st26" d="M209.3,128c0,0-2.2,5.7-15.8,5.7s-15.5-5.3-15.5-5.3v-17.3H209L209.3,128z"/>
			</g>
		</g>
		<g class="st27">
			<g>
				<path class="st28" d="M209.1,115.5c-2.8,5.9-13.8,10.5-15.6,10.5c-1.8,0-11.1-3.5-15.5-10.4v-9H209L209.1,115.5z"/>
			</g>
		</g>
		<g>
			<g>
				<path class="st22" d="M212.8,103.8c-5.2,17-19.3,17.3-19.3,17.3s-14.9,0-19.4-17.7c-2.9-11.7-10-29.5-1.5-42.7
					c4.8-7.5,39.8-10.5,43.9,0C220.6,71.2,215.9,93.9,212.8,103.8z"/>
			</g>
		</g>
		<g>
			<path class="st12" d="M201.1,103.2c0.6,0.5-1.2,6.6-7.6,6.7c-5.4,0.1-8.1-5.5-7.7-6.4c0.6-1,2.8-0.3,7.4-0.3
				C198,103.2,200.5,102.7,201.1,103.2z"/>
			<path class="st29" d="M193.4,110.2c-3.5,0-6-2.3-7.2-4.4c-0.5-0.8-0.9-1.9-0.6-2.4c0.5-0.8,1.7-0.8,3.8-0.6
				c1,0.1,2.4,0.1,3.9,0.1c1.9,0,3.4-0.1,4.7-0.2c1.9-0.1,2.9-0.2,3.4,0.2l0,0c0.4,0.4,0.1,1.5-0.1,1.9
				C200.9,105.8,199.1,110.2,193.4,110.2C193.5,110.2,193.5,110.2,193.4,110.2z M187.6,103.3c-0.8,0-1.2,0.1-1.4,0.4
				c-0.1,0.1,0.1,1,0.8,2.1c0.6,0.9,2.7,3.7,6.5,3.7c0,0,0.1,0,0.1,0c3.7,0,5.6-2.2,6.4-3.5c0.8-1.3,1-2.4,0.9-2.7
				c-0.3-0.2-1.5-0.1-2.9-0.1c-1.2,0.1-2.8,0.2-4.7,0.2c-1.6,0-2.9-0.1-4-0.1C188.6,103.3,188,103.3,187.6,103.3z"/>
		</g>
		<g>
			<path class="st28" d="M193.5,98c-0.8-0.5-1.9-1.7-1.2-3.7c0.6-1.7,0.7-5,0.7-5.1l0.6,0c0,0.1-0.1,3.4-0.7,5.3
				c-0.5,1.5,0.3,2.5,1,3L193.5,98z"/>
		</g>
		<path class="st22" d="M218.1,224.9l-5.9,0.9c-7.5,0.7-10.2-5.1-16.9-4.3c-6.6,0.9-5.8,3.5-5.8,3.5c-4.4,0.1-3.2,6.2-3.2,6.2
			c-2.1,3.1,0.1,6.6,0.1,6.6c-1.5,2.1,0.5,5.4,0.5,5.4c0.6,3.5,4.8,6.4,9.4,6.9c0.2,0,0.3,0,0.5,0c0.2,0,0.3,0,0.5,0
			c0.2,0,0.3,0,0.5,0c0.2,0,0.5,0,0.7,0c0,0,0,0,0,0l0,0c0,0,0,0,0,0c0.2,0,0.4,0,0.6-0.1c5.5-0.8,20.8-6.9,20.8-6.9
			C220.2,231.2,218.1,224.9,218.1,224.9z"/>
		<path class="st28" d="M189.5,225c0,0,3.8,0.7,5.8,0.9c2.1,0.1,6.8,0.9,7.9,1.2c0,0-6.2-0.5-8-0.6C194,226.3,188.9,225,189.5,225z"
			/>
		<path class="st28" d="M190.7,232.8c0,0-2.8-1.1-3.6-2.2c-0.8-1.1-0.8-2.4-0.9-2.3c-0.2,1.1,0.1,2.9,0.1,2.9L190.7,232.8z"/>
		<path class="st28" d="M190.8,239.4c0,0-2.6-1.2-3.7-2c-1.2-1-1.6-2.5-1.6-2.4c0.1,1.5,0.9,2.7,0.9,2.7L190.8,239.4z"/>
		<path class="st28" d="M191.3,244.8c0,0-2.6-1.2-3.7-2c-1.2-1-1.8-2.6-1.7-2.5c0.1,1.5,1.1,2.9,1.1,2.9L191.3,244.8z"/>
		<path class="st28" d="M190.1,223.4c0,0-0.7,1.5,0.5,1.8l0.2,0.3l-1.3-0.5C189.5,225,189.4,224.1,190.1,223.4z"/>
		<g>
			<g>
				<path class="st30" d="M179.4,182.8c-0.3-17.9-3-31.5-11.6-31.5c-8.7,0-11.3,14-11.6,32.4c0,0,0,0,0,0l0,1c0,3.6,1.9,4.4,4.3,4.8
					c0.9,0.1,1.8,0.2,2.7,0.2c0.2,0.5,0.7,0.9,1.3,0.9c0.8,0,1.5-0.6,1.5-1.5v-1.2c0-0.8-0.6-1.5-1.5-1.5c-0.7,0-1.3,0.5-1.4,1.3
					c-1.9-0.1-4.3-0.5-5.1-1.9c-0.8-1.4-0.3-4.3-0.2-6.3c0.5-15.2,3-26.7,10.1-26.7c7.1,0,9.5,11.4,10,26.6c0.1,1.9,0.4,4.7-0.3,6.1
					c-0.6,1.3-2.4,1.9-4.1,2.1c-0.2-0.7-0.8-1.1-1.6-1.1c-0.8,0.1-1.4,0.8-1.3,1.6l0.1,1.2c0.1,0.8,0.8,1.4,1.6,1.3
					c0.6-0.1,1.1-0.5,1.2-1.1c2.8-0.4,5.9-1.6,5.8-5.2V182.8C179.4,182.9,179.4,182.8,179.4,182.8z"/>
			</g>
		</g>
		<g>
			<g>
				<polygon class="st30" points="168,152 166.5,152 166.5,136.5 168,136.3 				"/>
			</g>
		</g>
		<g>
			<g>
				<path class="st30" d="M232.7,162.7c-0.7-20.1-7.2-30.5-11.3-36.2c-3.9-5.4-4.8-6.1-4.8-6.1c0.7,0.3,16.5,8,17.7,42.3
					L232.7,162.7z"/>
			</g>
		</g>
		<g>
			<g>
				<path class="st31" d="M233.7,163.1c-1.1-20.9-6.1-30.1-10.2-35.8c-3.9-5.4-6.8-6.9-6.8-6.9c0.7,0.3,16.5,8.7,17.8,42.9
					L233.7,163.1z"/>
			</g>
		</g>
		<g>
			<g>
				<path class="st32" d="M240.6,168.9c0,3.8-3.1,6.9-6.9,6.9c-3.8,0-6.9-3.1-6.9-6.9s3.1-6.9,6.9-6.9
					C237.5,162,240.6,165.1,240.6,168.9z"/>
			</g>
			<g>
				<path class="st33" d="M233.7,176c-3.9,0-7.1-3.2-7.1-7.1c0-3.9,3.2-7.1,7.1-7.1c3.9,0,7.1,3.2,7.1,7.1
					C240.8,172.8,237.6,176,233.7,176z M233.7,162.2c-3.7,0-6.7,3-6.7,6.7c0,3.7,3,6.7,6.7,6.7s6.7-3,6.7-6.7
					C240.4,165.2,237.4,162.2,233.7,162.2z"/>
			</g>
		</g>
		<g class="st34">
			<g>
				<path class="st12" d="M237.1,175.2l-1.8-3.7l1.2-3.4l3.8-1.6C240.4,166.5,242.7,171.4,237.1,175.2L237.1,175.2z"/>
			</g>
		</g>
		<g>
			<g>
				<path class="st35" d="M236.8,169.4c0,1.8-1.4,3.3-3.1,3.3c-1.7,0-3.1-1.5-3.1-3.3s1.4-3.3,3.1-3.3
					C235.4,166.1,236.8,167.6,236.8,169.4z"/>
			</g>
		</g>
		<g class="st36">
			<g>
				<path class="st12" d="M232.6,161.7l0.4,4.2l-2.3,2.8l-4.2,0.2C226.5,168.9,226.1,163.4,232.6,161.7L232.6,161.7z"/>
			</g>
		</g>
		<g>
			<g>
				<path class="st37" d="M236.4,168.9c0,1.5-1.2,2.8-2.8,2.8s-2.8-1.2-2.8-2.8s1.2-2.8,2.8-2.8S236.4,167.4,236.4,168.9z"/>
			</g>
			<g>
				<path class="st38" d="M233.7,171.9c-1.6,0-3-1.3-3-3c0-1.6,1.3-3,3-3c1.6,0,3,1.3,3,3C236.6,170.5,235.3,171.9,233.7,171.9z
					 M233.7,166.3c-1.4,0-2.6,1.2-2.6,2.6c0,1.4,1.2,2.6,2.6,2.6s2.6-1.2,2.6-2.6C236.2,167.5,235.1,166.3,233.7,166.3z"/>
			</g>
		</g>
		<g>
			<g>
				<path class="st39" d="M234.8,169.2c0,0.6-0.5,1.1-1.1,1.1c-0.6,0-1.1-0.5-1.1-1.1c0-0.6,0.5-1.1,1.1-1.1
					C234.3,168.1,234.8,168.6,234.8,169.2z"/>
			</g>
		</g>
		<g>
			<g>
				<circle class="st12" cx="233.7" cy="168.9" r="1.1"/>
			</g>
		</g>
		<g>
			<g>
				<path class="st40" d="M164.3,189.9H164c-0.2,0-0.4-0.2-0.4-0.4v-1.9c0-0.2,0.2-0.4,0.4-0.4h0.3c0.2,0,0.4,0.2,0.4,0.4v1.9
					C164.8,189.7,164.6,189.9,164.3,189.9z"/>
			</g>
		</g>
		<g>
			<g>
				<path class="st40" d="M172.4,189.9l-0.3,0c-0.2,0-0.5-0.2-0.5-0.4l-0.2-1.9c0-0.2,0.2-0.5,0.4-0.5l0.3,0c0.2,0,0.5,0.2,0.5,0.4
					l0.2,1.9C172.9,189.6,172.7,189.8,172.4,189.9z"/>
			</g>
		</g>
		<g class="st36">
			<g>
				<path class="st12" d="M233,166.5c-1.6,0.5-1.7,2-1.7,2l1.6,0.1l0.4-0.4L233,166.5z"/>
			</g>
		</g>
		<g class="st36">
			<g>
				<path class="st12" d="M235.2,170.9c1.3-1.1,0.9-2.5,0.9-2.5l-1.5,0.4l-0.2,0.5L235.2,170.9z"/>
			</g>
		</g>
		<g>
			<g>
				<path class="st41" d="M171,92c0,0-3-11.8-3.5-17.8c-0.5-6-1.2-14,5.6-16.7c6.7-2.7,4.7,5.6,4.7,5.6s-5.3,3.6-6.4,12.6
					C170.7,80.5,171,92,171,92z"/>
			</g>
		</g>
		<g>
			<g>
				<path class="st41" d="M215.8,91.8c0,0,3.3-11.7,3.8-17.6c0.5-6,1.2-14-5.6-16.7c-6.7-2.7-4.7,5.6-4.7,5.6s5.3,3.6,6.4,12.6
					C216.3,80.5,215.8,91.8,215.8,91.8z"/>
			</g>
		</g>
		<g>
			<g>
				<path class="st41" d="M210.3,65.9c0,0-8.2,1.3-13.7-1.3c-1.6-0.8-9.4,2.6-13,1.9c-6.9-1.3-9.9-6.9-10-7.5
					c-0.4-1.7-2-4.1,2.9-7.8c6.9-5.2,15.4-3.9,16.8-5.4c1.4-1.5,2.8-2.4,5.6-2.2c7.4,0.7,7.7,5.1,11.9,5.7c5.4,0.8,7.2,3,7.6,7.5
					C218.9,65.6,210.3,65.9,210.3,65.9z"/>
			</g>
		</g>
		<g>
			<g>
				<path class="st42" d="M194.6,44.7c0,0-2.3,1.7-8.1,8.4c-5.8,6.8-8.8,6.3-9.5,6.5c0,0,5,0.9,10.3-6.1
					C192.6,46.5,194.6,44.7,194.6,44.7z"/>
			</g>
		</g>
		<g>
			<g>
				<path class="st42" d="M203.7,65.7c0,0,9.7,1.1,13.9-3.9c0,0-0.9,5.3-13.7,4L203.7,65.7z"/>
			</g>
		</g>
		<g>
			<g>
				<path class="st42" d="M187.8,65.8c-11.4,1.6-14.7-7.8-14.6-7.6c1.8,5.7,6.3,7.9,9.7,8.8c1,0.3,2,0.4,3,0.5c0.5,0,0.9,0,0.9,0
					s0,0,0,0c10.9,0.1,19.7-11.4,19.7-11.4C199,62.4,192.5,64.9,187.8,65.8z"/>
			</g>
		</g>
		<g>
			<g>
				<defs>
					<path id="SVGID_3_" d="M188.5,83.4c1.9,1.9,1.9,4.9,0,6.8c-1.9,1.9-4.9,1.9-6.8,0c-1.9-1.9-1.9-4.9,0-6.8
						C183.6,81.6,186.6,81.6,188.5,83.4z"/>
				</defs>
				<clipPath id="SVGID_4_">
					<use xlink:href="#SVGID_3_"  style="overflow:visible;"/>
				</clipPath>
				<polygon class="st43" points="186.6,92.2 190.4,88.4 190.4,92.2 				"/>
				<polygon class="st43" points="181.8,92.2 179.8,90.2 179.8,85.3 183.6,81.6 188.4,81.6 190.4,83.5 190.4,88.4 186.6,92.2 				
					"/>
				<polygon class="st43" points="183.6,81.6 179.8,85.3 179.8,81.6 				"/>
			</g>
		</g>
		<g>
			<g>
				<defs>
					<circle id="SVGID_5_" cx="202.3" cy="87.2" r="4.8"/>
				</defs>
				<clipPath id="SVGID_6_">
					<use xlink:href="#SVGID_5_"  style="overflow:visible;"/>
				</clipPath>
				<polygon class="st44" points="203.8,92.5 207.6,88.7 207.6,92.5 				"/>
				<polygon class="st44" points="199,92.5 197,90.5 197,85.7 200.8,81.9 205.6,81.9 207.6,83.9 207.6,88.7 203.8,92.5 				"/>
				<polygon class="st44" points="200.8,81.9 197,85.7 197,81.9 				"/>
			</g>
		</g>
		<g>
			<g>
				<path class="st41" d="M207.3,80.1c-1.4-1-3-1.4-4.7-1.1c-0.7,0.1-1.3-0.6-1.1-1.3l0,0c0.1-0.4,0.3-0.6,0.7-0.8
					c2.4-0.7,4.7-0.3,6.5,1.5c0.2,0.2,0.3,0.6,0.2,0.9l0,0.1C208.7,80.2,207.9,80.5,207.3,80.1z"/>
			</g>
		</g>
		<g>
			<g>
				<g>
					<ellipse class="st45" cx="202.3" cy="87.1" rx="1.2" ry="1.6"/>
				</g>
			</g>
			<g>
				<g>
					<path class="st45" d="M185.1,85.5c-0.7,0-1.2,0.7-1.2,1.6c0,0.9,0.5,1.6,1.2,1.6s1.2-0.7,1.2-1.6
						C186.3,86.2,185.8,85.5,185.1,85.5z"/>
				</g>
			</g>
		</g>
		<g>
			<g>
				<path class="st46" d="M207.2,85.6c-0.7-2.1-2.6-3.6-4.9-3.6c-2.6,0-4.7,1.9-5.1,4.4c0,0,0,0,0,0c-0.9-1-2.2-1.7-3.7-1.7
					c-1.3,0-2.5,0.5-3.4,1.4c-0.4-2.4-2.5-4.2-5.1-4.2c-2.3,0-4.2,1.5-4.9,3.6c-8.6-3-10.7-3.4-11.2-3.3c-0.2,0-0.3,0.3-0.3,0.4
					l0.4,0.2c0,0,0.1-0.1,0.1-0.1c0.7-0.1,6.1,1.6,10.9,3.4c-0.1,0.3-0.1,0.7-0.1,1.1c0,2.8,2.3,5.2,5.2,5.2c1.9,0,3.6-1.1,4.5-2.6
					c0.2,0,0.3-0.1,0.4-0.1c0.1-0.1,0.3-0.2,0.4-0.3c0.2-0.2,0.4-0.6,0.4-0.9c0.1-0.8-0.1-1.4-0.3-1.7c0.8-0.8,1.9-1.3,3.1-1.3
					c1.3,0,2.5,0.6,3.3,1.5c-0.2,0.3-0.3,0.9-0.2,1.6c0,0.3,0.2,0.6,0.4,0.9c0.1,0.1,0.3,0.2,0.4,0.3c0.1,0.1,0.3,0.1,0.4,0.1
					c0.9,1.5,2.5,2.6,4.5,2.6c2.8,0,5.2-2.3,5.2-5.2c0-0.4,0-0.7-0.1-1.1c4.9-1.7,10.2-3.5,10.8-3.4c0,0,0.5-0.2,0.5-0.2
					C218.6,82.1,218.3,81.6,207.2,85.6z M185.1,91.6c-2.5,0-4.6-2.1-4.6-4.6c0-2.5,2.1-4.6,4.6-4.6c2.5,0,4.6,2.1,4.6,4.6
					C189.7,89.6,187.6,91.6,185.1,91.6z M190.2,88.5c-0.1,0.1-0.1,0.2-0.2,0.3c0,0-0.1,0.1-0.1,0.1c0.2-0.5,0.3-1.1,0.4-1.7
					c0,0.1,0.1,0.2,0.1,0.3C190.4,87.8,190.4,88.2,190.2,88.5z M197.4,88.9c-0.1-0.1-0.2-0.2-0.2-0.3c-0.1-0.3-0.2-0.7-0.1-1
					c0-0.1,0.1-0.2,0.1-0.3c0,0.6,0.1,1.2,0.4,1.7C197.5,89,197.4,89,197.4,88.9z M202.3,91.8c-2.5,0-4.6-2.1-4.6-4.6
					c0-2.5,2.1-4.6,4.6-4.6s4.6,2.1,4.6,4.6C206.9,89.7,204.9,91.8,202.3,91.8z"/>
			</g>
		</g>
		<g>
			<g>
				<path class="st41" d="M180.1,80c1.4-1,3-1.4,4.7-1.1c0.7,0.1,1.3-0.6,1.1-1.3l0,0c-0.1-0.4-0.3-0.6-0.7-0.8
					c-2.4-0.7-4.7-0.3-6.5,1.5c-0.2,0.2-0.3,0.6-0.2,0.9l0,0.1C178.7,80.1,179.5,80.4,180.1,80z"/>
			</g>
		</g>
		<g>
			<g>
				<path class="st31" d="M157.6,183.5c0,0-1.3-27.4,7.9-30.9c2.1-0.8,4.1-0.3,5.5,0.4c4.9,2.6,6.1,11.9,6.5,16.2
					c0.5,5.5,1.2,13.5,0.3,15.8c0,0,0.3-12.7-1.8-22c-2.1-9.3-6.2-10.3-8.7-10.2c-2.6,0.1-5.6,3-7.2,8.6
					C158.3,167.1,157.6,183.5,157.6,183.5z"/>
			</g>
		</g>
		<g>
			<g>
				<path class="st31" d="M156.2,185.5c0-0.1,0.6,2.4,3.1,3c2.5,0.6,3.7-0.8,3.7-0.8s-0.2,1.6,0.1,2
					C163.2,189.7,156.5,190.4,156.2,185.5z"/>
			</g>
		</g>
		<g>
			<g>
				<path class="st31" d="M179.4,183.6c0-0.1,0.1,1.1-0.4,2.1c-0.9,1.7-1.6,1.8-2.5,2.3c-2.2,1.2-3-0.4-3-0.4s0.3,1.5,0.1,1.9
					C173.6,189.6,179.9,189.4,179.4,183.6z"/>
			</g>
		</g>
		<g>
			<g>
				<polygon class="st31" points="166.5,136.5 168,136.3 167.9,137 166.5,137.2 				"/>
			</g>
		</g>
		<g class="st47">
			<g>
				<g>
					<path class="st48" d="M169.1,153l0.3-17l-1.4,0.3l-0.3,16.8c-7.7,1.3-9.2,15-9.5,32.4c0,0,0,0,0,0l0,1c0,3.6,1.9,4.4,4.3,4.8
						c0.9,0.1,1.8,0.2,2.7,0.2c0.2,0.5,0.7,0.9,1.3,0.9c0.8,0,1.5-0.6,1.5-1.5v-1.2c0-0.8-0.6-1.5-1.5-1.5c-0.7,0-1.3,0.5-1.4,1.3
						c-1.9-0.1-4.3-0.5-5.1-1.9c-0.8-1.4-0.3-4.3-0.2-6.3c0.5-15.2,2.2-26.8,9.2-26.8c7.1,0,10.4,11.5,10.9,26.7
						c0.1,1.9,0.4,4.7-0.3,6.1c-0.6,1.3-2.4,1.9-4.1,2.1c-0.2-0.7-0.8-1.1-1.6-1.1c-0.8,0.1-1.4,0.8-1.3,1.6l0.1,1.2
						c0.1,0.8,0.8,1.4,1.6,1.3c0.6-0.1,1.1-0.5,1.2-1.1c2.8-0.4,5.9-1.6,5.8-5.2l0-1.4c0,0,0,0,0-0.1
						C181,166.8,177.5,153.1,169.1,153z"/>
				</g>
			</g>
			<g>
				<g>
					<path class="st48" d="M238,166.7c-1.4-33.6-17-41.3-17.7-41.6c0,0,0.9,0.7,4.8,6.1c4.1,5.6,10.4,15.8,11.3,35.5
						c-3.4,0.5-6,3.4-6,6.9c0,3.8,3.1,6.9,6.9,6.9c3.8,0,6.9-3.1,6.9-6.9C244.2,170,241.5,167,238,166.7z"/>
				</g>
			</g>
			<polygon class="st48" points="247,243.8 246.7,262.5 194.8,264.4 194.8,264.4 194.8,271 250.2,268.6 250.2,243 			"/>
		</g>
	</g>
	<g id="Layer_12">
	</g>
	<g id="Layer_4">
	</g>
	<g id="Layer_5">
	</g>
	<g id="Layer_16">
	</g>
</g>
</svg>
