<?xml version="1.0" encoding="utf-8"?>
<!-- Generator: Adobe Illustrator 25.2.0, SVG Export Plug-In . SVG Version: 6.00 Build 0)  -->
<svg version="1.1" id="OBJECTS" xmlns="http://www.w3.org/2000/svg" xmlns:xlink="http://www.w3.org/1999/xlink" x="0px" y="0px"
	 viewBox="125 0 750 500" style="enable-background:new 125 0 750 500;" xml:space="preserve">
<style type="text/css">
	.st0{fill:#FEEFE6;}
	.st1{fill:#D49BA0;}
	.st2{fill:none;stroke:#F2CDBF;stroke-linecap:round;stroke-miterlimit:10;}
	.st3{fill:#F2CDBF;}
	.st4{fill:#D4A59B;}
	.st5{fill:#FADED2;}
	.st6{fill:#FFFFFF;}
	.st7{fill:#F0D3D8;}
	.st8{fill:#A7C2D9;}
	.st9{fill:#BF828B;}
	.st10{fill:#326894;}
	.st11{fill:#4D8AB3;}
	.st12{fill:#994403;}
	.st13{fill:#852E03;}
	.st14{fill:#732D02;}
	.st15{fill:#EBF5FF;}
	.st16{fill:#FBBD9A;}
	.st17{fill:#F0997F;}
	.st18{fill:#D43226;}
	.st19{fill:#002A42;}
	.st20{fill:#EB4A2A;}
	.st21{fill:#06384F;}
	.st22{fill:none;stroke:#27788F;stroke-linecap:round;stroke-miterlimit:10;}
	.st23{fill:#8C4206;}
	.st24{fill:#A66317;}
	.st25{fill:#2F344D;}
	.st26{fill:none;stroke:#8C4206;stroke-width:2;stroke-linecap:round;stroke-miterlimit:10;}
	.st27{fill:none;stroke:#D45E4E;stroke-width:2;stroke-linecap:round;stroke-miterlimit:10;}
	.st28{fill:#DE3B26;}
	.st29{fill:#163649;}
	.st30{fill:#B82621;}
	.st31{fill:#FBBD9A;stroke:#D45E4E;stroke-linecap:round;stroke-miterlimit:10;}
	.st32{fill:none;stroke:#B82621;stroke-linecap:round;stroke-miterlimit:10;}
	.st33{fill:#FDBD9B;}
	.st34{fill:none;stroke:#B0514A;stroke-width:0.5;stroke-linecap:round;stroke-miterlimit:10;}
	.st35{fill:#316382;}
	.st36{fill:#407C91;}
	.st37{fill:#502202;}
	.st38{fill:#855321;}
	.st39{fill:#112C45;}
	.st40{fill:#163A4A;}
	.st41{fill:#4B8394;}
	.st42{fill:#6B4019;}
	.st43{fill:none;stroke:#502202;stroke-width:2;stroke-linecap:round;stroke-miterlimit:10;}
	.st44{fill:none;stroke:#B0514A;stroke-width:2;stroke-linecap:round;stroke-miterlimit:10;}
	.st45{fill:#2D3A5E;}
	.st46{fill:#69C5C9;}
	.st47{fill:none;stroke:#3E7C8A;stroke-width:0.5;stroke-linecap:round;stroke-miterlimit:10;}
	.st48{fill:#9BEBE7;}
	.st49{fill:#DAE8F7;}
	.st50{fill:none;stroke:#B8C8E3;stroke-linecap:round;stroke-miterlimit:10;}
	.st51{fill:none;stroke:#163649;stroke-miterlimit:10;}
	.st52{fill:none;stroke:#163649;stroke-linecap:round;stroke-miterlimit:10;}
	.st53{fill:#381B07;}
	.st54{fill:#DB8E62;}
	.st55{fill:#1D9FB3;}
	.st56{fill:#B23F37;}
	.st57{fill:#678CA8;}
	.st58{fill:#136D94;}
	.st59{fill:#CF6E4A;}
	.st60{fill:#25B2C2;}
	.st61{fill:#27B8C1;}
	.st62{fill:none;stroke:#51DBDB;stroke-linecap:round;stroke-miterlimit:10;}
	.st63{fill:#D68A5A;}
	.st64{fill:#24151A;}
	.st65{fill:none;stroke:#A8473E;stroke-width:0.5;stroke-linecap:round;stroke-miterlimit:10;}
	.st66{fill:#32C9CF;}
	.st67{fill:#412408;}
	.st68{fill:#664216;}
	.st69{fill:#411F00;}
	.st70{fill:none;stroke:#412408;stroke-width:2;stroke-linecap:round;stroke-miterlimit:10;}
	.st71{fill:none;stroke:#A8473E;stroke-width:2;stroke-linecap:round;stroke-miterlimit:10;}
	.st72{fill:#FFA8B1;}
	.st73{fill:none;stroke:#FFFFFF;stroke-linecap:round;stroke-miterlimit:10;}
	.st74{fill:#F2E4E5;}
</style>
<g>
	<g>
		<path class="st0" d="M359,445.8c90.7,22.8,238.9,25.3,338.9-22.6c92.4-44.2,111.4-206.8,48-299.1
			c-45.1-65.5-131.4-91.7-214.2-82.4c-97.7,11-123.6,78.5-188.4,127.1c-40.3,30.2-122.7,22.8-138.3,110.9
			C187.3,380.1,296.4,430.1,359,445.8z"/>
	</g>
	<g>
		<g>
			<g>
				<path class="st1" d="M676.2,443.4c11.6-201.8,99.4-226.6,113.2-209.6C818.3,269.3,718,380.6,676.2,443.4z"/>
				<g>
					<path class="st2" d="M779.9,241.7c-49.1,57.3-84.2,126.5-101.2,200"/>
					<path class="st2" d="M754,243.4c2.8,8.4,4.4,17.3,4.6,26.2c9.4-2,19-3.1,28.5-3.2"/>
					<path class="st2" d="M720.2,278.4c5.5,9.6,9.6,20,12,30.8c11.2-2.4,22.6-3.5,34-3.5"/>
					<path class="st2" d="M696.9,329.1c4.6,7.2,8.6,14.8,11.8,22.7c10.8-4.4,22.5-6.5,34.1-6.1"/>
					<path class="st2" d="M718.9,377.8c-7.1-0.5-14.2,0-21.2,1.6c-1.8-5.7-4.4-11.2-7.6-16.2"/>
				</g>
			</g>
			<g>
				<path class="st1" d="M676.2,443.4c64.5-102.7,146.8-136.5,150.6-99.4C832,395.3,720.8,428.9,676.2,443.4z"/>
				<g>
					<path class="st2" d="M816.6,347.5c-50.8,24.2-97.8,56.4-138.7,95"/>
					<path class="st2" d="M798.3,336.8c0.2,7.2-0.5,14.4-2,21.3c7.1,0.7,13.9,3.5,19.4,7.9"/>
					<path class="st2" d="M764,352.7c1.3,7.5,1.9,15.2,1.6,22.9c9.5,0.9,18.8,4.2,26.8,9.5"/>
					<path class="st2" d="M731.4,376.4c2.6,5.9,3.9,12.4,3.6,18.9c8.8,0.7,17.5,3.5,25,8.1"/>
				</g>
			</g>
		</g>
		<g>
			<g>
				<rect x="563.1" y="282.2" class="st3" width="143" height="15"/>
				<g>
					<polygon class="st3" points="701.9,297.2 701.9,443.4 689.2,443.4 689.2,435.4 579.9,435.4 579.9,443.4 567.3,443.4 
						567.3,297.2 					"/>
					<rect x="567.3" y="297.2" class="st4" width="134.6" height="3"/>
				</g>
				<g>
					<g>
						<g>
							<rect x="580.8" y="310.3" class="st4" width="107.2" height="32.5"/>
							<rect x="579.7" y="307.3" class="st5" width="109.4" height="32.5"/>
						</g>
					</g>
					<g>
						<g>
							<rect x="580.8" y="351.3" class="st4" width="107.2" height="32.5"/>
							<rect x="579.7" y="348.3" class="st5" width="109.4" height="32.5"/>
						</g>
					</g>
					<g>
						<g>
							<rect x="580.8" y="392.3" class="st4" width="107.2" height="32.5"/>
							<rect x="579.7" y="389.3" class="st5" width="109.4" height="32.5"/>
						</g>
					</g>
				</g>
			</g>
			<g>
				<g>
					<g>
						<g>
							<path class="st6" d="M598.2,274.9v-22.8h6.2v22.8c0,1.5-1.2,2.8-2.8,2.8h-0.8C599.4,277.6,598.2,276.4,598.2,274.9z"/>
							<path class="st6" d="M597.1,251.4L597.1,251.4c0-0.4,0.3-0.7,0.7-0.7h7.1c0.4,0,0.7,0.3,0.7,0.7l0,0c0,0.4-0.3,0.7-0.7,0.7
								h-7.1C597.4,252.1,597.1,251.8,597.1,251.4z"/>
						</g>
						<path class="st7" d="M599.2,274.5v-14.9h4.2v14.9c0,1.2-1,2.1-2.1,2.1l0,0C600.1,276.6,599.2,275.7,599.2,274.5z"/>
					</g>
					<g>
						<g>
							<path class="st6" d="M610.7,274.9v-22.8h6.2v22.8c0,1.5-1.2,2.8-2.8,2.8h-0.8C611.9,277.6,610.7,276.4,610.7,274.9z"/>
							<path class="st6" d="M609.6,251.4L609.6,251.4c0-0.4,0.3-0.7,0.7-0.7h7.1c0.4,0,0.7,0.3,0.7,0.7l0,0c0,0.4-0.3,0.7-0.7,0.7
								h-7.1C609.9,252.1,609.6,251.8,609.6,251.4z"/>
						</g>
						<path class="st7" d="M611.7,274.5v-14.9h4.2v14.9c0,1.2-1,2.1-2.1,2.1l0,0C612.6,276.6,611.7,275.7,611.7,274.5z"/>
					</g>
					<g>
						<g>
							<path class="st6" d="M623.9,274.9v-22.8h6.2v22.8c0,1.5-1.2,2.8-2.8,2.8h-0.8C625.2,277.6,623.9,276.4,623.9,274.9z"/>
							<path class="st6" d="M622.8,251.4L622.8,251.4c0-0.4,0.3-0.7,0.7-0.7h7.1c0.4,0,0.7,0.3,0.7,0.7l0,0c0,0.4-0.3,0.7-0.7,0.7
								h-7.1C623.1,252.1,622.8,251.8,622.8,251.4z"/>
						</g>
						<path class="st7" d="M624.9,274.5v-14.9h4.2v14.9c0,1.2-1,2.1-2.1,2.1l0,0C625.9,276.6,624.9,275.7,624.9,274.5z"/>
					</g>
					<g>
						<g>
							<path class="st6" d="M637.4,274.9v-22.8h6.2v22.8c0,1.5-1.2,2.8-2.8,2.8h-0.8C638.7,277.6,637.4,276.4,637.4,274.9z"/>
							<path class="st6" d="M636.3,251.4L636.3,251.4c0-0.4,0.3-0.7,0.7-0.7h7.1c0.4,0,0.7,0.3,0.7,0.7l0,0c0,0.4-0.3,0.7-0.7,0.7
								H637C636.6,252.1,636.3,251.8,636.3,251.4z"/>
						</g>
						<path class="st7" d="M638.4,274.5v-14.9h4.2v14.9c0,1.2-1,2.1-2.1,2.1l0,0C639.4,276.6,638.4,275.7,638.4,274.5z"/>
					</g>
					<g>
						<g>
							<path class="st6" d="M651.9,274.9v-22.8h6.2v22.8c0,1.5-1.2,2.8-2.8,2.8h-0.8C653.2,277.6,651.9,276.4,651.9,274.9z"/>
							<path class="st6" d="M650.8,251.4L650.8,251.4c0-0.4,0.3-0.7,0.7-0.7h7.1c0.4,0,0.7,0.3,0.7,0.7l0,0c0,0.4-0.3,0.7-0.7,0.7
								h-7.1C651.1,252.1,650.8,251.8,650.8,251.4z"/>
						</g>
						<path class="st7" d="M652.9,274.5v-14.9h4.2v14.9c0,1.2-1,2.1-2.1,2.1l0,0C653.9,276.6,652.9,275.7,652.9,274.5z"/>
					</g>
				</g>
				<g>
					<rect x="592" y="253.4" class="st8" width="77" height="2"/>
					<rect x="588" y="277.2" class="st1" width="86" height="5"/>
					<g>
						<rect x="591.4" y="250.7" class="st1" width="2.2" height="29"/>
						<rect x="667.7" y="250.7" class="st1" width="2.2" height="29"/>
					</g>
				</g>
			</g>
		</g>
		<g>
			<g>
				<g>
					<path class="st9" d="M277.3,353.7c18.1-22.7,27-52.5,24.2-81.4s-17.2-56.4-40.2-75.6c0.3,21.4-0.5,42.8-2.6,64.1
						c-2,20.2-5.1,40.9-0.2,60.7C261.3,333.2,266.9,344.3,277.3,353.7z"/>
					<g>
						<path class="st2" d="M275.6,379.6c0-71.5,19-94.6-8.8-170.1"/>
						<path class="st2" d="M280,221.9c-1.9,4.1-3.9,8.3-5.8,12.4c-3.5-1.7-7.2-2.7-11.1-3"/>
						<path class="st2" d="M260.7,265c7.3,0.3,14.5,2.3,20.9,5.7c4.3-5.3,9.4-9.9,15-13.7"/>
						<path class="st2" d="M259.8,299.7c7.3-0.6,14.8,1.3,21,5.4c6-6.3,12.8-11.8,20.3-16.2"/>
						<path class="st2" d="M263.1,328.2c5.5,0.6,10.7,3.2,14.5,7.2c4-5.4,8.8-10.2,14.3-14.1"/>
					</g>
				</g>
				<g>
					<path class="st1" d="M290.4,351.5c0,0-15.4-33.7,4.3-70.6c10.9-20.4,34.5-45.2,63.8-65.9c0,0-14,76.1-31.4,107.9
						C313.8,347.5,290.4,351.5,290.4,351.5z"/>
					<g>
						<path class="st2" d="M347.9,229.8c-30.3,48.7-51.9,101.9-69.1,156.6"/>
						<path class="st2" d="M328.6,241.9c1.8,4.2,3.3,8.6,4.4,13.1c5.1-1,10.4-1.6,15.6-2"/>
						<path class="st2" d="M304.5,272.4c4.3,6,7.7,12.6,10.2,19.6c8-3.9,16.7-6.5,25.5-7.7"/>
						<path class="st2" d="M290.3,298.3c5.2,6.7,9.2,14.3,11.6,22.4c9-3.8,18.5-6.7,28.1-8.5"/>
						<path class="st2" d="M286.5,329.4c3,3.4,5.8,6.9,8.4,10.5c6.6-2.7,13.6-4.7,20.8-5.8"/>
					</g>
				</g>
				<g>
					<path class="st1" d="M261.3,358.3c0,0,13.4-18.9,3.5-51.8c-13.5-45-69.8-76.9-69.8-76.9s15.1,61.5,26.9,92.2
						C233.8,352.9,261.3,358.3,261.3,358.3z"/>
					<g>
						<path class="st2" d="M264.8,374.8c0,0-7.7-61.9-62.4-136.5"/>
						<path class="st2" d="M222.3,251.4c-1.6,3.7-2.7,7.7-3.2,11.7c-3.8-1.1-7.8-1.6-11.8-1.6"/>
						<path class="st2" d="M215.1,293c7.5-1.1,15.2-0.6,22.4,1.6c1.4-6.7,4.5-13,9-18.2"/>
						<path class="st2" d="M262.8,305.9c-5.1,5.6-9.1,12.2-11.7,19.2c-7.1-3.1-15.2-3.6-22.6-1.4"/>
						<path class="st2" d="M244.4,348.4c4.9-0.9,9.9-1,14.8-0.2c1.7-3.9,4.1-7.5,7.2-10.5"/>
					</g>
				</g>
			</g>
			<g>
				<polygon class="st1" points="312.7,363.5 310.6,375.4 308.3,388.5 307,395.4 304.7,408.5 298.6,443.4 253.6,443.4 247.3,408.5 
					244.9,395.4 243.7,388.5 241.4,375.4 239.2,363.5 				"/>
				<polygon class="st5" points="310.6,375.4 308.3,388.5 243.7,388.5 241.4,375.4 				"/>
				<polygon class="st5" points="307,395.4 304.7,408.5 247.3,408.5 244.9,395.4 				"/>
			</g>
		</g>
	</g>
	<g>
		<g>
			<g>
				<g>
					<g>
						<rect x="320.9" y="425.1" class="st10" width="73.7" height="6.8"/>
						<g>
							<path class="st11" d="M333.5,361.7c0,0.2,0,0.4,0,0.5l-1.1,9.4l-10.2,84.1c-0.3,2.3-2.3,3.9-4.5,3.6c-2-0.3-3.5-2-3.5-4.1
								c0-0.2,0-0.4,0-0.5l10.1-83.1l1.3-10.5c0.3-2.2,2.3-3.9,4.5-3.6C332,357.9,333.5,359.6,333.5,361.7z"/>
							<path class="st10" d="M333.5,361.7c0,0.2,0,0.4,0,0.5l-1.1,9.4h-8.1l1.3-10.5c0.3-2.2,2.3-3.9,4.5-3.6
								C332,357.9,333.5,359.6,333.5,361.7z"/>
						</g>
						<g>
							<path class="st11" d="M362.7,361v94.3c0,2.3-1.8,4.1-4,4.1c-1.1,0-2.1-0.5-2.8-1.2c-0.7-0.7-1.2-1.8-1.2-2.9V361
								c0-2.3,1.8-4.1,4-4.1c1.1,0,2.1,0.5,2.8,1.2S362.7,359.8,362.7,361z"/>
							<path class="st10" d="M361.5,358.1c0.7,0.7,1.2,1.8,1.2,2.9v10.7h-8V361c0-2.3,1.8-4.1,4-4.1
								C359.8,356.9,360.8,357.3,361.5,358.1z"/>
						</g>
						<g>
							<path class="st11" d="M403,455.2c0,2.1-1.5,3.8-3.5,4.1c-2.2,0.3-4.2-1.3-4.5-3.6l-10.2-84.1l-1.1-9.4c0-0.2,0-0.4,0-0.5
								c0-2,1.5-3.8,3.5-4.1c2.2-0.3,4.2,1.3,4.5,3.6l1.3,10.4l10.1,83.1C403,454.9,403,455.1,403,455.2z"/>
							<path class="st10" d="M392.9,371.6h-8.1l-1.1-9.4c0-0.2,0-0.4,0-0.5c0-2,1.5-3.8,3.5-4.1c2.2-0.3,4.2,1.3,4.5,3.6
								L392.9,371.6z"/>
						</g>
					</g>
					<g>
						<path class="st12" d="M410.3,350.3v2.7c0,4.7-3.8,8.4-8.5,8.4h-75.6c-4.7,0-8.5-3.8-8.5-8.4v-2.7c0-4.7,3.8-8.4,8.5-8.4h75.6
							C406.5,341.9,410.3,345.7,410.3,350.3z"/>
						<path class="st13" d="M410.3,350.3v2.7c0,4.7-3.8,8.4-8.5,8.4h-68.7c-4.7,0-8.5-3.8-8.5-8.4v-2.7c0-4.7,3.8-8.4,8.5-8.4h68.7
							C406.5,341.9,410.3,345.7,410.3,350.3z"/>
					</g>
				</g>
				<g>
					<path class="st14" d="M331.3,181.9c-1,1.9-1.9,3.9-2.8,5.8c-0.6,3.3-0.2,6.8,0,10.2s0.4,6.8-0.6,10.1c-0.9,3.3-3.2,6.3-6.4,7.6
						c-2.1,0.8-4.6,0.9-6.3,2.4c-1.9,1.8-1.7,4.7-1,7.1c0.6,2,1.5,4.1,3.1,5.5c1.6,1.4,4.2,2.3,6,1.3c1.7-1,4.1-0.3,5.3,1.3
						c1.3,1.5,1.9,3.5,3.1,5.1c1.8,2.2,4.7,3.4,7.6,3.4c2.9,0.1,6-0.3,7.9-1.5c4.1-2.6,9.3-4.3,13.5-1.9c2.2,1.3,4,3.3,6.4,4.2
						c2.1,0.8,4.4,0.6,6.4-0.4c1.9-1,2.7-3.2,3.9-4.9c2.2-3.1,7.6-0.6,11.3-1.6c4-1.1,6.7-5.5,5.7-9.4c-0.9-3.9-5.3-5.3-9.1-5.9
						c-2.7-0.4-3.7-3.8-4.4-6.3c-0.6-2.5-0.5-5.2-0.4-7.8c0.2-5.3,2.6-17.6,1.1-19.3c-0.8-0.9-3.8-3.1-4.9-3.6
						c-5-2.3-10-4.6-15.1-6.9c-4.6-2.1-9.4-4.2-14.4-4.1C342.2,172.6,334.9,174.6,331.3,181.9z"/>
					<g>
						<path class="st15" d="M348.7,229.6c0,0-22.3,3.5-24.6,11.4c-2.4,7.9,11.2,63.1,11.2,63.1l50.1-3.1c0,0,3.6-63.6-4.3-67.6
							C373,229.4,348.7,229.6,348.7,229.6z"/>
						<g>
							<path class="st16" d="M368.1,231.7c0,0-3.2,11.1-9.1,13.5c-5.9,2.4-18.8-12.3-18.8-12.3c2.6-1.6,3.6-5.6,3.9-9.2
								c0.3-3.7,0-7,0-7l17.9,3.4c-0.5,5.5,1.2,8.4,2.9,10C366.4,231.6,368.1,231.7,368.1,231.7z"/>
							<path class="st17" d="M364.8,230.1c-8.5,1.1-16.2-3.1-20.7-6.4c0.3-3.7,0-7,0-7l17.9,3.4
								C361.5,225.6,363.1,228.6,364.8,230.1z"/>
						</g>
					</g>
					<g>
						<g>
							<g>
								<path class="st18" d="M416.6,439.3c-1.9,3.2-35.4-17.4-35.4-21c0-2.3,4.4-5.7,7.4-7.7c1.6-1.1,2.9-1.8,2.9-1.8l7.8-3.6
									l3.5,1.9c5.1,8.8,10,18,12.5,24.5C416.7,435.3,417.3,438.1,416.6,439.3z"/>
								<path class="st17" d="M415.3,431.5c-9.6,0.4-22.3-15.1-26.7-20.9c1.6-1.1,2.9-1.8,2.9-1.8l7.8-3.6l3.5,1.9
									C407.9,415.9,412.8,425.1,415.3,431.5z"/>
							</g>
							<path class="st19" d="M382.1,305.7c0,0,61,7.7,63,23.3c2.1,15.6-38.2,84.5-38.2,84.5l-14.5-3.8l18.9-61.6l-48.6-20.6
								l9.7-21.9H382.1L382.1,305.7z"/>
						</g>
						<g>
							<g>
								<path class="st20" d="M401.8,441.1c-1.9,3.2-35.4-17.4-35.4-21c0-2.3,4.4-5.7,7.4-7.7c1.6-1.1,2.9-1.8,2.9-1.8l7.8-3.6
									l3.5,1.9c5.1,8.8,10,18.1,12.5,24.5C401.9,437.1,402.5,439.9,401.8,441.1z"/>
								<path class="st16" d="M400.5,433.3c-9.6,0.4-22.3-15.1-26.7-20.9c1.6-1.1,2.9-1.8,2.9-1.8l7.8-3.6l3.5,1.9
									C393.1,417.7,398,426.9,400.5,433.3z"/>
							</g>
							<g>
								<path class="st21" d="M330.7,300.5c0,0-21.1,41.8,16,46.3c27,3.3,44.9,2.6,45.5,4.1c0.9,2.4-17.6,60.8-17.6,60.8l18.2,5.8
									c0,0,37.7-81,35.6-88c-1.7-5.8-53.7-14.6-53.7-14.6c4.4-2.1,7.6-9.7,7.1-19.4L330.7,300.5z"/>
								<g>
									<path class="st22" d="M336.6,296.9c0,0-12.1,26.7-2.4,37.5c11.4,12.8,61.4,8.6,64.9,13.2c2.8,3.6-19.3,62.6-19.3,62.6"/>
									<line class="st22" x1="376.1" y1="409.2" x2="393.7" y2="414.6"/>
								</g>
							</g>
						</g>
					</g>
					<g>
						<path class="st17" d="M376.7,197.5c4.3-0.5,8.1,1.7,8.4,4.8c0.4,3.1-2.8,6.1-7.1,6.6c-4.3,0.5-8.1-1.7-8.4-4.8
							C369.2,200.9,372.4,197.9,376.7,197.5z"/>
						<g>
							<path class="st16" d="M334.1,197.2c0-14.8,9.4-26.8,22.1-26.8s22.9,12,22.9,26.8s-6.5,27.6-18.4,28.1
								C348.7,225.7,334.1,212,334.1,197.2z"/>
							<path class="st17" d="M335.4,200.6c6.4-2.9,11.6-8.2,14-14.7c3.3,3.7,8.1,5.8,13,6.7c4.9,0.9,9.9,0.7,14.5,0.6
								c1.5,1.3,2.6,3.1,2.9,5.1c0.5-4.4,0.1-8.9-1.4-13.1c-12.6-3.8-25.1-7.9-37.6-12.2C339,181.9,337.1,190.7,335.4,200.6z"/>
						</g>
						<g>
							<path class="st23" d="M347.2,179.2c2.7,5.1,8,8.5,13.5,10.3c5.5,1.8,11.4,2,17.2,2.2c0.9,3.2,1.1,7,1.1,10.3
								c2-4.7,3.1-8.7,3.2-12.6c0-1.1,0-2.3,0-3.5c-0.3-8.2-3.7-12.8-8.2-16.3c-4.5-3.5-10.1-5-15.8-5c-5.6,0-9.2,1.3-11.4,3.5
								c-0.8,0.8-1.3,1.7-1.8,2.7C344.2,173.1,345.2,175.4,347.2,179.2z"/>
							<path class="st23" d="M328.4,202.4c-0.2-7.2-0.6-19.7,2.3-25.6c1.9-3.9,5.5-7.1,9.8-7.7c4.3-0.6,9,2.1,10,6.3
								c-1.9,9.7-6.8,18.7-13.7,25.7C334.4,202.3,330.8,203.1,328.4,202.4z"/>
							<path class="st24" d="M346.9,168.2c8.3-2.2,17.6-0.3,24.4,4.9c5.3,4,9.1,9.9,11,16.3c0-1.1,0-2.3,0-3.5
								c-0.3-8.2-3.7-12.8-8.2-16.3c-4.5-3.5-10.1-5-15.8-5C352.6,164.7,349,166,346.9,168.2z"/>
						</g>
						
							<ellipse transform="matrix(0.248 -0.9688 0.9688 0.248 52.4451 476.7606)" class="st16" cx="333.3" cy="204.6" rx="5.7" ry="7.8"/>
						<g>
							<ellipse class="st25" cx="357.1" cy="204.6" rx="1.2" ry="1.9"/>
							<ellipse class="st25" cx="373.6" cy="204.6" rx="1.2" ry="1.9"/>
							<path class="st26" d="M370.1,195.8c2-0.7,4.9-0.5,6.9,0.8"/>
							<path class="st26" d="M358.1,195.5c-2.2-1-6.3-0.8-8.2,1.4"/>
							<path class="st27" d="M365.5,203.4c0.5,2,0.1,4.5-0.5,6.1"/>
							<path class="st27" d="M364.1,215.4c-2.6,0.5-7.4-1-8.7-3.2"/>
						</g>
					</g>
					<g>
						<g>
							<path class="st16" d="M373.6,238.5l8.9-5.4c0,0,7.5,0.6,12.6,10c5.1,9.3,14.6,39.4,17.6,40.8c3,1.3,39.7,1.8,39.7,1.8
								l0.5,10.8c0,0-44.9,7.1-50.3,4.2c-5.4-3-22.7-37.7-22.7-37.7L373.6,238.5z"/>
							<path class="st28" d="M373.1,237.3l1.7-6c0,0,9.9,0.4,14.9,4.4c5,4,9.2,14.7,9.2,14.7L386,271L373.1,237.3z"/>
							<path class="st29" d="M388.3,278.8c0,0,13.8-11.9,15.9-14.9c1-1.5,8.5,15.8,7.2,18c-2,3.4-14.6,11.5-15.3,11
								C395.4,292.4,388.3,278.8,388.3,278.8z"/>
							<path class="st30" d="M384.7,268c4.1-6.6,8.3-13.2,12.4-19.8c0.2-0.4,0.5-0.7,0.8-1c1-0.7,2.5,0.2,3,1.3
								c0.4,1.2,0.1,2.5-0.2,3.7c1.3-0.2,2.5,1.1,2.7,2.4c0.2,1.3-0.4,2.7-1,3.8c-3.8,7.3-10.3,13.1-17.9,16.2
								C384.1,272.4,383.4,269.9,384.7,268z"/>
							<g>
								<path class="st16" d="M446.8,287.4c5.1-3.6,15.1-10.8,15.8-11.1c0.9-0.4,6.9-0.4,10.2,0.6c3.3,1,6.4,3.3,7.5,6.5
									c0.3,0.9,0.4,2.1-0.4,2.6c-0.5,0.4-1.2,0.2-1.8-0.1s-0.9-0.8-1.4-1.3c-2.2-2.4-4.2-3.3-7.8-3.5c4.3,0.7,7,3.3,8.3,7.5
									c0.2,0.8,0.4,1.9-0.3,2.4c-0.5,0.4-1.3,0.3-1.9-0.1c-0.6-0.4-1-0.9-1.4-1.5c-1.6-2-3.7-3.6-6-4.5c3.3,1.4,5.7,4.6,6.2,8.1
									c0.1,0.5,0.1,1.1-0.1,1.6c-0.2,0.5-0.7,0.9-1.2,0.8c-0.4-0.1-0.7-0.4-1-0.7c-1.8-2-3.2-4.1-5.6-5.6c2.2,2.9,4,7.6,3.5,8.8
									c-0.1,0.4-1.1,1-2.1,0c-1.2-1.2-2-3.2-3.8-5.4c-3.1,3.5-8.1,5.1-12.7,4.1C449.6,293.4,448.2,290.3,446.8,287.4z"/>
								<path class="st31" d="M456.2,282.8c3.6-1.3,7.4-2.4,11.1-3.3c0.5-0.1,1-0.2,1.5-0.2s1,0.3,1.2,0.8c0.2,0.5,0.1,1.1-0.2,1.5
									c-0.3,0.4-0.8,0.7-1.2,1c-1.6,1-3.3,1.8-5.1,2.7c-0.3,2.7-2.3,5.1-4.9,5.9"/>
							</g>
						</g>
						<path class="st20" d="M365.1,230.3c2.1,1.9,3.5,12.3,4.6,19c1.6,10,10,53.4,10.5,56.4c0.9,5.4,18.1,5,18.7,2.2
							c0.1-0.5-5-2.9-5.8-6.4c-0.7-3.1-6.4-63.5-9.2-66.7C380.4,230.7,364.4,229.7,365.1,230.3z"/>
					</g>
					<g>
						<path class="st20" d="M341.6,230.3c1.8,0.6,7.4,12.6,10.1,23.5c5.6,22.8,2.3,56.7,0,61.2c-2.3,4.5-24.2,6.5-27.9,5.3
							c-2.2-0.7-4.5-69-3-77.6C321.8,236.9,341,230.1,341.6,230.3z"/>
						<path class="st16" d="M374.4,306.6c4.6-1.7,18-5.2,19.8-5c1.9,0.2,3.8,0.9,5,2.4c0.8,1,1.1,2.3,1.5,3.5c0.6,2,1.1,4,1.7,6
							c0.2,0.7,0.4,1.4,0.3,2.2s-0.6,1.4-1.3,1.5c-1,0.1-1.6-1.1-1.9-2c-0.9-2.5-1.8-5-2.7-7.4c0.6,3.1,1.2,6.1,1.8,9.2
							c0.1,0.7,0.3,1.5,0.1,2.2c-0.2,0.7-0.7,1.4-1.4,1.4c-1,0-1.5-1.3-1.7-2.4c-0.5-2.4-1-4.8-1.8-7.2c1.1,3.4,1.2,7.1,0.4,10.6
							c-0.1,0.5-0.3,1.1-0.6,1.5c-0.4,0.4-1,0.5-1.4,0.2c-0.3-0.3-0.4-0.7-0.4-1.1c-0.3-3.1-0.6-6.2-0.9-9.3
							c0.3,3.3,0.6,6.6-0.3,9.8c-0.2,0.6-0.4,1.1-0.8,1.5s-1.1,0.5-1.5,0.1c-0.4-0.4-0.5-1-0.5-1.5c-0.1-2-0.1-3.9-0.1-6.2
							c-1.7,2-4.1,3.4-6.6,3.7c-2.5,0.4-5.1-0.2-7.6-1C373.5,315.5,373.7,311.8,374.4,306.6z"/>
						<path class="st20" d="M340.2,250.7c-1.4-6.5-7.2-17-11.9-14.8c-2.7,1.2-10.5,3.9-10.5,21c0,23.1,3,53.5,10.5,58.6
							c3.8,2.6,45.4,5.1,45.4,5.1l3-14.9c0,0-30.6-5.7-32-9.9C342.6,289.9,343.9,267.9,340.2,250.7z"/>
						<g>
							<path class="st32" d="M336.6,247.1c5.1,17.4,6.2,46.9,7,48.7c0.7,1.6,4.6,2.3,7.7,3.4"/>
							<path class="st32" d="M342.4,318.1c-5.7-0.6-12.8-1.7-14.4-2.9c-1.9-1.4-4.1-8.2-5.7-12.8"/>
							<path class="st32" d="M341.6,275.9c2-2.6,2.9-6.8,3.1-12"/>
						</g>
					</g>
				</g>
			</g>
			<g>
				<g>
					<g>
						<g>
							<rect x="493.4" y="423.3" class="st10" width="73.7" height="6.7"/>
							<g>
								<path class="st11" d="M506,361.5c0,0.2,0,0.3,0,0.5l-1.1,9.2l-10.2,81.9c-0.3,2.2-2.3,3.8-4.5,3.5c-2-0.3-3.5-2-3.5-4
									c0-0.2,0-0.3,0-0.5l10.1-80.9l1.3-10.2c0.3-2.2,2.3-3.8,4.5-3.5C504.5,357.9,506,359.6,506,361.5z"/>
								<path class="st10" d="M506,361.5c0,0.2,0,0.3,0,0.5l-1.1,9.2h-8.1l1.3-10.2c0.3-2.2,2.3-3.8,4.5-3.5
									C504.5,357.9,506,359.6,506,361.5z"/>
							</g>
							<g>
								<path class="st11" d="M535.2,360.9v91.8c0,2.2-1.8,4-4,4c-1.1,0-2.1-0.4-2.8-1.2c-0.7-0.7-1.2-1.7-1.2-2.8v-91.8
									c0-2.2,1.8-4,4-4c1.1,0,2.1,0.4,2.8,1.2C534.8,358.8,535.2,359.8,535.2,360.9z"/>
								<path class="st10" d="M534,358c0.7,0.7,1.2,1.7,1.2,2.8v10.4h-8v-10.4c0-2.2,1.8-4,4-4C532.3,356.9,533.3,357.3,534,358z"/>
							</g>
							<g>
								<path class="st11" d="M575.5,452.7c0,2-1.5,3.7-3.5,4c-2.2,0.3-4.2-1.3-4.5-3.5l-10.2-81.9l-1.1-9.2c0-0.2,0-0.3,0-0.5
									c0-2,1.5-3.7,3.5-4c2.2-0.3,4.2,1.3,4.5,3.5l1.3,10.2l10.1,80.9C575.5,452.4,575.5,452.5,575.5,452.7z"/>
								<path class="st10" d="M565.4,371.2h-8.1l-1.1-9.2c0-0.2,0-0.3,0-0.5c0-2,1.5-3.7,3.5-4c2.2-0.3,4.2,1.3,4.5,3.5L565.4,371.2
									z"/>
							</g>
						</g>
						<g>
							<path class="st12" d="M582.8,350.3v2.7c0,4.7-3.8,8.4-8.5,8.4h-75.6c-4.7,0-8.4-3.8-8.4-8.4v-2.7c0-4.7,3.8-8.4,8.4-8.4h75.6
								C579,341.9,582.8,345.7,582.8,350.3z"/>
							<path class="st13" d="M582.8,350.3v2.7c0,4.7-3.8,8.4-8.5,8.4h-68.6c-4.7,0-8.5-3.8-8.5-8.4v-2.7c0-4.7,3.8-8.4,8.5-8.4h68.6
								C579,341.9,582.8,345.7,582.8,350.3z"/>
						</g>
					</g>
					<g>
						<g>
							<g>
								<g>
									<path class="st33" d="M483.7,229.6c1.5-2.5,0-5.7,0.5-8.6c0.1-0.8,0.5-1.6,1.1-2.1c0.6-0.5,1.6-0.6,2.2,0
										c0.7,0.7,0.5,1.9,0.5,2.8c0,1.8,0.8,3.4,1.2,5.2c0.9,4.2-1.3,7.7-3.5,11.3c-2.7,1.9-6.3,3.2-8.6,3.4
										c-1.4,0.1-8.7-3.9-11.5-12.5c-1.4-4.3-1.3-6.1-0.8-6.7c0.5-0.6,1.4-0.9,2-0.4c0.4,0.3,0.5,0.7,0.7,1.2
										c0.9,2.6,1.8,5.2,2.7,7.9c-3.5-3.3-5.5-8.1-5.2-12.9c0.1-0.9,0.3-2,1.2-2.3c0.6-0.2,1.2,0.1,1.6,0.5c0.4,0.4,0.7,1,0.9,1.5
										c1.3,2.7,2.5,5.4,4.3,8.7c-3.2-3-4.6-7.9-3.4-12.2c0.2-0.7,0.6-1.6,1.4-1.6c0.8,0,1.2,0.8,1.5,1.6
										c1.3,3.4,2.6,6.9,3.8,10.3c-1.8-2.8-2.6-6.4-2.2-9.7c0.2-1.2,0.8-2.7,2-2.7c0.7,0,1.4,0.4,1.7,1.1c0.4,0.6,0.5,1.3,0.7,2
										C479.6,219,481.4,222.8,483.7,229.6z"/>
									<path class="st34" d="M465.6,222c1.1-0.3,1.9,0.1,2.4,1.7c0.6,2.3,2.3,7.7,4,8.9"/>
								</g>
								<polygon class="st33" points="486.1,236 490.3,245.8 479.2,252.5 474.3,239.5 								"/>
							</g>
							<g>
								<g>
									<path class="st35" d="M485.6,224.5c-0.8-4.5-4.2-7.7-8-8.2l-0.1-0.3c0,0-2,0.4-2.7,0.5c-4.4,1-7.1,5.9-6.2,11
										c0.9,5.1,5.1,8.7,9.6,8.2c0.7-0.1,2.7-0.4,2.7-0.4l-0.1-0.3C484.4,233.2,486.4,229,485.6,224.5z"/>
								</g>
								<path class="st36" d="M477.4,216.1c4.7-0.8,9.2,2.8,10.2,8.1s-2.1,10.3-6.8,11.1c-4.7,0.8-9.2-2.8-10.2-8.1
									C469.7,221.9,472.7,216.9,477.4,216.1z"/>
								<g>
									<path class="st15" d="M485.6,224.5c-0.7-4.1-4.2-6.9-7.8-6.2c-0.1,0-0.1,0-0.2,0c-3.5,0.7-5.7,4.5-5,8.5
										c0.7,4,4.1,6.8,7.6,6.2c0.1,0,0.1,0,0.2,0C484,232.4,486.3,228.6,485.6,224.5z"/>
								</g>
							</g>
						</g>
						<path class="st6" d="M520.1,233.4l-6.8-5.2c0,0-4.5,2.5-6.8,7.8c-2.4,5.3-5.5,22.9-5.5,22.9l-12.7-21.2L472,249.2
							c0,0,18,45.6,28.8,46.1c10.8,0.6,18.5-9.5,18.5-9.5L520.1,233.4z"/>
					</g>
					<g>
						<g>
							<polygon class="st16" points="466.3,430.3 468.4,443.3 476.9,446.8 486.7,442.1 485,429.3 							"/>
							<g>
								<path class="st37" d="M492.3,459.4l-44.3-0.6c0,0-0.3-0.9-0.4-2.2c-0.2-2.1,0.1-5.2,2.7-7.2c3.7-2.9,9.6-3.3,13.5-4.8
									c2.3-0.9,3.7-3.2,3.7-3.2l6.3,0.4c0,0,0.5,3.5,2.9,3.3c2.3-0.2,10.1-4,10.1-4c4,6.8,5.2,12.4,5.5,15.5
									C492.4,458.3,492.3,459.4,492.3,459.4z"/>
								<path class="st38" d="M492.3,459.4l-44.3-0.6c0,0-0.3-0.9-0.4-2.2h44.6C492.4,458.3,492.3,459.4,492.3,459.4z"/>
							</g>
						</g>
						<g>
							<g>
								<polygon class="st16" points="519.3,430.3 521.3,443.3 529.9,446.8 539.7,442.1 537.9,429.3 								"/>
								<g>
									<path class="st37" d="M545.2,459.4l-44.3-0.6c0,0-0.3-0.9-0.4-2.2c-0.2-2.1,0.1-5.2,2.7-7.2c3.7-2.9,9.6-3.3,13.5-4.8
										c2.3-0.9,3.7-3.2,3.7-3.2l6.3,0.4c0,0,0.5,3.5,2.9,3.3c2.3-0.2,10.1-4,10.1-4c4,6.8,5.2,12.4,5.5,15.5
										C545.3,458.3,545.2,459.4,545.2,459.4z"/>
									<path class="st38" d="M545.2,459.4l-44.3-0.6c0,0-0.3-0.9-0.4-2.2h44.6C545.3,458.3,545.2,459.4,545.2,459.4z"/>
								</g>
							</g>
							<g>
								<path class="st39" d="M516.7,301.3l-7.2,11.8c0,0-41.5,6.3-48.2,16.5c-6.2,9.4,2.2,104.5,2.2,104.5h28.5
									c0,0-2.2-70.2,0-76.7c2.2-6.5,67.5-6.1,71.3-15s5-39.8,5-39.8"/>
								<path class="st40" d="M569.3,314.9c0,0,1.6,25.4-6.8,31.5c-7.3,5.3-25.7,6.7-25.7,6.7l3.6,79.2l-27.3,1.8
									c0,0-13.5-92.4-12.9-101.2c0.6-8.9,26.9-15.3,25.1-16.5c0,0-20.2-6.9-12.7-14.4c0.2-0.2,0.4-0.4,0.5-0.5
									c1.7-1.5,23,0.1,23,0.1l19.6-1.8l7.8,8.8L569.3,314.9z"/>
							</g>
						</g>
					</g>
					<path class="st39" d="M568.3,322.9c-0.2,1.2-0.4,2.6-0.6,3.9c-3.4-4.3-8.8-10.5-13.6-13.1c-9.9-5.5-41.7-9.2-41.7-9.2l0.1-2.7
						c0.2-0.2,0.4-0.4,0.5-0.5c1.7-1.5,23,0,23,0l19.6-1.8l7.8,8.8L568.3,322.9z"/>
					<g>
						<g>
							<path class="st33" d="M555.2,220.6c0,0-11.7,15.1-19,14.3c-7.3-0.8-13-8.8-13-8.8s2.9-1.1,4.2-5.8c0.7-2.8,0.9-6.7-0.3-12.4
								l21.6-3.2c0,0-0.1,3.6,0.8,7.5C550.3,215.5,552,219,555.2,220.6z"/>
							<path class="st17" d="M527.4,220.3c0.7-2.8,0.9-6.7-0.3-12.4l21.6-3.2c0,0-0.1,3.6,0.8,7.5
								C543.7,217.1,535.7,220,527.4,220.3z"/>
						</g>
						<g>
							<g>
								<path class="st17" d="M507.2,195.1c0.3-2.9,3.8-4.9,7.9-4.5c4,0.5,7,3.2,6.7,6.1c-0.3,2.9-3.8,4.9-7.9,4.5
									C509.8,200.7,506.9,198,507.2,195.1z"/>
								<g>
									<path class="st41" d="M515.4,195.8L515.4,195.8c0-1-0.8-1.8-1.7-1.8h-1c-1,0-1.7,0.8-1.7,1.7v0.1c0,1,0.8,1.7,1.7,1.7h1
										C514.6,197.6,515.4,196.8,515.4,195.8z"/>
									<rect x="511" y="195.8" class="st41" width="1.5" height="4"/>
								</g>
							</g>
							<g>
								<path class="st33" d="M556,187.5c0-13.8-9.6-25-21.4-25s-21.4,7.4-21.4,25c0,13.8,5.4,25.8,18.1,26.6
									C543.2,214.9,556,201.3,556,187.5z"/>
								<path class="st17" d="M553.5,194c-3.9-3.8-6.8-8.6-8.2-13.9c-2,0.6-4.3,0.2-5.7-0.9c-4.3,1.8-9.5,1.4-13.4-0.8
									c-3.1,1.4-6.8,1.4-10-0.3c-1.5,2-2.6,4.4-3.3,6.8c0.3-4.8,0.6-9.5,0.9-14.3c11.3-1.6,22.6-2.7,34-3.3c0.6,0,1.3-0.1,1.9,0.2
									c0.9,0.4,1.2,1.4,1.5,2.4C553.6,177.8,554.8,186.1,553.5,194z"/>
							</g>
							<g>
								<path class="st37" d="M559,169.1c-0.5,7.1-0.9,16.3-1.4,23.3c-0.7,2.4-2.7,2.3-5.5,3.2c-2.6-5.8-4.2-12.1-5.2-19
									c-2.7,0.7-5.7,0.5-8.5-0.6c-4.2,1.6-8.9,1.7-13.2,0c-3.2,1.1-6.8,1.3-9.8,0.2c-1.2,3.5-1.7,8.8-2,12.5
									c-0.4-3.4-1.7-14-2.1-21.2c-0.1-3.1-0.1-5.6,0.2-6.7c1.3-3.9,5.7-2.7,6.8-1.3c0.8-1.8,2.5-3.2,4.4-3.7s4.1,0.1,5.8,1.4
									c1.2-2.3,3.7-3.8,6.3-3.9c2.6,0,5.1,1.4,6,3.8c1.2-0.7,2.4-1.3,3.8-1.5c1.3-0.2,2.8-0.1,3.9,0.6c0.6,0.3,1,0.8,1.4,1.5
									c0.4,0.6,0.7,1.4,0.8,2.2c1.1-1.5,3.4-1.8,5-0.9c1.6,0.9,2.7,2.6,3.1,4.4C559.2,165.4,559.1,167.3,559,169.1z"/>
								<path class="st42" d="M550,157.9c-1.4-0.6-3-0.8-4.5-0.4c-1.9,0.4-3.6,1.6-4.6,3.5c-0.9-2.4-3.4-4.1-6-3.9
									c-2.5,0.1-4.9,2-6.1,5c-1.4-1.6-3.6-2.5-5.7-2.2s-4.1,1.6-5,3.7c-0.7-0.9-2-1-3.1-0.6c-1.1,0.4-1.9,1.3-2.5,2.2
									c-0.5,0.8-0.9,1.6-1.3,2.5c-0.1-3.1-0.1-5.6,0.2-6.7c1.3-3.9,5.7-2.7,6.8-1.3c0.8-1.8,2.5-3.2,4.4-3.7
									c1.9-0.4,4.1,0.1,5.8,1.4c1.2-2.3,3.7-3.8,6.3-3.9c2.6,0,5.1,1.4,6,3.8c1.2-0.7,2.4-1.3,3.8-1.5c1.3-0.2,2.8-0.1,3.9,0.6
									C549.2,156.8,549.6,157.3,550,157.9z"/>
							</g>
							<g>
								<path class="st43" d="M522,186.4c-1.8-0.4-3.9-0.1-5.4,1"/>
								<path class="st43" d="M536.1,186.8c2-0.9,4.4-0.6,6.2,0.6"/>
								<path class="st44" d="M527.5,194.4c0.1,2,0.2,4,0.6,5.9"/>
								<path class="st44" d="M530.3,205.8c2.4,0.1,4.8-0.8,6.6-2.4"/>
								<path class="st45" d="M536.9,194c0.6-0.1,1.2,0.4,1.3,1.2c0.1,0.8-0.2,1.5-0.8,1.6c-0.6,0.1-1.2-0.4-1.3-1.2
									C535.9,194.8,536.3,194.1,536.9,194z"/>
								<path class="st45" d="M520.1,194.2c0.6-0.1,1.2,0.4,1.3,1.2c0.1,0.8-0.2,1.5-0.8,1.6c-0.6,0.1-1.2-0.4-1.3-1.2
									C519.2,195.1,519.5,194.3,520.1,194.2z"/>
							</g>
							<g>
								<path class="st33" d="M554.2,190.6c4-0.6,7.6,1.4,8,4.3s-2.5,5.7-6.5,6.3c-4,0.6-7.6-1.4-8-4.3S550.2,191.1,554.2,190.6z"/>
								<g>
									<path class="st41" d="M554,195.8L554,195.8c0-1,0.8-1.8,1.7-1.8h1c1,0,1.7,0.8,1.7,1.7v0.1c0,1-0.8,1.7-1.7,1.7h-1
										C554.8,197.6,554,196.8,554,195.8z"/>
									<rect x="557" y="195.8" class="st41" width="1.5" height="4"/>
								</g>
							</g>
						</g>
					</g>
					<g>
						<path class="st46" d="M552.5,217.3c0,0-11.9,7.2-13.9,9.7c-2.1,2.6-2.7,6.1-2.7,6.1s-2.8-6-3.5-6.5s-5.6-5.2-5.6-5.2l-5.8,4.4
							l-7.8,4.1l0.3,75l52.8,3.6l1.4-81.4L552.5,217.3z"/>
						<path class="st47" d="M535.9,233.6c-2.5,21,1.8,57.8-5.2,72.1"/>
						<path class="st48" d="M536.9,230.1c0,0,0.9-3.3,2.9-5s12.6-7.9,12.9-7.9c0.3-0.1,5.5,3.6,5.5,3.6l-7.8,11.1c0,0-8-5.6-9.9-5.2
							C538.6,227.1,536.9,230.1,536.9,230.1z"/>
						<path class="st48" d="M534.4,230.1c0,0-0.6-2.3-1.7-3.7c-1.2-1.5-5.3-5.9-5.8-5.9c-0.4,0-4.6,2.5-5.3,4
							c-0.7,1.5-0.3,8.7-0.3,8.7s7-6.7,9.8-5.9C532.9,227.8,534.4,230.1,534.4,230.1z"/>
					</g>
					<g>
						<path class="st6" d="M557.1,219.4c0,0-9.2,8.6-10.5,17.4s-0.9,54.8,7.6,70.1c7.4,13.3,8.1,55.6,8.1,75.3l25.8-8.9
							c0,0-0.1-35.2-8.4-67.9c-6.5-25.3-0.3-71.5-4-76.1C573,226.2,557.1,219.4,557.1,219.4z"/>
						<path class="st49" d="M546.2,268.5c0,0-2.1-24.3-0.1-32.2s8-17.8,9.6-18.1c2.7-0.6,8.6,4,8.6,4s-4.8,8.3-6.2,21
							c-0.1,1.1-9.6,4.6-9.6,4.6s7.4,5.4,7.3,5.9C555.7,254.4,546.2,268.5,546.2,268.5z"/>
					</g>
					<g>
						<g>
							<ellipse class="st36" cx="529.3" cy="310" rx="10" ry="6.2"/>
							<path class="st16" d="M543,301.8c-3.4-0.5-6.8-0.9-10.2-1.4c-0.9-0.1-1.9-0.2-2.7,0.2c-1.2,0.5-1.7,1.9-1.8,3.2
								c1.7,0.1,3.4,0.3,5.1,0.6c-2.1,2.9-4.6,5.4-7.5,7.4c-0.6,0.5-1.3,0.9-1.8,1.5c-0.5,0.6-0.8,1.5-0.5,2.2
								c0.3,0.7,1,1.2,1.8,1.4c0.8,0.1,1.6,0,2.5,0.1c-0.3,1.1,0.3,2.4,1.3,3c1,0.5,2.4,0.3,3.4-0.4c0.5,1,1.5,1.7,2.6,1.9
								c1.1,0.2,2.3-0.2,3.2-0.5c0.8,0.9,2,1.5,3.2,1.5c1.2,0,2.4-0.6,3.4-1.5c3-2.6,5.3-5.9,6.8-9.6
								C548.7,308.4,545.7,305.3,543,301.8z"/>
						</g>
						<g>
							<path class="st6" d="M559.5,238.6c-0.2-4.8,2.2-13.9,5.7-14.9c5.4-1.5,14.6,6.7,17,13.1c2.4,6.5,9.7,46.2,7.7,51.6
								c-2.8,7.4-39.9,27.2-39.9,27.2l-11.5-16.8c0,0,25.7-14,27.3-18.4C566.7,277.7,560.1,249.9,559.5,238.6z"/>
							<path class="st50" d="M571.9,230.3c0,0-4.2,5.4-4.2,15.2s2.4,32.9,1.8,33.8c-0.5,0.9-18.7,12.6-18.7,12.6"/>
							<path class="st50" d="M568.1,260.2c-2.7-3.2-4.6-7-5.5-11"/>
							<path class="st50" d="M558.2,311.7c5.9-3.2,14.4-8.2,19.5-12.3"/>
						</g>
					</g>
					<g>
						<path class="st6" d="M525.4,221.1c0,0-1.6,6-1.6,16.4c0,17.5-2.3,66.2-11.5,73.3c-7.2,5.6-16.3,5.3-20.4,5.3
							c0,0,8.6-4.6,11.8-9.9c3.6-5.9,4.2-24.6,4.6-34.3c0.5-10.3,1.4-38.8,2.6-41.2C513.5,225.4,525.4,221.1,525.4,221.1z"/>
						<path class="st49" d="M522.4,270c0,0,2.1-16.5,2.1-27.9c0-12.8,2.1-21.6,2.1-21.6s-7.3,2.3-8.1,3.5c-0.8,1.2-4.6,7.9-6.5,20.8
							c-0.3,2.1,8.3,3.9,8.3,3.9s-6.6,5.1-6.6,6.4C513.7,257.5,522.4,270,522.4,270z"/>
						<g>
							<path class="st50" d="M510.5,235.9c0,27.9-2.5,50.2-3.8,58"/>
							<path class="st50" d="M506.5,245.9c0.7,4,2.5,7.9,3.5,9.2"/>
						</g>
					</g>
				</g>
				<g>
					<path class="st51" d="M511.7,199.7c0,0,1.4,32.2,20.7,33.4c16.3,1,25.3-19,25.3-33.5"/>
					<g>
						<path class="st52" d="M533.6,233.6c0,0-11.9,43.4-44.8,51.2c-40.3,9.6-79.8-1.2-79.8-1.2"/>
						<path class="st52" d="M480.3,234.8c0,0,4.6,26.3-15.8,39.9C446.4,286.8,409,283,409,283"/>
						<path class="st52" d="M520,309.8c0,0-73.9,0.1-111.5-26.2"/>
					</g>
				</g>
			</g>
		</g>
		<g>
			<path class="st53" d="M674.6,124.7c-0.5-7.9,5.3-15.7,12.9-17.6c7.6-1.9,16.4,2.2,19.7,9.4c2.9,6.1,1.9,13.3,0.5,19.9
				c-1.4,6.6-3.1,13.5-1.5,20c1.3,5.5,4.9,10.4,5.6,16.1c1,7.8-4.5,15.8-12.1,17.8c-4.3,1.1-9.8-0.3-11.2-4.5
				c-1.3-3.9,1.6-8.1,1-12.1c-0.5-3.4-3.3-5.9-5.5-8.5C675.7,155.7,675.6,142.1,674.6,124.7z"/>
			<g>
				<path class="st54" d="M601.2,224.3c-3.8-4.4-6.6-12.2-6.6-14.9c0-3.1-0.5-6.3,0.6-9.3c0.6-1.5,1.4-2.9,2.3-4.2
					c1-1.6,2-3.1,3-4.6c0.4-0.6,0.9-1.3,1.6-1.5c1.2-0.3,2.4,1.1,2.3,2.3c-0.1,1.3-0.9,2.4-2.4,3.5c0.5-2.3,1.7-4.5,3.4-6.2
					c0.4-0.5,1-0.9,1.6-0.8c1,0.2,1,1.7,0.7,2.7c-0.7,2.5-1.3,5-1.9,7.2c2.1,4.1,1.9,8.9,2,13.5c0,4.6,0.5,9.6,3.5,13
					C608.4,226.2,604.9,221.1,601.2,224.3z"/>
				<path class="st54" d="M600.7,223.7c0,0,10.2,34.7,17.8,35.4c9.3,0.9,16.8-7.7,16.8-7.7l6.1-31.1l-13.7-8.2l-7.6,24.9l-10.8-12.2
					L600.7,223.7z"/>
				<path class="st55" d="M646.4,225.5c-7.6-2.9-15.1-5.7-22.7-8.6c2.1-9.9,4.9-21.7,7.4-25.5c4.7-7.1,12.2-7.4,12.2-7.4l3.5,10.2
					l-0.4,31.1C646.4,225.3,646.4,225.4,646.4,225.5z"/>
				<g>
					<polygon class="st56" points="639.5,245.6 617.4,188.5 590.3,195.5 615.3,259.1 					"/>
					<polygon class="st15" points="635.8,242.5 615.9,191.6 593.8,197.6 615.5,253.2 					"/>
					<polygon class="st57" points="608.8,190.2 610.2,193.9 601.5,196.3 599.9,192.6 					"/>
				</g>
			</g>
			<g>
				<g>
					<g>
						<g>
							<path class="st58" d="M626.4,452.1c0.1,3.8,39.4,2.5,41.2-0.6c1.1-2-1-7.1-2.6-10.4c-0.9-1.8-1.6-3-1.6-3l-5-7l-4-0.1
								c-8.8,5.1-17.7,10.7-23,15C628.3,448.6,626.4,450.7,626.4,452.1z"/>
							<path class="st54" d="M631.4,446c8.1,5.1,26.9-2,33.6-4.9c-0.9-1.8-1.6-3-1.6-3l-5-7l-4-0.1
								C645.6,436.1,636.7,441.7,631.4,446z"/>
						</g>
						<polygon class="st54" points="643.5,415.6 644.9,430.9 645.4,436.4 645.7,440.2 661.7,438.5 661.8,435.8 661.8,435.8 
							661.9,433 662.8,414.9 662.9,413.1 653.2,414.3 						"/>
					</g>
					<polygon class="st59" points="643.5,415.6 644.9,430.9 652.8,431.9 652.9,431.9 659.6,432.7 661.9,433 662.8,414.9 
						653.2,414.3 					"/>
				</g>
				<path class="st55" d="M632.3,262.2c0,0-6.8,18.9-5.5,45.8c1.3,26.9,12.7,120.7,12.7,120.7l28.3-1.3l-4.8-121.1l-6.8-37.5"/>
			</g>
			<g>
				<g>
					<g>
						<g>
							<path class="st58" d="M697.1,451.7c2.5,2.8,31.6-23.7,31-27.2c-0.4-2.3-5.3-4.8-8.7-6.2c-1.8-0.8-3.2-1.3-3.2-1.3l-8.3-2.1
								l-3.1,2.5c-3.4,9.6-6.5,19.6-7.8,26.3C696.2,447.8,696.2,450.7,697.1,451.7z"/>
							<path class="st54" d="M697,443.8c9.5-1.4,19.1-19,22.4-25.5c-1.8-0.8-3.2-1.3-3.2-1.3l-8.3-2.1l-3.1,2.5
								C701.3,427.1,698.2,437.1,697,443.8z"/>
						</g>
						<polygon class="st54" points="686.4,412.8 693,419.3 701.4,427.4 704.1,430.1 715.1,418.5 713.5,416.4 708.7,410.2 
							699.6,398.4 						"/>
					</g>
					<polygon class="st59" points="686.4,412.8 693,419.3 708.7,410.2 699.6,398.4 					"/>
				</g>
				<g>
					<path class="st60" d="M628.5,280c2.8,7.6,23.5,21.1,23.5,21.1s-0.2,53.3,0.6,66.8c0.8,13.4,28.6,57.3,28.6,57.3l26.1-23.2
						c0,0-20.2-33.8-21.6-41.8c-1.4-8,7.4-49.8,7.4-66.8c0-3.1-0.3-6.4-0.8-9.6c-1-7.1-3-14-4.7-19.2c-1.7-5.1-3.1-8.5-3.1-8.5
						s-14.2,2.1-28.3,6c-13,3.6-25.9,8.9-27.8,15.5C628.1,278.3,628.2,279.1,628.5,280z"/>
					<path class="st55" d="M628.5,280c6.9,4.1,14.1,7.7,21.5,10.7c0.5-1.2,0.9-2.5,1.6-3.7c0.7,1.4,1.3,2.8,2.1,4.7
						c12.8-3.2,25.6-5.9,38.6-7.9c-1-7.1-3-14-4.6-19.2c-10.5-1-20.9-1.8-31.4-2.5c-13,3.6-25.9,8.9-27.8,15.5
						C628.1,278.3,628.2,279.1,628.5,280z"/>
				</g>
			</g>
			<path class="st61" d="M701,192.3c-1-6-23.7-13.7-31.4-13c-16.6,1.5-28.6,4.5-32.4,6.9c-3.8,2.4-7.2,24.5-7.2,30.7
				c0,7.3,2.5,21.6,1.8,27.4c-1.3,11.2-8.1,34.9-8.1,34.9l25,8.8l3.1-5.5l2.8,6.9l41.3-9.5c0,0-3.2-32.9-3.2-38.7
				C692.8,235.8,702.3,200.1,701,192.3z"/>
			<g>
				<path class="st62" d="M662.4,196.2c-8.3,43.2-8.8,55.6-10.7,86"/>
				<g>
					<circle class="st58" cx="663.5" cy="204.8" r="1.4"/>
					<circle class="st58" cx="660" cy="223.7" r="1.4"/>
					<circle class="st58" cx="657.3" cy="243.6" r="1.4"/>
					<circle class="st58" cx="656" cy="266.5" r="1.4"/>
				</g>
			</g>
			<g>
				<g>
					<g>
						<g>
							<g>
								<path class="st58" d="M614.2,223l4.1,0.3l0.3,0l27.8-7.3c1.9-1,2.2-2.6,1.8-3.8c-0.6-1.6-2.4-2.3-4-1.8l-26.5,9.4l-0.3,0.2
									L614.2,223z"/>
								<g>
									<path class="st63" d="M614.2,223l1.1,0.1l3,0.2c-0.1-0.1-0.2-0.1-0.3-0.2c-0.4-0.4-0.6-0.9-0.4-1.3
										c0.1-0.2,0.2-0.4,0.1-0.6c0-0.1-0.1-0.1-0.2-0.2c-0.2-0.2-0.2-0.6-0.2-0.9l-2.4,2.2L614.2,223z"/>
									<path class="st64" d="M614.2,223l1.1,0.1c-0.1-0.1-0.2-0.3-0.2-0.5c0-0.1-0.1-0.3,0-0.4L614.2,223z"/>
								</g>
							</g>
							<g>
								<path class="st54" d="M647,229.2c-2.7-5.1-5.5-10.1-8.4-15.2c-2.2-1.7-4.6-3-7.1-3.9c-3,1-5.7,2.7-8,5.1
									c-0.6,0.6-1.1,1.4-0.9,2.2c0.2,0.6,0.8,0.9,1.3,0.8c0.5,0,1.1-0.3,1.6-0.6c1.5-0.9,3-1.8,4.8-2.6c0.5,0.4,1,0.8,1.3,1.3
									c-1,0-2,0-3.3,0.4c-2,0.9-3.9,2-5.7,3.1c-0.5,0.3-1.1,0.8-1.1,1.4c0,0.5,0.3,1,0.7,1.3c0.4,0.2,0.9,0.2,1.4,0.2
									c1.7-0.1,3.5-0.8,4.9-1.8c0.6,0.2,1.2,0.3,1.6,0.6c-0.8,0.1-1.5,0.3-2.2,0.6c-0.7,0.4-1.3,0.9-1.6,1.7
									c-0.3,0.8-0.2,1.8,0.2,2.6c-0.4,0.2-0.6,0.7-0.6,1.1c0,0.5,0.2,0.9,0.4,1.3c0.4,0.9,0.9,1.7,1.4,2.4c0.5,0.7,1,1.4,1.8,1.8
									c0.8,0.3,1.8,0.1,2.3-0.9c2.1,3.6,5.9,5.6,9.7,5.2C643.8,235.1,645.6,232.2,647,229.2z"/>
								<g>
									<path class="st65" d="M635.1,216.8c-1-0.4-2-0.6-3.1-0.7"/>
									<path class="st65" d="M633.1,221.2c-1-0.1-2-0.1-2.7,0.1"/>
									<path class="st65" d="M626.7,226.1c1.4-0.8,3.7-1.2,5.3-1"/>
									<path class="st65" d="M631.5,231.9c-0.5-0.8-0.9-2.1-1.1-3"/>
									<path class="st65" d="M630.7,230.6c-0.6,0.1-1.3,0.2-1.8,0.1"/>
								</g>
							</g>
						</g>
					</g>
					<g>
						<path class="st54" d="M639.9,236.2c0,0,34.6,29.3,43.9,26c3.7-1.3,7.4-12.1,10.1-22.1c2.5-9.2,4.1-17.8,4.1-17.8l-19.6-8.3
							c0,0-1.3,8.9-2.6,16.1c-0.9,4.9-1.8,9-2.2,9.1c-2,0.6-27.4-10.7-27.4-10.7L639.9,236.2z"/>
						<path class="st59" d="M675.7,230.1c4.7,3.1,12,7.6,18.1,9.9c2.5-9.2,4.1-17.8,4.1-17.8l-19.6-8.3
							C678.3,214,677,222.9,675.7,230.1z"/>
					</g>
				</g>
				<path class="st66" d="M697.9,232.7c-8.6-1.6-15.4-3-23.6-6c1.2-9.6,3.9-27,6.1-32.4c1.6-3.8,7.7-10.5,14.6-7.6
					c6.9,2.9,9.6,7.5,8.8,19.5C703.5,210.6,699.5,224,697.9,232.7z"/>
			</g>
			<g>
				<g>
					<g>
						<path class="st54" d="M656.1,183.7c0,0,2,9.1,5.9,11.8c3.9,2.7,18.6-13.7,18.6-13.7c-2.5-2.4-3.1-7-3.1-11.1
							c0-4.2,0.7-7.8,0.7-7.8l-17.9,5.2c0.2,4.4-0.2,7.6-0.7,9.9C658.3,182.9,656.1,183.7,656.1,183.7z"/>
						<path class="st59" d="M659.5,178c8.2,1.8,14.6-3.5,17.9-7.3c0-4.2,0.7-7.8,0.7-7.8l-17.9,5.2
							C660.5,172.5,660.1,175.7,659.5,178z"/>
					</g>
					<g>
						<path class="st58" d="M662.6,195.8c-0.2,0,0.9-6.2,1.5-6.7c0.6-0.5,14.7-12.9,15.5-12.4c1.2,0.7,3.3,4.6,3.3,4.6
							s-2.9,3.9-8.4,8.4C670.8,192.6,664.8,196.1,662.6,195.8z"/>
						<path class="st58" d="M662.6,195.8c0.3-0.3-0.3-6.4-0.7-7c-1.2-1.8-3.2-6.7-3.2-9.9c0,0-3.6,1.4-4,2.1c-0.4,0.8,1.5,6.6,3,9.3
							C660.3,194.9,662.4,196,662.6,195.8z"/>
					</g>
				</g>
				<g>
					<g>
						
							<ellipse transform="matrix(0.1126 -0.9936 0.9936 0.1126 419.8328 778.2086)" class="st59" cx="645.6" cy="154.1" rx="5.4" ry="7.4"/>
						<g>
							<path class="st54" d="M688,145.5c0-14.1-9.8-25.5-21.8-25.5c-12,0-21.8,11.4-21.8,25.5c0,14.1,6,28.1,18.2,27.6
								C674.7,172.6,688,159.6,688,145.5z"/>
							<path class="st59" d="M683.2,151.5c-2.5-2.8-4.1-7.9-4.5-10.1c-2.4-0.7-5.3-3-6.8-6.1c-3.7,3.7-17.7,5.8-22.4,4.5
								c-3.3,4.1-3.4,6.2-4.6,11.4c-0.8-6.4-0.4-12.9,1-19.2c8.8-2.8,17.3-6.2,25.7-10.2c1.4-0.7,3.1-1.4,4.5-0.6
								c0.9,0.5,1.3,1.5,1.8,2.4c1.9,3.8,4.6,7.3,7.9,10c0.9,0.7,1.8,1.5,1.9,2.6c0,0.7-0.4,1.4-0.7,2
								C685.2,141.1,685.5,148,683.2,151.5z"/>
						</g>
						<g>
							<path class="st67" d="M640.8,136.9c-0.1,5.3,4.3,16.4,4.3,16.4s0-9.1,4.2-15.1c8.6,0,18.2-0.4,23.4-5.3
								c1.5,3.9,4.2,6.1,7.3,7.2c-0.1,4.8,2.1,9.4,3.5,13.4c2.7-1.6,4.8-0.9,7-3.6c1.3-4.7,2.6-12.1,2.2-16.7
								c-0.3-3.7-1.3-7.4-3.3-10.5c-0.5-0.7-1-1.4-1.6-2.1c-3.1-3.4-7.9-5.4-12.4-4.3c-2.5-3-6.3-4.7-10-4.9
								c-3.8-0.2-7.6,1-10.9,2.9c-6.5,3.7-11.5,9.3-13.1,17.2C641,133.3,640.8,135.1,640.8,136.9z"/>
							<path class="st68" d="M640.8,136.9c0.2-0.7,0.4-1.4,0.7-2c1.2-3.2,3.2-6.2,5.5-8.8c3.5-4,7.8-7.4,12.9-8.8
								c5.1-1.4,11-0.5,14.8,3.2c4.8-2,10.7-0.9,14.8,2.5c-0.5-0.7-1-1.4-1.6-2.1c-3.1-3.4-7.9-5.4-12.4-4.3c-2.5-3-6.3-4.7-10-4.9
								c-3.8-0.2-7.6,1-10.9,2.9c-6.5,3.7-11.5,9.3-13.1,17.2C641,133.3,640.8,135.1,640.8,136.9z"/>
						</g>
						<path class="st54" d="M686.7,148.9c4-1,7.8,0.5,8.6,3.4c0.7,2.9-1.9,6.1-5.9,7.1c-4,1-7.8-0.5-8.6-3.4
							C680.1,153.1,682.7,149.9,686.7,148.9z"/>
					</g>
					<g>
						<g>
							<ellipse class="st69" cx="667.7" cy="154.9" rx="0.9" ry="1.5"/>
							<ellipse class="st69" cx="650.3" cy="154.9" rx="0.9" ry="1.5"/>
							<path class="st70" d="M653.1,145.7c-1.8-0.6-3.9-0.5-5.6,0.4"/>
							<path class="st70" d="M666.2,146.5c2-0.9,4.5-0.6,6.4,0.6"/>
							<path class="st71" d="M656.8,156.1c-0.2,1-0.1,3.3,0,4.3"/>
						</g>
						<path class="st71" d="M657.9,164.6c2.7,1.1,5.4,0.5,6.9-1.7"/>
					</g>
				</g>
			</g>
		</g>
	</g>
	<g>
		<g>
			<circle class="st72" cx="350.4" cy="96.3" r="36.7"/>
			<g>
				<path class="st30" d="M326.5,84c8-15,23.9,5.1,23.9,5.1s15.9-17.2,23.9-6c8.3,11.6-23.9,38.5-23.9,38.5S319.6,96.7,326.5,84z"/>
				<polyline class="st73" points="323.8,100.8 335,100.9 338.4,87.3 345.5,113.1 351.2,81.9 357.3,110 361,89.6 364.9,100.3 
					377.1,100.6 				"/>
			</g>
		</g>
		<g>
			<circle class="st72" cx="452" cy="153.5" r="37.5"/>
			<g>
				<path class="st6" d="M472,155.1l-28.7,16.4c-5.5,3.1-12.4,1.2-15.5-4.2c-1.6-2.7-1.9-5.8-1.1-8.6c0.8-2.8,2.6-5.3,5.3-6.9
					l28.7-16.4c5.5-3.1,12.4-1.2,15.5,4.2c1.6,2.7,1.9,5.8,1.1,8.6C476.6,151.1,474.7,153.6,472,155.1z"/>
				<path class="st30" d="M472,155.1l-14.4,8.2l-11.3-19.8l14.4-8.2c5.5-3.1,12.4-1.2,15.5,4.2c1.6,2.7,1.9,5.8,1.1,8.6
					C476.6,151.1,474.7,153.6,472,155.1z"/>
			</g>
		</g>
		<g>
			<circle class="st72" cx="547.4" cy="84.3" r="36.7"/>
			<g>
				<g>
					<path class="st6" d="M566.1,65.9V91c0,6.1-3.1,11.9-8.3,15.2l-10.4,6.1l-9.5-6.2c-5.7-3.3-9.2-9.3-9.2-15.8V65.9l18.6-5.3
						l0.1,0L566.1,65.9z"/>
					<path class="st74" d="M566.1,65.9V91c0,6.1-3.1,11.9-8.3,15.2l-10.4,6.1V60.6L566.1,65.9z"/>
				</g>
				<g>
					<rect x="543" y="72.2" class="st30" width="8.6" height="28.4"/>
					<rect x="533.2" y="82.1" class="st30" width="28.4" height="8.6"/>
				</g>
			</g>
		</g>
	</g>
</g>
</svg>
