<?xml version="1.0" encoding="utf-8"?>
<!-- Generator: Adobe Illustrator 25.2.0, SVG Export Plug-In . SVG Version: 6.00 Build 0)  -->
<svg version="1.1" id="Layer_1" xmlns="http://www.w3.org/2000/svg" xmlns:xlink="http://www.w3.org/1999/xlink" x="0px" y="0px"
	 viewBox="0 0 307 78" style="enable-background:new 0 0 307 78;" xml:space="preserve">
<style type="text/css">
	.st0{fill:#268065;}
</style>
<g>
	<path class="st0" d="M102.6,10.7h5.8v44.5h-6.1V21.9l0.3,2l-11,25.2h-4.3l-11-24.6l0.3-2.6v33.3h-6.1V10.7h5.8l13.1,29.4
		L102.6,10.7z"/>
	<path class="st0" d="M124.4,54.1c-2.1-1.1-3.7-2.7-4.7-4.9c-1-2.1-1.6-4.7-1.6-7.8v-3.6c0-3.2,0.5-5.8,1.6-8c1-2.2,2.6-3.9,4.6-5.1
		c2-1.2,4.4-1.7,7.2-1.7c2.7,0,4.9,0.7,6.8,2s3.3,3.2,4.3,5.8c1,2.5,1.5,5.6,1.5,9.1v2.1h-21.4v-5h15.5c-0.2-2.6-0.8-4.6-2-6
		s-2.7-2.2-4.7-2.2c-2.3,0-4.2,0.8-5.5,2.3s-1.9,3.8-1.9,6.6v4c0,2.6,0.7,4.7,2.1,6c1.4,1.4,3.4,2.1,5.9,2.1c1.2,0,2.5-0.3,3.8-0.8
		s2.3-1.2,3.4-2.1l4.1,4.1c-1.6,1.5-3.4,2.7-5.3,3.5c-2,0.8-3.9,1.2-5.9,1.2C128.9,55.7,126.4,55.2,124.4,54.1z"/>
	<path class="st0" d="M156.6,54.3c-1.6-1-2.9-2.5-3.8-4.4c-0.8-1.9-1.3-4.3-1.3-7v-7c0-2.7,0.4-5.1,1.2-7s2.1-3.4,3.6-4.4
		c1.6-1,3.5-1.5,5.8-1.5c1.9,0,3.6,0.5,5.1,1.4c1.6,1,2.8,2.3,3.8,4.1l-0.6,6.5c0-1.4-0.3-2.5-0.8-3.4c-0.5-1-1.2-1.7-2.1-2.2
		s-2.1-0.8-3.4-0.8c-2.1,0-3.6,0.6-4.8,1.9c-1.1,1.3-1.7,3.1-1.7,5.4V43c0,2.3,0.5,4.1,1.7,5.3c1.2,1.2,2.7,1.9,4.8,1.9
		c1.3,0,2.5-0.3,3.4-0.8c0.9-0.5,1.6-1.2,2.1-2.3c0.5-1,0.8-2.1,0.8-3.5l0.4,6.7c-0.6,1.6-1.6,2.9-3.1,4c-1.4,1.1-3.2,1.6-5.3,1.6
		C160.2,55.8,158.2,55.3,156.6,54.3z M170.5,10.7h6.2v44.5h-6.2V10.7z"/>
	<path class="st0" d="M202.6,10.7h6.2v44.5h-6.2V10.7z M206.9,49.3h10.1c3.3,0,5.8-0.8,7.6-2.5c1.8-1.7,2.7-4.1,2.7-7.2V26.4
		c0-3.1-0.9-5.5-2.7-7.2c-1.9-1.7-4.4-2.5-7.6-2.5h-10.1v-6h9.9c3.6,0,6.7,0.6,9.2,1.9c2.5,1.2,4.5,3.1,5.8,5.5s2,5.3,2,8.6v12.6
		c0,3.4-0.7,6.2-2,8.6s-3.3,4.2-5.8,5.4c-2.5,1.2-5.6,1.9-9.2,1.9h-9.9L206.9,49.3L206.9,49.3z"/>
	<path class="st0" d="M248.2,54.1c-2-1.1-3.4-2.7-4.5-4.7c-1-2.1-1.5-4.6-1.5-7.5v-5.1c0-2.9,0.5-5.3,1.5-7.4s2.5-3.6,4.5-4.7
		c2-1.1,4.3-1.6,7.1-1.6c2.7,0,5.1,0.5,7.1,1.6c1.9,1,3.4,2.6,4.5,4.7s1.5,4.5,1.5,7.4V42c0,2.9-0.5,5.3-1.5,7.4
		c-1,2.1-2.5,3.6-4.5,4.7c-2,1.1-4.3,1.6-7.1,1.6C252.5,55.7,250.2,55.2,248.2,54.1z M260.4,47.7c1.2-1.4,1.8-3.3,1.8-5.8v-5.3
		c0-2.5-0.6-4.4-1.8-5.7c-1.2-1.4-2.9-2-5.1-2c-2.2,0-3.8,0.7-5.1,2c-1.2,1.4-1.8,3.3-1.8,5.7v5.3c0,2.5,0.6,4.4,1.8,5.8
		c1.2,1.4,2.9,2.1,5.1,2.1S259.2,49.1,260.4,47.7z"/>
	<g>
		<path class="st0" d="M298.2,67.9c0.1-3-1.4-5.6-3.4-5.8c-1.8-0.1-3.4,1.9-3.6,4.5l-7.5-0.5c-0.1-0.3-0.3-0.6-0.5-0.6
			c-0.4,0-0.8-0.1-1.3-0.1c-0.5-0.1-1-0.2-1.4-0.3c-0.1-0.1-0.3-0.1-0.4-0.1l0,0l0,0c-0.1,0-0.1-0.1-0.2-0.1
			c-0.3-0.1-0.6-0.2-0.9-0.3c-1.3-0.5-2.5-1.2-3.8-2.2c-0.1-0.1-0.1-0.1-0.2-0.1c0,0-0.1-0.1-0.1-0.1c-0.1-0.1-0.3-0.3-0.5-0.5
			c-0.3-0.3-0.5-0.6-0.8-1c-0.1-0.1-0.3-0.3-0.3-0.5c-0.1-0.1-0.1-0.1-0.1-0.3c-0.1-0.1-0.1-0.1-0.1-0.1c0,0,0-0.1-0.1-0.1
			c-0.2-0.4-0.4-0.8-0.6-1.2c-0.1-0.2-0.2-0.4-0.3-0.7c-0.1-0.1-0.1-0.2-0.1-0.3c0.1,0.3-0.1-0.1-0.1-0.3c-0.1-0.5-0.3-1-0.4-1.6
			c0-0.1,0-0.1,0-0.1l0,0l0,0c0-0.1-0.1-0.3-0.1-0.4c-0.1-0.3-0.1-0.6-0.1-1c0-0.3-0.1-0.6-0.1-0.9V53v0.1c0-0.1,0-0.1,0-0.1l0,0
			c0,0,0,0,0-0.1c0-0.2,0-0.4,0-0.6c0-0.8,0-1.4,0.1-2.2l0,0c0-0.1,0-0.1,0-0.2c0-0.1,0-0.3,0.1-0.5c0.1-0.3,0.1-0.7,0.1-1
			c0.1-0.3,0.1-0.5,0.1-0.8l0,0l0,0c0-0.1,0-0.1,0.1-0.1c0.1-0.1,0.1-0.3,0.1-0.5c0.1-0.2,0.1-0.5,0.2-0.7c0.1-0.1,0.1-0.3,0.1-0.4
			c0-0.1,0.1-0.4,0.1-0.3c0.2-0.4,0.4-0.8,0.6-1.2c0.1-0.2,0.2-0.3,0.3-0.5c0-0.1,0.2-0.3,0.1-0.2c0.1-0.1,0.1-0.2,0.2-0.3
			c0.5-0.7,1.1-1.3,1.6-1.8c0,0,0,0,0.1-0.1c0,0,0,0,0.1-0.1s0.1-0.1,0.2-0.1c0.1-0.1,0.3-0.2,0.5-0.3c0.3-0.2,0.6-0.4,1-0.5
			c0.1-0.1,0.1-0.1,0.2-0.1c0.1,2.3,0.8,4.7,1.7,6.5c2.8,5.7,7.8,8,12.3,8c2.5,0,5-0.1,7.5-0.1c0.6,0,0.9-0.7,0.9-1.4v-0.1
			c0-0.9,0-1.9,0-2.7h0.5v-3.7c0-0.3-0.2-0.7-0.4-0.7h-0.9c-0.3,0-0.4,0.3-0.4,0.7v3.7h0.4c0,0.4,0,0.8,0,1.3c0,0,0,0-0.1,0
			c-2.3,0-4.6,0-6.9,0.1c-3.6,0-7.4-1.1-10.2-4.9c-1.3-1.7-2.3-4-2.5-6.7c-0.2-2.6,0.5-5.1,1.6-7.1c2.5-4.6,6.7-6.3,10.4-6.4
			c2.5,0,4.9-0.1,7.4-0.1c0,0,0,0,0.1,0c0,0.4,0,0.8,0,1.2h-0.4v3.7c0,0.3,0.2,0.7,0.4,0.7h0.9c0.3,0,0.4-0.3,0.4-0.7v-3.7h-0.5
			c0-0.9,0-1.9,0-2.7c0-0.1,0-0.1,0-0.2c-0.1-0.6-0.3-1.1-0.9-1.1c-2.4,0-4.8,0.1-7.2,0.1c-4.1,0-8.4,1.8-11.4,6.2
			c-1.3,2-2.3,4.5-2.6,7.3c-2,0.8-3.9,2.3-5.3,5.1c-2.1,4-2.6,10.9-1,15.8c1.5,4.7,4.4,6.9,7,8.2c1.2,0.6,2.4,1,3.6,1.2
			c0.6,0.1,1.3,0.3,1.9,0.3h0.1c0.3,0,0.4-0.2,0.5-0.5l7.5,0.5c0.1,2.7,1.6,4.9,3.4,5C296.5,73.2,298.1,70.9,298.2,67.9z
			 M294.6,71.3c-1.2-0.1-2.1-1.4-2.3-3.2l0.9,0.1l0.1-1.4l-0.9-0.1c0.3-1.7,1.3-2.9,2.5-2.9c1.4,0.1,2.4,1.9,2.3,4
			S296,71.5,294.6,71.3z"/>
		<path class="st0" d="M295.4,67.6c0-0.7-0.3-1.3-0.8-1.4s-0.8,0.5-0.9,1.2c0,0.7,0.3,1.3,0.8,1.4C295,68.9,295.4,68.3,295.4,67.6z"
			/>
	</g>
	<g>
		<path class="st0" d="M60.8,29.4c-0.2-0.1-0.5-0.3-0.6-0.6c-0.3-0.4-0.2-0.2,0-0.6c0.1-0.4,0.3-0.7,0.5-1.2
			c0.2-1.2,0.4-2.5,0.3-3.6c-0.1-1.3-0.5-2.5-1-3.8c-0.4-1.1-0.8-2.2-1.4-3.2c-1.2-1.8-3.2-2.9-5.2-3.6c-2.7-1-5.6-1.6-8.6-1.9
			c-3-0.3-6.2-0.2-9.1,0.1c-1.3,0.1-2.7,0.5-3.9,1v2.1c-0.4,0.2,0,0-0.8,0.3c-0.6,0.3-1.4,0.6-1.6,0.8c-1.4,0.8-2.6,2.1-3.5,3.6
			c-2,3.3-2.1,6.5-1.6,10.7c0.3,2.1,1,4.1,2.3,6c0.5,0.8,1.1,1.6,1.6,2.3c0.7,1,1.4,1.9,2.1,2.9c1.1,1.8,2.5,4.5,1.4,7.3
			c-0.7,1.9-2.3,3.6-4.6,5.1c-0.3,0.3-0.2,1.9,0.1,2.3l0,0c1.5,0,2.9,0,4.3,0h0.1c0-1.8,0-3.7,0-5.6c0.2-0.3,0.3-0.5,0.5-0.8
			c1.2-2.3,0.9-4.7-0.2-7c-0.1-0.2-0.2-0.3-0.3-0.5c0-0.4,0-0.8,0-1.2c0-0.4,0-0.9,0-1.3c3.4,0,6.9,0,10.3,0.1c2.1,0,4.2,0,6.2,0
			c0-3.6,0-7.3,0.1-10.9c-5.1,0-10.2-0.1-15.2-0.1c-0.4,0-0.9,0-1.3,0c0-3.4,0-6.9,0.1-10.3c0-1.2,0-2.5,0-3.7
			c1.7-1,3.4-1.5,5.5-1.6c2.9-0.1,5.8,0,8.7,0.3c2.6,0.3,5.4,0.9,7.8,2.1c2,0.9,3.3,2.1,4,4.2c0.5,1.2,0.9,2.3,1.2,3.6
			c0.2,1.2,0.1,2.3-0.1,3.5c-0.1,0.9-0.9,1.5-0.8,2.4c0.1,1,0.9,1.6,1.6,2.2c1.4,1.2,2.8,2.3,3.7,3.9c0.1,0.1,0.1,0.3,0.2,0.4
			c0,0,0,0.1,0.1,0.1c-0.2,0.1-0.4,0.1-0.6,0.1c-0.9,0.1-1.6-0.5-2.9,1c-0.8,0.9-1,5.3-0.8,6.2l0,0c0.1,0.5,0.1,1,0.1,1.5
			c0,1.6-1.2,2-2.6,2.2c-0.7,0.1-1.4,0.2-2.1,0.2s-1.3-0.2-1.9-0.3c-0.7-0.1-1.4-0.1-2.1,0.2c-1.2,0.5-1.5,1.8-1.4,3
			c0.2,2.3,1.5,4.4,2.3,6.3h2.1c-0.8-2.1-2.3-4.1-2.5-6.4c-0.1-1.2,0.6-1.3,1.7-1.1c1.3,0.2,2.5,0.2,3.8,0.1
			c1.2-0.1,2.5-0.3,3.5-1.2c0.8-0.8,1-1.7,1.1-2.7c0-0.5-0.1-1.1-0.1-1.6c0-0.8,0.1-4.7,0.1-4.8c0.1-0.7,1.9-0.5,2.4-0.5
			C68.5,36.2,62.2,30.7,60.8,29.4z M63.7,35.3C63.7,35.3,63.7,35.3,63.7,35.3L63.7,35.3z"/>
		<path class="st0" d="M26,51.9c2-1.2,3.3-2.7,3.9-4.3c0.6-1.6,0.2-3.4-1.2-5.8c-0.6-1-1.3-1.9-2-2.8c-0.5-0.8-1.2-1.6-1.7-2.4
			c-1.4-2.2-2.3-4.5-2.6-6.8c-0.5-4.5-0.4-8.1,1.9-11.8c1.1-1.8,2.5-3.2,4.1-4.2c0.3-0.2,1-0.7,1.9-1c0.6-0.3,1.1-0.4,1.4-0.6
			c0-0.1,0-0.3,0-0.5c-3.6,0-7.3,0-10.9,0c0,5.1,0,10.2-0.1,15.2c0,0.4,0,0.9,0,1.3c-3.4,0-6.9,0-10.3-0.1H4.1l0,0
			c0,2.9,0,5.9,0,8.8l0,0v2.1h1.8c4.5,0,8.9,0,13.4,0.1c0.4,0,0.9,0,1.3,0c0,3.4,0,6.9,0,10.3v6.2l0,0c1.4,0,3,0,4.7,0
			C24.8,54.5,24.9,52.6,26,51.9z"/>
	</g>
	<g>
		<rect x="186.3" y="23.5" class="st0" width="6.2" height="31.8"/>
		<g>
			<path class="st0" d="M192.7,6.3c0-1.8-1.4-3.2-3.2-3.2s-3.2,1.4-3.2,3.2v9.3c0,1.8,1.4,3.2,3.2,3.2s3.2-1.4,3.2-3.2V6.3z
				 M187,10.9V6.3c0-1.4,1.1-2.5,2.5-2.5c1.4,0,2.5,1.1,2.5,2.5v4.5H187z"/>
			<path class="st0" d="M191.2,5.5c0-0.5-0.4-0.9-0.9-0.9c-0.5,0-0.9,0.4-0.9,0.9s0.4,0.9,0.9,0.9C190.7,6.5,191.2,6.1,191.2,5.5z"
				/>
			<path class="st0" d="M190.4,7.4c0,0.3,0.3,0.6,0.6,0.6s0.6-0.3,0.6-0.6s-0.3-0.6-0.6-0.6C190.7,6.7,190.4,7,190.4,7.4z"/>
		</g>
	</g>
</g>
</svg>
